<?xml version="1.0" encoding="utf-8"?>
<!-- Generator: Adobe Illustrator 23.0.1, SVG Export Plug-In . SVG Version: 6.00 Build 0)  -->
<!DOCTYPE svg PUBLIC "-//W3C//DTD SVG 1.1//EN" "http://www.w3.org/Graphics/SVG/1.1/DTD/svg11.dtd" [
	<!ENTITY st0 "fill-rule:evenodd;clip-rule:evenodd;">
]>
<svg version="1.1" id="Layer_1" xmlns="http://www.w3.org/2000/svg" xmlns:xlink="http://www.w3.org/1999/xlink" x="0px" y="0px"
	 viewBox="0 0 500 500" style="enable-background:new 0 0 500 500;" xml:space="preserve">
<g>
	<path style="&st0;" d="M359.7,111.1c-3.4,4.7-9.4,15.5-17.1,13c-3.1,9.1,10.3,13.9,14.1,21.4c6.4,1,6.5,1.6,13.5-0.3
		c7.5,9.7,1.1,12.4,0.3,18.6c8.4,4.4,13.2,14.3,3.1,20.2c2.1,3.2,4.2,6.4,6.3,9.5c7.9-1.5,16.2-5.2,22.6,0.5
		c4.3,4.7-4.5,6.6-3.2,10.7c-6.2-0.1-12.1-1.1-19,2.3c-0.6,8.7,10.1,13.6,7.8,22.2c-2.2,0.5-5.2,5.5-6.7,2.7c-2,2,3.5,5.5-2.4,6.7
		c8.7,9.2,25.4,13.8,7,26.2c-1.4-3.2-3.9-1.2-5.1-5.2c-10.2,6.1-8.2,14.8-12.8,22.1c5.5,4.2,4.7,7.9,9.4,14.3
		c-2.7,2.5-4.4,5.3-4.8,8.3c-6.5-2.2-12.8-4.8-16.3,3.9c4,4.9,5.7,9.4,5.5,13.5c-7.5,8.9-16.5,5.3-23,11.7
		c-1.5,7.3-0.2,15.1-2.5,22.1c-5.8,0-12.7,5-17.4-0.5c-3.8,7.1-10.6,2.6-15.4-0.1c0.6,4.6,3,9.5-3.6,12.6c-3.8-0.9-5.6,1-6.3-4.4
		c-8.5,8.6-1.4,20.3-2.2,30.5c-2.3-0.4-5.1,1.4-7.9,3.5c-7.7-6.6-8.8-17.4-10.1-25.8c-4.6-2.7-11.6,6.3-15.8,1.9
		c-2.2,6.4-5.9,12.5-6,19.4c-8.3-1.6-14.5-22.1-28.4-17.2c-3.1,6.1-4.3,6.4-9.6,11.4c-13.7,1.5-14.4-19.8-28.8-20.3
		c-2.5,7.2-14.3,13.2-19,2.3c-16.9,9-11.3,27.8-25.5,33.9c-13.1,22-15.6,46.2-32.4,67.5c-3,1.4-5.9,1.8-8.7,2.3
		c-4.7,10.7-15.4,10.6-24.6,19.7c-6.9-0.5-16.1,2.7-21,7c-5.9-4-1.5-8.7-9-11.1c-7.4,2.8-10,9.8-16.6,5.8c-1.5-9,0.9-12.2-3.1-20.2
		c-3.8-3.1-7.9-4.9-13-1.7c-3-10.6,1-19.7,1-29.7c-1.2-5.6-4.8-0.1-6.3-4.4c1.4-10.7,9.3-25.6,4.9-34c6.5-3.4,8-12.5,17.5-14.9
		c2-10.4,14.5-11.3,21.1-17.3c6.5,5.1,15.5-2,21.3,6.5c6.6-5.5,11,0.1,16.6-0.7c21.6-7.4,31-13.8,53.6-25c1.1-4.2-1.1-9.2-0.3-13.5
		c-9.4-8.8-19.7,8.2-26.1-3.3c-3.3-5.9,3.5-16.2,8.4-20.9c-14.5-10.2-19.5-18.4-21.2-32.2c-4.5-2.8-6.9-1.3-10.3-0.1
		c-3.2-3.8-3.9-7-5.1-10.3c6.2-7.4,12.1-5.4,15.1-13.4c-2.9-2.4-5.8-5.4-9.9-2c-10.8-10.8,1.8-16.8,4.1-24.9
		c-4.9-6.1-10.4-9.6-15.8-13.5c1.4-7.8,12.8-7.3,16.3-14.2c-8.7-4.5-18.1,1.4-26.2,7c-6.1-10.3-14.4-13.4-19.6-24.6
		c-0.1-8.6,6.9-15.7,16-22.5c5.2-1.5,10.5,4.4,13.9-2.3c1.2,11.2,20.3,10.1,18.1,22.3c4.2,2.1,6.1-4.8,7.6-6.7
		c-9.3-2.8-5.8-11.1-12.6-19.1c6.3-4.9,10.3-9.4,16.7-5.8c6.8-13,15-12.1,24.2-17.7c2.1-1.6-1.9-4.5-0.7-6.3
		c-6.7-1.7-11.7-5.5-12.6-13.9c1.8-1,3.5-2,2.8-3.6c8,0.5,17.4,6.1,21.7,9.6c3.2-3.1,4.5-6.6,7.2-9.9c-5.1-8.9-8.7-7.8-11-16.7
		c1.5-0.7,1.9-1.7,1.6-2.8c9.5-5.9,14.2,11.1,22.9,8.8c2.1-10,18.8-6.1,14.4-19.7c1.5-2.6,6.3,0.9,4.8-3.1c9.8,14,20.7,0.4,30.8,5.3
		c4.4-5.3,1.6-12-0.3-18.6c2.4-1.6,4.8-3.1,7.1-4.7c4.2,5.3,5.8,10.1,6.2,14.7c17.8,6.9,37.6,4.2,54.5,15.3
		c12.6-3.3,10.6-10.5,22.3-18.1c3.9,3.1,2.3,4.3,6.7,7.6c-1.9,4.8-0.2,10.2-8,13.8c0,14,16.2,20.8,24.4,26.6
		C335.7,108.5,348,91.3,359.7,111.1z"/>
</g>
<path style="&st0;" d="M389.2,76.7C406.9,86,331.3,123.1,389.2,76.7z"/>
<path style="&st0;" d="M124,72.5c-9.2,2.5-8.9-4.5-14.4-5.8C111.2,56.6,123.1,65.3,124,72.5z"/>
<path style="&st0;" d="M380.9,308.1c10.2-10.9,15.9,6.9,25.9,5.7C398.9,322.5,388.1,309.7,380.9,308.1z"/>
<path d="M328.6,64.6c-0.3-0.3-0.7-0.4-1.1-0.5c-0.2-1.8-1.6-3.6-3.5-3.4c-3.1,0.3-5.7,2.2-6.7,5.2c-0.9,2.7-0.4,5.8,1.6,7.8
	c4.5,4.5,13.1,0.6,12.7-5.7C331.5,66.2,330.2,64.8,328.6,64.6z"/>
<path d="M182.1,74.7c0.1-0.2,0.1-0.4,0.2-0.6c0.4-1.1-0.1-2.6-0.9-3.4c-0.3-0.3-0.7-0.6-1.1-0.8c-1.3-0.6-3.1-0.7-4.2,0.5
	c-1.1,1.2-1.2,2.7-0.5,4.2c0.2,0.4,0.5,0.8,0.8,1.1c0.8,0.8,2.3,1.3,3.4,0.9C180.9,76.2,181.7,75.9,182.1,74.7z"/>
<path d="M255.6,402.4c-1.3-3.5-6.5-7.8-10.1-4.3c-0.7,0.7-1.3,1.6-1.6,2.5c-0.5,0.6-0.9,1.5-0.9,2.5c0,0.4,0,0.9,0.1,1.4
	c0,1.4,0.2,2.8,0.6,4.1c0.3,1.1,0.7,2.1,1.4,3.1c0,0,0,0.1,0.1,0.1c0.2,0.2,0.3,0.4,0.5,0.6c1,1.2,2.4,2.1,4,2.7
	c2.4,0.9,5.1-1.8,4.4-4.2C256.2,408.9,256.7,405.4,255.6,402.4z"/>
<path d="M208.3,432.1c1.6-7.2,2.2-14.9,2.7-22.3c0.2-2.5-3.1-4.4-5.2-3c-3.1,2.1-5.1,4.8-5.9,8c-0.2,0.5-0.4,1-0.4,1.7
	c0,0,0,0.1,0,0.1c0,0,0,0,0,0c-3.9,2.9-0.9,9.8,0.1,13.3c0.4,1.2,1.3,2,2.3,2.3C202.7,435,207.6,435.3,208.3,432.1z"/>
<path d="M81,277.5c-0.3-1.1-1.3-1.8-2.4-1.8c-2-0.1-3.5,1.7-3.4,3.7c0.1,1.7,1.4,3.8,3.3,3.4c0.9,0,1.7-0.4,1.9-1.3
	c0.1-0.5,0.1-0.9-0.1-1.3C81,279.5,81.3,278.4,81,277.5z"/>
<path d="M394.9,264.3c-2.5,3.8,17,16.4,19.4,8.1C417.9,259.9,394.5,260.2,394.9,264.3z"/>
<path d="M414.3,198.5c-1.1-0.5-2.8-0.3-3.6,0.7c-0.3,0.3-0.5,0.6-0.7,1c-0.1,0.1-0.1,0.2-0.2,0.2c-0.1,0-0.1,0.1-0.1,0.1
	c0,0-0.1,0.2-0.2,0.3c0,0,0,0,0,0c-0.1,0-0.2,0.1-0.1,0c-0.1,0-0.2,0.1-0.3,0.1c-0.1,0-0.2,0-0.2,0c-3-0.1-3.8,4-1.5,5.4
	c1.6,1,3.5,1.1,5.2,0.5c2.1-0.8,4-2.8,3.9-5.2C416.2,200.2,415.5,199,414.3,198.5z"/>
<path d="M45.8,280.3c-1.8-0.4-3.2,0.7-4.5,1.7c-0.9,0.6-1.3,1.6-0.9,2.7c0.4,1,1.5,1.5,2.5,1.2c1.4-0.4,3.5-0.8,4.2-2.4
	C47.7,282.3,47.3,280.6,45.8,280.3z"/>
<path d="M81.4,159.4c2.7,0.5,6.4-0.3,7.6-3.1c0.1-0.3,0.2-0.6,0.3-0.8c1.3-1.8,1.3-4.4-0.1-6.1c-0.4-0.4-0.8-0.8-1.2-1.1
	c-0.1-0.1-0.1-0.1-0.1-0.2c-0.1-0.1-0.2-0.2-0.4-0.4c-0.2-5.2-7.5-8.4-11.4-4.3c-2.7,2.9-3.7,7.2-1.7,10.8
	C75.8,156.7,78.6,158.9,81.4,159.4z"/>
<path d="M331,62.2c0.6,1,2.1,1.4,3.1,0.8c1.1-0.7,1.3-1.9,0.8-3.1c-0.5-1-1-2.1-1.4-3.1c-0.5-1.1-2.2-1.5-3.2-0.8
	c-1.1,0.7-1.5,2-0.8,3.2C330,60.2,330.5,61.2,331,62.2z"/>
<path d="M111.4,111.5c0.9-0.4,1.6-1.3,1.6-2.3c0-0.9-0.5-1.7-1.3-2.2c-0.7-0.4-1.5-0.5-2.3-0.5c-1.4,0-2.7,1.3-2.7,2.7
	c0.1,1.4,1.2,2.7,2.7,2.7C110.1,111.8,110.7,111.8,111.4,111.5z"/>
<path d="M332.4,366.5c-1.6-0.4-3.5-0.1-4.7,1.2c-1.9,2-1.4,5.6,1.1,7c1.1,0.6,2.2,0.4,3.1-0.2c0.3-0.2,0.6-0.4,0.9-0.6
	c0.2-0.2,0.3-0.4,0.4-0.6c1.1,0.5,2.5,0,3.2-0.9c0.8-1,0.9-2.8-0.2-3.6C335.1,367.7,333.9,366.8,332.4,366.5z"/>
<path d="M138.3,89.8c1.1-0.5,1.8-1.5,1.9-2.6c0.2-0.2,0.4-0.4,0.5-0.7c0.4-0.7,0.6-1.5,0.5-2.3c0.1-0.4,0-0.7-0.1-1.1
	c-0.3-0.9-1-1.6-1.9-1.9c-1.1-0.8-2.8-0.6-3.9,0c-1.2,0.7-1.7,1.7-1.9,3c0,0,0,0,0,0.1c-0.1,0.5-0.2,1-0.1,1.5
	c0.1,0.9,0.3,1.9,0.8,2.6C135.2,89.8,136.7,90.5,138.3,89.8z"/>
<path d="M204.9,47.7c4.8,11.2,17.1,0,11.5-6.9c-1.6-2-13.8-11-10.4-1.8C204,41.3,203.7,44.9,204.9,47.7z"/>
<path d="M362.6,79.5c0.6,1,2.1,1.4,3.1,0.8c1.1-0.7,1.3-1.9,0.8-3.1c-0.5-1-1-2.1-1.4-3.1c-0.5-1.1-2.2-1.5-3.2-0.8
	c-1.1,0.7-1.5,2-0.8,3.2C361.5,77.5,362.1,78.5,362.6,79.5z"/>
<path d="M355.4,413.9c1.1,0.6,2.2,0.4,3.1-0.2c0.3-0.2,0.6-0.4,0.9-0.6c0.2-0.2,0.3-0.4,0.4-0.6c1.1,0.5,2.5,0,3.2-0.9
	c0.8-1,0.9-2.8-0.2-3.6c-1.2-0.9-2.4-1.8-3.8-2.2c-1.6-0.4-3.5-0.1-4.7,1.2C352.4,408.9,352.9,412.5,355.4,413.9z"/>
<path d="M427,322.6c-1.1-1.4-2.2-2.7-3.3-4.1c-2.1-2.6-6.1-3-8.7-0.9c-2.6,2.1-3,6.1-0.9,8.7c1.1,1.3,2.3,2.7,3.4,4
	C422.6,336.4,431.9,328.8,427,322.6z"/>
<path d="M74.8,244.3c-3.4-0.1-5.2,1.4-5.4,4.4C71.4,253.3,79.7,245.4,74.8,244.3z"/>
<path d="M222.2,48.7c-2.5,2.3-2.7,4.6-0.8,6.9C226.1,57.6,226.5,46.2,222.2,48.7z"/>
<path d="M169.1,70.9c0.6,1.5,1.6,2,3,1.5C173.8,70.6,168.7,68.5,169.1,70.9z"/>
<path d="M117.1,109.9c0.6,1.5,1.6,2,3,1.5C121.8,109.6,116.7,107.5,117.1,109.9z"/>
<path d="M335.1,380.9c0.6,1.5,1.6,2,3,1.5C339.8,380.6,334.7,378.5,335.1,380.9z"/>
<path d="M168.1,63.9c0.6,1.5,1.6,2,3,1.5C172.8,63.6,167.7,61.5,168.1,63.9z"/>
</svg>
