<?xml version="1.0" encoding="utf-8"?>
<!-- Generator: Adobe Illustrator 23.0.1, SVG Export Plug-In . SVG Version: 6.00 Build 0)  -->
<svg version="1.1" id="Layer_1" xmlns="http://www.w3.org/2000/svg" xmlns:xlink="http://www.w3.org/1999/xlink" x="0px" y="0px"
	 viewBox="0 0 1211.2 1055.8" style="enable-background:new 0 0 1211.2 1055.8;" xml:space="preserve">
<style type="text/css">
	.st0{fill:#1A1A1A;}
	.st1{fill:#333333;}
	.st2{fill-rule:evenodd;clip-rule:evenodd;}
	.st3{fill:#FFF300;}
	.st4{stroke:#FFF417;stroke-width:4.4805;stroke-linejoin:round;stroke-miterlimit:10;}
	.st5{fill:#FFF417;}
	.st6{fill:none;stroke:#FFF417;stroke-width:3.3839;stroke-linecap:round;stroke-linejoin:round;stroke-miterlimit:10;}
	.st7{fill:none;stroke:#FFF417;stroke-width:2.6357;stroke-linecap:round;stroke-linejoin:round;stroke-miterlimit:10;}
	.st8{stroke:#70EEEE;stroke-width:4.5882;stroke-linejoin:round;stroke-miterlimit:10;}
	.st9{stroke:#70EEEE;stroke-width:3.6705;stroke-miterlimit:10;}
	.st10{fill:none;stroke:#70EEEE;stroke-width:3.6705;stroke-miterlimit:10;}
	.st11{fill:#70EEEE;}
	.st12{stroke:#FA6633;stroke-width:4.5882;stroke-linejoin:round;stroke-miterlimit:10;}
	.st13{stroke:#FA6633;stroke-width:3.6705;stroke-linecap:round;stroke-linejoin:round;}
	.st14{fill:none;stroke:#FA6633;stroke-width:3.6705;stroke-linecap:round;stroke-linejoin:round;}
	.st15{stroke:#FA6633;stroke-width:3.5675;stroke-linecap:round;stroke-linejoin:round;}
	.st16{stroke:#FA6633;stroke-width:2.8916;stroke-linecap:round;stroke-linejoin:round;}
	.st17{fill:#FFFFFF;}
	.st18{fill:#FB8C66;}
	.st19{fill:#FA6633;}
</style>
<path class="st0" d="M609.6,65.5l-513,893.8h1026L609.6,65.5z M605.8,470.9l174,302.4h-347L605.8,470.9z"/>
<path class="st1" d="M609.6,266.4L269.4,859.3h680.6L609.6,266.4z M606.8,470.9l174,302.4h-347L606.8,470.9z"/>
<g>
	<g>
		<circle class="st2" cx="606" cy="663.1" r="74.1"/>
		<path class="st3" d="M606,598c-35.9,0-65.1,29.2-65.1,65.1c0,35.9,29.2,65.1,65.1,65.1c35.9,0,65.1-29.2,65.1-65.1
			C671.1,627.2,641.9,598,606,598z M606,720.4c-22.9,0-42.7-13.5-51.9-33c8,0,33.9,0,33.9,0c2.8,0,4.2,0,5.4-0.3
			c1.4-0.4,2.6-1.1,3.7-2.1c1-0.9,1.6-2.1,3-4.5l0-0.1l15.4-27.2c1.4-2.4,2-3.6,2.3-4.9c0.3-1.4,0.3-2.8,0-4.2
			c-0.3-1.3-1-2.4-2.3-4.8l0-0.1l-6-10.5c-1.2-2.2-1.9-3.3-2.7-3.7c-0.9-0.4-1.9-0.4-2.7,0c-0.8,0.4-1.4,1.5-2.7,3.7L584.3,659
			c-0.8,1.5-2.4,2.4-4.2,2.4c-6.5,0-22.9,0-31.4,0c0.9-30.9,26.2-55.7,57.3-55.7c31.1,0,56.5,24.8,57.3,55.7h-33.5
			c-2.5,0-3.8,0-4.5,0.5c-0.3,0.2-0.6,0.5-0.8,0.8c-0.5,0.6-1.1,1.6-2,3.1l-8.5,14.6l0,0c-1.2,2.1-1.9,3.2-1.8,4.1
			c0.1,1,0.6,1.9,1.4,2.4c0.7,0.5,2,0.5,4.5,0.5h39.9C648.8,706.9,629,720.4,606,720.4z"/>
	</g>
</g>
<g>
	<g>
		<polygon class="st4" points="430.1,775.8 300.5,692.6 170.8,775.8 170.8,775.8 170.8,897.5 300.5,978.5 430.1,897.5 430.1,775.8 
					"/>
	</g>
	<g>
		<g>
			<g>
				
					<ellipse transform="matrix(0.9239 -0.3827 0.3827 0.9239 -272.6258 159.9401)" class="st2" cx="265.7" cy="765.3" rx="76.4" ry="76.4"/>
				<path class="st5" d="M265.7,690.7c41.2,0,74.5,33.4,74.5,74.5c0,41.2-33.4,74.5-74.5,74.5s-74.5-33.4-74.5-74.5
					C191.2,724.1,224.6,690.7,265.7,690.7 M265.7,687.1c-43.1,0-78.2,35.1-78.2,78.2s35.1,78.2,78.2,78.2s78.2-35.1,78.2-78.2
					S308.8,687.1,265.7,687.1L265.7,687.1z"/>
			</g>
			<path class="st3" d="M265.7,699.8c-36.1,0-65.5,29.4-65.5,65.5s29.4,65.5,65.5,65.5s65.5-29.4,65.5-65.5S301.8,699.8,265.7,699.8
				z M265.7,823c-23.1,0-43-13.6-52.2-33.2c8.1,0,34.1,0,34.1,0c2.8,0,4.2,0,5.5-0.3c1.4-0.4,2.6-1.1,3.7-2.1c1-0.9,1.6-2.1,3-4.5
				l0-0.1l15.5-27.4c1.4-2.4,2.1-3.6,2.4-4.9c0.3-1.4,0.3-2.8,0-4.2c-0.3-1.3-1-2.5-2.3-4.8l0-0.1l-6.1-10.6
				c-1.3-2.2-1.9-3.3-2.7-3.7c-0.9-0.4-1.9-0.4-2.8,0c-0.8,0.4-1.4,1.5-2.7,3.7l-17.3,30.5c-0.9,1.5-2.5,2.4-4.2,2.4
				c-6.6,0-23.1,0-31.6,0c0.9-31.1,26.4-56.1,57.7-56.1s56.8,25,57.7,56.1h-33.7c-2.5,0-3.8,0-4.5,0.5c-0.3,0.2-0.6,0.5-0.8,0.8
				c-0.6,0.6-1.1,1.6-2,3.1l-8.5,14.7l0,0c-1.3,2.2-1.9,3.2-1.8,4.1c0.1,1,0.6,1.9,1.4,2.4c0.7,0.5,2,0.5,4.5,0.5H318
				C308.7,809.4,288.8,823,265.7,823z"/>
		</g>
	</g>
	<g>
		<g>
			<path d="M273.9,877.7l-8.5-0.9l0,0l0,0l-1.5-0.2c-6.1-0.6-10.8-5.8-10.8-12v-2.4c3.3-2.5,5.5-6.3,6-10.6c2.6-0.7,4.6-5.5,4.6-8.9
				c0-3.4-2-4.4-4.6-4.5v-7.6c0-3.2-1.3-6.3-3.5-8.5s-5.9-5.6-10.6-5.6H237c-4.8,0-8.3,3.3-10.6,5.6c-2.3,2.3-3.5,5.3-3.5,8.5v7.6
				c-2.6,0.1-4.6,1-4.6,4.5c0,3.5,2,8.2,4.6,8.9v0h0c0.4,4.4,2.7,8.2,6,10.6v2.4c0,6.2-4.7,11.4-10.8,12l-1.5,0.2l0,0l0,0l-8.5,0.9
				c-6.1,0.6-10.8,5.8-10.8,12v11.7c0,1.2,0.5,2.3,1.3,3.2c0.8,0.8,2,1.3,3.2,1.3h78.3c1.2,0,2.3-0.5,3.2-1.3c0.8-0.8,1.3-2,1.3-3.2
				v-11.7C284.7,883.5,280,878.4,273.9,877.7z"/>
			<path d="M393,877.7l-8.5-0.9l0,0l0,0l-1.5-0.2c-6.1-0.6-10.8-5.8-10.8-12v-2.4c3.3-2.5,5.5-6.3,6-10.6c2.6-0.7,4.6-5.5,4.6-8.9
				c0-3.4-2-4.4-4.6-4.5v-7.6c0-3.2-1.3-6.3-3.5-8.5c-2.3-2.3-5.9-5.6-10.6-5.6h-7.9c-4.8,0-8.3,3.3-10.6,5.6
				c-2.3,2.3-3.5,5.3-3.5,8.5v7.6c-2.6,0.1-4.6,1-4.6,4.5c0,3.5,2,8.2,4.6,8.9v0h0c0.4,4.4,2.7,8.2,6,10.6v2.4
				c0,6.2-4.7,11.4-10.8,12l-1.5,0.2l0,0l0,0l-8.5,0.9c-6.1,0.6-10.8,5.8-10.8,12v11.7c0,1.2,0.5,2.3,1.3,3.2c0.8,0.8,2,1.3,3.2,1.3
				h78.3c1.2,0,2.3-0.5,3.2-1.3c0.8-0.8,1.3-2,1.3-3.2v-11.7C403.9,883.5,399.2,878.3,393,877.7z"/>
			<path d="M271,871.2h61c0.9,0,1.8-0.4,2.5-1c0.7-0.7,1-1.6,1-2.5v-9.1c0-4.8-3.6-8.8-8.4-9.3l-6.6-0.7l0,0l0,0l-1.1-0.1
				c-4.8-0.5-8.4-4.5-8.4-9.3v-1.9h-0.1c2.6-1.9,4.4-4.8,4.7-8.3c2-0.5,3.6-4.3,3.6-7c0-2.7-1.6-3.4-3.6-3.5v-5.9
				c0-2.5-1-4.9-2.7-6.6c-1.8-1.8-4.6-4.4-8.2-4.4h-6.2c-3.7,0-6.5,2.6-8.2,4.4c-1.8,1.8-2.7,4.1-2.7,6.6v5.9
				c-2,0.1-3.6,0.8-3.6,3.5c0,2.7,1.6,6.4,3.6,6.9v0h0c0.3,3.4,2.1,6.3,4.7,8.3h-0.1v1.9c0,4.8-3.6,8.8-8.4,9.3l-1.1,0.1l0,0l0,0
				l-6.6,0.7c-4.8,0.5-8.4,4.5-8.4,9.3v9.1c0,0.9,0.4,1.8,1,2.5C269.2,870.9,270.1,871.2,271,871.2z"/>
		</g>
		<g>
			<g id="Page-1_12_">
				<g transform="translate(1.000000, 1.000000)">
					<path id="Shape_12_" class="st6" d="M221.9,837.2v-7.6c0-3.2,1.3-6.3,3.5-8.5c2.3-2.3,5.8-5.6,10.6-5.6h7.9
						c4.7,0,8.3,3.3,10.6,5.6s3.5,5.3,3.5,8.5v7.6"/>
					<path class="st6" d="M222,850.6c0.7,7.7,7.2,13.6,15,13.6h6c7.8,0,14.3-5.9,15-13.6"/>
					<path class="st6" d="M244.5,824.3c0,0-9.9,11.4-18.1,11.4s-4.5,7.5-4.5,7.5"/>
					<path class="st6" d="M244.5,824.3c0,0,2.3,11.5,10.5,11.4c6-0.1,1.5,7.5,1.5,7.5"/>
					<path class="st6" d="M252,861.3v2.4c0,6.2,4.7,11.4,10.8,12l10,1c6.1,0.6,10.8,5.8,10.8,12v11.7c0,1.2-0.5,2.3-1.3,3.2
						c-0.8,0.8-2,1.3-3.2,1.3h-78.3c-1.2,0-2.3-0.5-3.2-1.3c-0.8-0.8-1.3-2-1.3-3.2v-11.7c0-6.2,4.7-11.4,10.8-12l10-1
						c6.1-0.6,10.8-5.8,10.8-12v-2.4"/>
					<polyline class="st6" points="255.7,872.3 244.5,879.3 241.8,883.9 					"/>
					<polyline class="st6" points="238.2,883.9 235.5,879.3 224.3,872.3 					"/>
					<polyline class="st6" points="215.7,875.8 231,889.9 235.5,879.3 					"/>
					<polyline class="st6" points="244.5,879.3 249,889.9 264.4,875.8 					"/>
					<path id="Rectangle-path_6_" class="st6" d="M237,883.9h6c1.7,0,3,1.3,3,3v3c0,1.7-1.3,3-3,3h-6c-1.7,0-3-1.3-3-3v-3
						C234,885.2,235.3,883.9,237,883.9z"/>
					<path class="st6" d="M237,892.9l-4.5,12"/>
					<path class="st6" d="M243,892.9l4.5,12"/>
					<path class="st6" d="M221.9,837.2c-2.6,0.1-4.6,1-4.6,4.5c0,3.5,2,8.3,4.6,8.9"/>
					<path class="st6" d="M258.1,837.2c2.6,0.1,4.6,1,4.6,4.5c0,3.5-2,8.3-4.6,8.9"/>
				</g>
			</g>
			<g id="Page-1_11_">
				<g transform="translate(1.000000, 1.000000)">
					<path id="Shape_11_" class="st6" d="M341.1,837.2v-7.6c0-3.2,1.3-6.3,3.5-8.5c2.3-2.3,5.8-5.6,10.6-5.6h7.9
						c4.7,0,8.3,3.3,10.6,5.6s3.5,5.3,3.5,8.5v7.6"/>
					<path class="st6" d="M341.2,850.6c0.7,7.7,7.2,13.6,15,13.6h6c7.8,0,14.3-5.9,15-13.6"/>
					<path class="st6" d="M363.7,824.2c0,0-9.9,11.4-18.1,11.4s-4.5,7.5-4.5,7.5"/>
					<path class="st6" d="M363.7,824.2c0,0,2.3,11.5,10.5,11.4c6-0.1,1.5,7.5,1.5,7.5"/>
					<path class="st6" d="M371.2,861.2v2.4c0,6.2,4.7,11.4,10.8,12l10,1c6.1,0.6,10.8,5.8,10.8,12v11.7c0,1.2-0.5,2.3-1.3,3.2
						c-0.8,0.8-2,1.3-3.2,1.3H320c-1.2,0-2.3-0.5-3.2-1.3c-0.8-0.8-1.3-2-1.3-3.2v-11.7c0-6.2,4.7-11.4,10.8-12l10-1
						c6.1-0.6,10.8-5.8,10.8-12v-2.4"/>
					<polyline class="st6" points="374.9,872.3 363.7,879.3 361,883.8 					"/>
					<polyline class="st6" points="357.4,883.8 354.7,879.3 343.5,872.3 					"/>
					<polyline class="st6" points="334.8,875.8 350.2,889.9 354.7,879.3 					"/>
					<polyline class="st6" points="363.7,879.3 368.2,889.9 383.5,875.8 					"/>
					<path id="Rectangle-path_5_" class="st6" d="M356.2,883.8h6c1.7,0,3,1.3,3,3v3c0,1.7-1.3,3-3,3h-6c-1.7,0-3-1.3-3-3v-3
						C353.2,885.2,354.5,883.8,356.2,883.8z"/>
					<path class="st6" d="M356.2,892.9l-4.5,12"/>
					<path class="st6" d="M362.2,892.9l4.5,12"/>
					<path class="st6" d="M341.1,837.2c-2.6,0.1-4.6,1-4.6,4.5c0,3.5,2,8.3,4.6,8.9"/>
					<path class="st6" d="M377.3,837.2c2.6,0.1,4.6,1,4.6,4.5c0,3.5-2,8.3-4.6,8.9"/>
				</g>
			</g>
			<g id="Page-1_8_">
				<g transform="translate(1.000000, 1.000000)">
					<path id="Shape_8_" class="st7" d="M286.4,817.5v-5.9c0-2.5,1-4.9,2.7-6.6s4.5-4.4,8.2-4.4h6.2c3.7,0,6.5,2.6,8.2,4.4
						c1.8,1.8,2.7,4.1,2.7,6.6v5.9"/>
					<path class="st7" d="M286.5,827.9c0.6,6,5.6,10.6,11.7,10.6h4.7c6,0,11.1-4.6,11.7-10.6"/>
					<path class="st7" d="M304,807.4c0,0-7.7,8.9-14.1,8.9c-6.4,0-3.5,5.9-3.5,5.9"/>
					<path class="st7" d="M304,807.4c0,0,1.8,9,8.2,8.9c4.7-0.1,1.2,5.9,1.2,5.9"/>
					<path class="st7" d="M309.9,836.2v1.9c0,4.8,3.6,8.8,8.4,9.3l7.8,0.8c4.8,0.5,8.4,4.5,8.4,9.3v9.1c0,0.9-0.4,1.8-1,2.5
						c-0.7,0.7-1.6,1-2.5,1h-61c-0.9,0-1.8-0.4-2.5-1c-0.7-0.7-1-1.6-1-2.5v-9.1c0-4.8,3.6-8.8,8.4-9.3l7.8-0.8
						c4.8-0.5,8.4-4.5,8.4-9.3v-1.9"/>
					<polyline class="st7" points="312.8,844.8 304,850.3 301.9,853.8 					"/>
					<polyline class="st7" points="299.1,853.8 297,850.3 288.3,844.8 					"/>
					<polyline class="st7" points="281.5,847.6 293.5,858.5 297,850.3 					"/>
					<polyline class="st7" points="304,850.3 307.5,858.5 319.5,847.6 					"/>
					<path id="Rectangle-path_4_" class="st7" d="M298.2,853.8h4.7c1.3,0,2.3,1.1,2.3,2.3v2.3c0,1.3-1.1,2.3-2.3,2.3h-4.7
						c-1.3,0-2.3-1.1-2.3-2.3v-2.3C295.8,854.9,296.9,853.8,298.2,853.8z"/>
					<path class="st7" d="M298.2,860.9l-3.5,9.4"/>
					<path class="st7" d="M302.9,860.9l3.5,9.4"/>
					<path class="st7" d="M286.4,817.5c-2,0.1-3.6,0.8-3.6,3.5c0,2.7,1.6,6.4,3.6,7"/>
					<path class="st7" d="M314.6,817.5c2,0.1,3.6,0.8,3.6,3.5c0,2.7-1.6,6.4-3.6,7"/>
				</g>
			</g>
		</g>
	</g>
</g>
<g>
	<g>
		<polygon class="st8" points="736.7,254.4 607,167.1 477.4,254.4 477.4,254.4 477.4,382 607,466.9 736.7,382 736.7,254.4 		"/>
	</g>
	<g>
		<path class="st9" d="M609.3,143.2c-0.1,0-0.2,0-0.3,0c-41.4,0-75,33.6-75,75s33.6,75,75,75c0.1,0,0.2,0,0.3,0
			c41.3-0.2,74.6-33.7,74.6-75C684,176.8,650.6,143.3,609.3,143.2z"/>
		<g>
			<g>
				<path class="st10" d="M643.9,198.4c0-21.3-18.4-38.3-40.2-35.9c-17,1.9-30.5,15.9-31.9,32.9c-1,12.1,4.1,23.1,12.5,30.3
					c3.5,3,5.3,9.4,5.3,13.9v11.5c0,7.4,6,13.4,13.4,13.4h8.9c7.4,0,13.4-6,13.4-13.4v-11c0-4.7,2-11.2,5.6-14.2
					C638.9,219.5,643.9,209.5,643.9,198.4z"/>
				<line class="st10" x1="589.6" y1="237.9" x2="625.4" y2="237.9"/>
				<line class="st10" x1="589.9" y1="247.1" x2="625.7" y2="247.1"/>
				<line class="st10" x1="589.9" y1="256.1" x2="625.7" y2="256.1"/>
				<g>
					<path class="st10" d="M603,265.3c-1.1,0-2.2-0.2-3.3-0.4c-0.4,0.8-0.6,1.6-0.6,2.4c0,3.6,3.9,6.6,8.7,6.6c4.8,0,8.7-3,8.7-6.6
						c0-0.9-0.2-1.8-0.7-2.6c-1.2,0.4-2.5,0.6-3.9,0.6H603z"/>
				</g>
			</g>
			<path class="st11" d="M607.5,192.3c1.2,0,2.3-1,2.3-2.3v-6.6c5.1,0.6,9,3.4,9,6.6c0,1.2,1,2.3,2.3,2.3c1.2,0,2.3-1,2.3-2.3
				c0-5.8-5.8-10.4-13.5-11.1v-2.4c0-1.2-1-2.3-2.3-2.3c-1.2,0-2.3,1-2.3,2.3v2.4c-7.7,0.8-13.5,5.4-13.5,11.1
				c0,6.3,6.9,11.3,15.8,11.3c6.1,0,11.3,3.1,11.3,6.8c0,3.2-3.9,6-9,6.6V208c0-1.2-1-2.3-2.3-2.3c-1.2,0-2.3,1-2.3,2.3v6.6
				c-5.1-0.6-9-3.4-9-6.6c0-1.2-1-2.3-2.3-2.3s-2.3,1-2.3,2.3c0,5.8,5.8,10.4,13.5,11.1v2.4c0,1.2,1,2.3,2.3,2.3
				c1.2,0,2.3-1,2.3-2.3v-2.4c7.7-0.8,13.5-5.4,13.5-11.1c0-6.3-6.9-11.3-15.8-11.3c-6.1,0-11.3-3.1-11.3-6.8c0-3.2,3.9-6,9-6.6v6.6
				C605.2,191.3,606.2,192.3,607.5,192.3z"/>
		</g>
	</g>
	<g>
		<g>
			<path d="M586.3,374.2c-2.7-4-10.2-6.8-18.2-9.9c-1.7-0.6-3.4-1.3-5.1-2c-1.5-1.8-3.3-3.4-5.2-4.3c-0.2-0.1-0.4-0.1-0.6-0.1
				l-0.1,0V351c1.3-1.3,4.4-4.8,4.7-10.8c0.9-0.7,1.6-1.9,1.9-3.6c0.6-2.4,0.4-5.6-1.6-7.4c0.1-0.3,0.3-0.7,0.4-1.1
				c1.4-3.6,4.1-10.3,3.1-15.5c-1.2-6-9.8-8.3-16.8-8.5c-6.6-0.2-13.8,1.5-15.8,5.5c-2.2,0.2-4,1.1-5.1,2.6
				c-3.2,4.3-0.8,12,0.4,16.1c0.1,0.3,0.2,0.6,0.3,0.9c-2,1.7-2.4,5-1.7,7.7c0.4,1.6,1,2.8,1.8,3.4c0.3,6,3.2,9.6,4.5,10.8v6.9
				c-0.2,0-0.3,0-0.5,0.1c-1.8,0.9-3.6,2.5-5.1,4.3c-1.6,0.6-3.2,1.3-4.9,1.9c-8,3.1-15.6,5.9-18.2,10c-4,5.9-4.2,17.5-4.3,18
				c0,0.4,0.1,0.8,0.4,1.1c0.3,0.3,0.7,0.4,1.1,0.4h33.5h9.9h9h34.4c0.8,0,1.5-0.7,1.5-1.5C590.1,391.7,590.2,380.1,586.3,374.2z"/>
			<path d="M642.5,340.5c-2.3-3.4-8.8-5.9-15.6-8.5c-1.5-0.6-2.9-1.1-4.4-1.7c-1.3-1.6-2.9-3-4.4-3.7c-0.2-0.1-0.3-0.1-0.5-0.1
				l-0.1,0v-5.9c1.1-1.1,3.8-4.1,4-9.3c0.7-0.6,1.3-1.6,1.7-3.1c0.5-2.1,0.4-4.8-1.4-6.4c0.1-0.3,0.2-0.6,0.4-1
				c1.2-3.1,3.5-8.9,2.6-13.3c-1-5.2-8.4-7.2-14.5-7.3c-5.7-0.1-11.8,1.3-13.6,4.7c-1.9,0.2-3.4,0.9-4.4,2.3
				c-2.7,3.7-0.7,10.3,0.4,13.9c0.1,0.3,0.2,0.5,0.2,0.7c-1.7,1.5-2,4.3-1.5,6.6c0.3,1.4,0.9,2.4,1.6,2.9c0.2,5.2,2.8,8.2,3.9,9.3
				v5.9c-0.1,0-0.3,0-0.4,0.1c-1.5,0.7-3.1,2.1-4.4,3.7c-1.4,0.6-2.8,1.1-4.2,1.6c-6.9,2.6-13.4,5.1-15.7,8.6
				c-3.4,5.1-3.6,15-3.7,15.4c0,0.3,0.1,0.7,0.4,0.9c0.2,0.2,0.6,0.4,0.9,0.4h28.8h8.5h7.7h29.6c0.7,0,1.3-0.6,1.3-1.3
				C645.8,355.6,645.9,345.6,642.5,340.5z"/>
			<path d="M710.1,376.2c-2.7-4-10.2-6.8-18.2-9.9c-1.7-0.6-3.4-1.3-5.1-2c-1.5-1.8-3.3-3.4-5.2-4.3c-0.2-0.1-0.4-0.1-0.6-0.1
				l-0.1,0V353c1.3-1.3,4.4-4.8,4.7-10.8c0.9-0.7,1.6-1.9,1.9-3.6c0.6-2.4,0.4-5.6-1.6-7.4c0.1-0.3,0.3-0.7,0.4-1.1
				c1.4-3.6,4.1-10.3,3.1-15.5c-1.2-6-9.8-8.3-16.8-8.5c-6.6-0.2-13.8,1.5-15.8,5.5c-2.2,0.2-4,1.1-5.1,2.6
				c-3.2,4.3-0.8,12,0.4,16.1c0.1,0.3,0.2,0.6,0.3,0.9c-2,1.7-2.4,5-1.7,7.7c0.4,1.6,1,2.8,1.8,3.4c0.3,6,3.2,9.6,4.5,10.8v6.9
				c-0.2,0-0.3,0-0.5,0.1c-1.8,0.9-3.6,2.5-5.1,4.3c-1.6,0.6-3.2,1.3-4.9,1.9c-8,3.1-15.6,5.9-18.2,10c-4,5.9-4.2,17.5-4.3,18
				c0,0.4,0.1,0.8,0.4,1.1c0.3,0.3,0.7,0.4,1.1,0.4h33.5h9.9h9h34.4c0.8,0,1.5-0.7,1.5-1.5C713.9,393.7,714.1,382.2,710.1,376.2z"/>
		</g>
		<g>
			<path class="st11" d="M586.3,374.2c-2.7-4-10.2-6.8-18.2-9.9c-1.7-0.6-3.4-1.3-5.1-2c-1.5-1.8-3.3-3.4-5.2-4.3
				c-0.2-0.1-0.4-0.1-0.6-0.1l-0.1,0V351c1.3-1.3,4.4-4.8,4.7-10.8c0.9-0.7,1.6-1.9,1.9-3.6c0.6-2.4,0.4-5.6-1.6-7.4
				c0.1-0.3,0.3-0.7,0.4-1.1c1.4-3.6,4.1-10.3,3.1-15.5c-1.2-6-9.8-8.3-16.8-8.5c-6.6-0.2-13.8,1.5-15.8,5.5c-2.2,0.2-4,1.1-5.1,2.6
				c-3.2,4.3-0.8,12,0.4,16.1c0.1,0.3,0.2,0.6,0.3,0.9c-2,1.7-2.4,5-1.7,7.7c0.4,1.6,1,2.8,1.8,3.4c0.3,6,3.2,9.6,4.5,10.8v6.9
				c-0.2,0-0.3,0-0.5,0.1c-1.8,0.9-3.6,2.5-5.1,4.3c-1.6,0.6-3.2,1.3-4.9,1.9c-8,3.1-15.6,5.9-18.2,10c-4,5.9-4.2,17.5-4.3,18
				c0,0.4,0.1,0.8,0.4,1.1c0.3,0.3,0.7,0.4,1.1,0.4h33.5h9.9h9h34.4c0.8,0,1.5-0.7,1.5-1.5C590.1,391.7,590.2,380.1,586.3,374.2z
				 M562.7,367.6l2.6,7.8l-15.2-9c2.3-0.4,4.7-1.2,6.6-3.1c0.3-0.3,0.4-0.7,0.4-1.1V361C559.5,362.4,561.9,365.3,562.7,367.6z
				 M545.2,375.7c-2.3,0-4.5-2.2-4.5-4.5v-1.5l4.5-2.7l4.5,2.7v1.6C549.7,373.5,547.5,375.7,545.2,375.7z M531.7,339.2
				c0-0.7-0.5-1.3-1.2-1.5c-0.4-0.4-1-2.2-0.9-4.1c0.1-0.9,0.4-2,1.4-2.5c0.5-0.3,0.8-0.8,0.8-1.3c0-0.5-0.1-1-0.6-2.4
				c-0.9-3.1-3.2-10.4-0.9-13.5c0.7-1,2-1.5,3.8-1.5c0.7,0,1.3-0.5,1.5-1.1c0.6-2.6,6.5-4.5,13.2-4.3c6.2,0.1,13.2,2.1,14,6.1
				c0.9,4.3-1.6,10.5-2.9,13.8c-0.7,1.7-0.9,2.3-0.9,2.8c0,0.6,0.3,1.1,0.8,1.3c0.9,0.5,1.2,1.6,1.3,2.5c0.2,1.9-0.5,3.7-1,4.2
				c-0.7,0.1-1.2,0.7-1.2,1.5c0,6.6-4,9.8-4.1,9.9c-0.4,0.3-0.6,0.7-0.6,1.2v9v2.3c-2.6,2.2-6.5,2.2-9,2.2c-2.4,0-6.4,0-9-2.2v-2.3
				v-9c0-0.5-0.2-0.9-0.6-1.2C535.6,349.1,531.7,345.9,531.7,339.2z M533.2,361.2v1.1c0,0.4,0.2,0.8,0.4,1.1
				c1.9,1.9,4.3,2.7,6.6,3.1l-14.9,8.9l2.6-7.8C528.8,365.3,531.1,362.6,533.2,361.2z M507.1,375.8c2.1-3.2,9.6-6.1,16.8-8.8
				c0.5-0.2,0.9-0.4,1.4-0.5c0,0.1-0.1,0.2-0.1,0.2l-3.9,11.6c-0.2,0.6,0,1.2,0.5,1.6c0.3,0.2,0.6,0.3,0.9,0.3
				c0.3,0,0.5-0.1,0.8-0.2l14.3-8.6c0.1,2.5,1.5,4.7,3.5,6c-3.6,3.2-6.1,10.1-7,13.2h-30.8C503.6,387.4,504.4,379.9,507.1,375.8z
				 M545.2,390.7h-7.9c1.8-5.5,5.1-12,7.9-12c2.8,0,5.6,6.5,7,12H545.2z M555.3,390.7c-0.8-3.1-2.8-9.9-6.2-13.2
				c2-1.3,3.5-3.6,3.5-6.1l14.5,8.6c0.2,0.1,0.5,0.2,0.8,0.2c0.3,0,0.7-0.1,0.9-0.3c0.5-0.4,0.7-1,0.5-1.6l-3.8-11.6
				c0-0.1-0.1-0.1-0.1-0.2c0.5,0.2,1.1,0.4,1.6,0.6c7.2,2.7,14.6,5.6,16.7,8.7c2.7,4.1,3.2,11.7,3.3,14.9H555.3z"/>
			<path class="st11" d="M642.5,340.5c-2.3-3.4-8.8-5.9-15.6-8.5c-1.5-0.6-2.9-1.1-4.4-1.7c-1.3-1.6-2.9-3-4.4-3.7
				c-0.2-0.1-0.3-0.1-0.5-0.1l-0.1,0v-5.9c1.1-1.1,3.8-4.1,4-9.3c0.7-0.6,1.3-1.6,1.7-3.1c0.5-2.1,0.4-4.8-1.4-6.4
				c0.1-0.3,0.2-0.6,0.4-1c1.2-3.1,3.5-8.9,2.6-13.3c-1-5.2-8.4-7.2-14.5-7.3c-5.7-0.1-11.8,1.3-13.6,4.7c-1.9,0.2-3.4,0.9-4.4,2.3
				c-2.7,3.7-0.7,10.3,0.4,13.9c0.1,0.3,0.2,0.5,0.2,0.7c-1.7,1.5-2,4.3-1.5,6.6c0.3,1.4,0.9,2.4,1.6,2.9c0.2,5.2,2.8,8.2,3.9,9.3
				v5.9c-0.1,0-0.3,0-0.4,0.1c-1.5,0.7-3.1,2.1-4.4,3.7c-1.4,0.6-2.8,1.1-4.2,1.6c-6.9,2.6-13.4,5.1-15.7,8.6
				c-3.4,5.1-3.6,15-3.7,15.4c0,0.3,0.1,0.7,0.4,0.9c0.2,0.2,0.6,0.4,0.9,0.4h28.8h8.5h7.7h29.6c0.7,0,1.3-0.6,1.3-1.3
				C645.8,355.6,645.9,345.6,642.5,340.5z M622.3,334.9l2.2,6.7l-13-7.7c2-0.3,4.1-1.1,5.7-2.7c0.2-0.2,0.4-0.6,0.4-0.9v-1.1
				C619.5,330.4,621.6,332.9,622.3,334.9z M607.2,341.8c-2,0-3.9-1.9-3.9-3.9v-1.3l3.9-2.3l3.9,2.3v1.4
				C611.1,340,609.2,341.8,607.2,341.8z M595.7,310.4c0-0.6-0.4-1.1-1-1.3c-0.3-0.4-0.9-1.9-0.7-3.5c0.1-0.8,0.3-1.8,1.2-2.2
				c0.4-0.2,0.7-0.7,0.7-1.1c0-0.4-0.1-0.8-0.5-2.1c-0.8-2.7-2.7-9-0.8-11.6c0.6-0.9,1.7-1.3,3.2-1.3c0.6,0,1.1-0.4,1.2-1
				c0.6-2.2,5.6-3.8,11.4-3.7c5.3,0.1,11.3,1.8,12,5.3c0.7,3.7-1.4,9-2.5,11.9c-0.6,1.5-0.8,2-0.8,2.4c0,0.5,0.3,0.9,0.7,1.1
				c0.8,0.4,1.1,1.4,1.1,2.1c0.1,1.6-0.5,3.2-0.8,3.6c-0.6,0.1-1.1,0.6-1.1,1.3c0,5.7-3.4,8.4-3.6,8.5c-0.3,0.2-0.5,0.6-0.5,1v7.7v2
				c-2.2,1.8-5.6,1.8-7.7,1.8c-2.1,0-5.5,0-7.7-1.8v-2V320c0-0.4-0.2-0.8-0.5-1C599,319,595.7,316.2,595.7,310.4z M597,329.3v1
				c0,0.3,0.1,0.7,0.4,0.9c1.6,1.6,3.7,2.4,5.7,2.7l-12.8,7.7l2.2-6.7C593.2,332.9,595.1,330.5,597,329.3z M574.5,341.9
				c1.8-2.8,8.3-5.2,14.4-7.6c0.4-0.2,0.8-0.3,1.2-0.5c0,0.1-0.1,0.1-0.1,0.2l-3.3,10c-0.2,0.5,0,1.1,0.4,1.4
				c0.2,0.2,0.5,0.3,0.8,0.3c0.2,0,0.5-0.1,0.7-0.2l12.2-7.4c0.1,2.1,1.3,4,3,5.2c-3.1,2.8-5.2,8.7-6.1,11.3h-26.4
				C571.5,351.9,572.2,345.4,574.5,341.9z M607.2,354.7h-6.8c1.6-4.7,4.4-10.3,6.8-10.3c2.4,0,4.8,5.6,6.1,10.3H607.2z M616,354.7
				c-0.7-2.7-2.4-8.5-5.3-11.3c1.8-1.1,3-3.1,3-5.2l12.5,7.4c0.2,0.1,0.4,0.2,0.7,0.2c0.3,0,0.6-0.1,0.8-0.3
				c0.4-0.3,0.6-0.9,0.4-1.4l-3.3-10c0-0.1-0.1-0.1-0.1-0.2c0.5,0.2,0.9,0.4,1.4,0.5c6.2,2.3,12.5,4.8,14.4,7.5
				c2.3,3.5,2.7,10,2.8,12.8H616z"/>
			<path class="st11" d="M710.1,376.2c-2.7-4-10.2-6.8-18.2-9.9c-1.7-0.6-3.4-1.3-5.1-2c-1.5-1.8-3.3-3.4-5.2-4.3
				c-0.2-0.1-0.4-0.1-0.6-0.1l-0.1,0V353c1.3-1.3,4.4-4.8,4.7-10.8c0.9-0.7,1.6-1.9,1.9-3.6c0.6-2.4,0.4-5.6-1.6-7.4
				c0.1-0.3,0.3-0.7,0.4-1.1c1.4-3.6,4.1-10.3,3.1-15.5c-1.2-6-9.8-8.3-16.8-8.5c-6.6-0.2-13.8,1.5-15.8,5.5c-2.2,0.2-4,1.1-5.1,2.6
				c-3.2,4.3-0.8,12,0.4,16.1c0.1,0.3,0.2,0.6,0.3,0.9c-2,1.7-2.4,5-1.7,7.7c0.4,1.6,1,2.8,1.8,3.4c0.3,6,3.2,9.6,4.5,10.8v6.9
				c-0.2,0-0.3,0-0.5,0.1c-1.8,0.9-3.6,2.5-5.1,4.3c-1.6,0.6-3.2,1.3-4.9,1.9c-8,3.1-15.6,5.9-18.2,10c-4,5.9-4.2,17.5-4.3,18
				c0,0.4,0.1,0.8,0.4,1.1c0.3,0.3,0.7,0.4,1.1,0.4h33.5h9.9h9h34.4c0.8,0,1.5-0.7,1.5-1.5C713.9,393.7,714.1,382.2,710.1,376.2z
				 M686.5,369.7l2.6,7.8l-15.2-9c2.3-0.4,4.7-1.2,6.6-3.1c0.3-0.3,0.4-0.7,0.4-1.1V363C683.3,364.4,685.8,367.3,686.5,369.7z
				 M669,377.7c-2.3,0-4.5-2.2-4.5-4.5v-1.5l4.5-2.7l4.5,2.7v1.6C673.5,375.6,671.3,377.7,669,377.7z M655.6,341.2
				c0-0.7-0.5-1.3-1.2-1.5c-0.4-0.4-1-2.2-0.9-4.1c0.1-0.9,0.4-2,1.4-2.5c0.5-0.3,0.8-0.8,0.8-1.3c0-0.5-0.1-1-0.6-2.4
				c-0.9-3.1-3.2-10.4-0.9-13.5c0.7-1,2-1.5,3.8-1.5c0.7,0,1.3-0.5,1.5-1.1c0.6-2.6,6.5-4.5,13.2-4.3c6.2,0.1,13.2,2.1,14,6.1
				c0.9,4.3-1.6,10.5-2.9,13.8c-0.7,1.7-0.9,2.3-0.9,2.8c0,0.6,0.3,1.1,0.8,1.3c0.9,0.5,1.2,1.6,1.3,2.5c0.2,1.9-0.5,3.7-1,4.2
				c-0.7,0.1-1.2,0.7-1.2,1.5c0,6.6-4,9.8-4.1,9.9c-0.4,0.3-0.6,0.7-0.6,1.2v9v2.3c-2.6,2.2-6.5,2.2-9,2.2c-2.4,0-6.4,0-9-2.2v-2.3
				v-9c0-0.5-0.2-0.9-0.6-1.2C659.5,351.1,655.6,347.9,655.6,341.2z M657.1,363.2v1.1c0,0.4,0.2,0.8,0.4,1.1
				c1.9,1.9,4.3,2.7,6.6,3.1l-14.9,8.9l2.6-7.8C652.6,367.4,654.9,364.6,657.1,363.2z M630.9,377.8c2.1-3.2,9.6-6.1,16.8-8.8
				c0.5-0.2,0.9-0.4,1.4-0.5c0,0.1-0.1,0.2-0.1,0.2l-3.9,11.6c-0.2,0.6,0,1.2,0.5,1.6c0.3,0.2,0.6,0.3,0.9,0.3
				c0.3,0,0.5-0.1,0.8-0.2l14.3-8.6c0.1,2.5,1.5,4.7,3.5,6c-3.6,3.2-6.1,10.1-7,13.2h-30.8C627.5,389.5,628.2,381.9,630.9,377.8z
				 M669,392.7h-7.9c1.8-5.5,5.1-12,7.9-12c2.8,0,5.6,6.5,7,12H669z M679.2,392.7c-0.8-3.1-2.8-9.9-6.2-13.2c2-1.3,3.5-3.6,3.5-6.1
				l14.5,8.6c0.2,0.1,0.5,0.2,0.8,0.2c0.3,0,0.7-0.1,0.9-0.3c0.5-0.4,0.7-1,0.5-1.6l-3.8-11.6c0-0.1-0.1-0.1-0.1-0.2
				c0.5,0.2,1.1,0.4,1.6,0.6c7.2,2.7,14.6,5.6,16.7,8.7c2.7,4.1,3.2,11.7,3.3,14.9H679.2z"/>
		</g>
	</g>
</g>
<g>
	<g>
		<polygon class="st12" points="1044.5,775.4 914.8,688.2 785.1,775.4 785.1,775.4 785.1,903 914.8,987.9 1044.5,903 1044.5,775.4 
					"/>
	</g>
	<g>
		<path class="st13" d="M960.3,687.5c-0.1,0-0.2,0-0.3,0c-41.3,0-74.8,33.5-74.8,74.8s33.5,74.8,74.8,74.8c0.1,0,0.2,0,0.3,0
			c41.1-0.2,74.4-33.6,74.4-74.8C1034.7,721.1,1001.4,687.7,960.3,687.5z"/>
		<g id="Page-1_13_">
			<g transform="translate(0.000000, 1.000000)">
				<path id="Shape_13_" class="st14" d="M989.3,762.4c-16.5,16.5-37.1,22.6-46,13.7c-8.9-8.9-2.8-29.6,13.7-46.1
					c8.7-8.7,22.2-13.1,32.4-14.9c2.8-0.5,5.7-0.8,8.5-0.9c1.9,0,3.8,0.7,5.1,2.1c1.4,1.4,2.1,3.2,2.1,5.1c-0.1,2.9-0.4,5.7-0.9,8.5
					C1002.4,740.2,998,753.7,989.3,762.4z"/>
				<path class="st14" d="M1004.1,730c-3.2-1.5-6.1-3.6-8.6-6.2c-2.6-2.5-4.6-5.4-6.2-8.6c2.8-0.5,5.7-0.8,8.5-0.9
					c1.9,0,3.8,0.7,5.1,2.1c1.4,1.4,2.1,3.2,2.1,5.1C1004.9,724.3,1004.6,727.2,1004.1,730z"/>
				<circle id="Oval" class="st14" cx="984.1" cy="736" r="7"/>
				<circle class="st14" cx="965.6" cy="753.7" r="10.6"/>
				<path class="st14" d="M941.6,752.8l-10.1-3.1c-2-0.6-4.2-0.3-6,0.9l-17.4,12.3c-0.6,0.4-0.9,1.2-0.7,1.9
					c0.2,0.7,0.8,1.3,1.6,1.3l16-1.3c1.3,0.1,2.6,0.4,3.8,1l10.7,5l0.5,0.3"/>
				<path class="st14" d="M966.5,777.7l3.1,10.1c0.6,2,0.3,4.2-0.9,6l-12.3,17.4c-0.4,0.6-1.2,0.9-1.9,0.7c-0.7-0.2-1.3-0.8-1.3-1.6
					l1.3-16c-0.1-1.3-0.4-2.6-1-3.8l-5-10.7l-0.3-0.5"/>
				<path class="st14" d="M948.6,779.8l-12.5,9.2c-0.4,0.3-0.9,0.5-1.4,0.7c-1.4,0.4-2.9,0-3.9-1.1c-1-1-1.4-2.5-1.1-3.9
					c0.1-0.5,0.3-1,0.7-1.4l9.2-12.5"/>
				<path class="st14" d="M951.4,787.1l-10.2,22c-0.3,0.5-0.8,0.9-1.4,0.9c-0.6,0-1.2-0.4-1.4-0.9l-3-6.5c-0.2-0.5-0.7-0.8-1.2-0.9
					s-1.1,0.2-1.4,0.6l-8.4,8.6c-0.4,0.5-1.1,0.8-1.7,0.6s-1.1-0.8-1.1-1.5v-11.5c0-0.9,0-0.8-0.8-0.8h-11.5c-1.5,0-2.1-2.6-0.9-3.5
					l8.6-7.7c0.4-0.3,0.7-0.9,0.6-1.4c-0.1-0.5-0.4-1-0.9-1.2l-6.5-3c-0.6-0.3-0.9-0.8-0.9-1.4c0-0.6,0.3-1.2,0.9-1.4l22-10.2"/>
			</g>
		</g>
	</g>
	<g>
		<g>
			<path class="st15" d="M853.2,820.9h3.2c8.5,0.2,15.2,7.1,15.3,15.6v1.9c1.6-0.8,1.2-0.9,2.6-0.3c3.3,1.4,4.5,6.3,2.5,10.9
				c-1.6,3.6-2.6,6-5.4,6.2c-1.5,8.8-8.7,17.6-18.1,17.6s-16.6-8.8-18.1-17.6c-2.8-0.1-3.8-2.5-5.4-6.2c-2-4.6-0.9-9.5,2.5-10.9
				c1.5-0.6,1.1-0.5,2.6,0.3v-1.9c0-8.5,6.8-15.4,15.3-15.6H853.2z"/>
			<path class="st15" d="M863.3,869.1v2.2c0,5.7,6.4,11.6,12.3,13.4h0c0.8,0.3,1.6,0.4,2.5,0.5l10.5,1.1c6.4,0.7,11.3,6.2,11.3,12.7
				v6.2c0,2.6-2.1,3.7-4.7,3.7h-82c-2.6,0-4.7-1-4.7-3.7v-6.2c0-6.5,4.9-11.9,11.3-12.7l8.7-1.1c0.8-0.1,1.6-0.2,2.3-0.5
				c5.9-1.9,10.1-7.2,10.6-13.4v-3.8"/>
			<path class="st15" d="M830.7,884.6c6.8,4,14.6,6,22.4,5.8c7.9,0.2,15.6-1.8,22.4-5.8h0"/>
		</g>
		<g>
			<path class="st15" d="M974.3,821.4h3.2c8.5,0.2,15.2,7.1,15.3,15.6v1.9c1.6-0.8,1.2-0.9,2.6-0.3c3.3,1.4,4.5,6.3,2.5,10.9
				c-1.6,3.6-2.6,6-5.4,6.2c-1.5,8.8-8.7,17.6-18.1,17.6s-16.6-8.8-18.1-17.6c-2.8-0.1-3.8-2.5-5.4-6.2c-2-4.6-0.9-9.5,2.5-10.9
				c1.5-0.6,1.1-0.5,2.6,0.3V837c0-8.5,6.8-15.4,15.3-15.6H974.3z"/>
			<path class="st15" d="M984.4,869.6v2.2c0,5.7,6.4,11.6,12.3,13.4h0c0.8,0.3,1.6,0.4,2.5,0.5l10.5,1.1c6.4,0.7,11.3,6.2,11.3,12.7
				v6.2c0,2.6-2.1,3.7-4.7,3.7h-82c-2.6,0-4.7-1-4.7-3.7v-6.2c0-6.5,4.9-11.9,11.3-12.7l8.7-1.1c0.8-0.1,1.6-0.2,2.3-0.5
				c5.9-1.9,10.1-7.2,10.6-13.4V868"/>
			<path class="st15" d="M951.8,885.1c6.8,4,14.6,6,22.4,5.8c7.9,0.2,15.6-1.8,22.4-5.8h0"/>
		</g>
		<g>
			<path class="st16" d="M913.3,807.7h2.3c6.2,0.1,11.1,5.2,11.1,11.4v1.4c1.1-0.6,0.8-0.7,1.9-0.2c2.4,1,3.2,4.6,1.8,7.9
				c-1.2,2.6-1.9,4.4-3.9,4.5c-1.1,6.5-6.3,12.9-13.2,12.9c-6.9,0-12.1-6.4-13.2-12.9c-2.1-0.1-2.8-1.9-3.9-4.5
				c-1.5-3.3-0.7-6.9,1.8-7.9c1.1-0.4,0.8-0.3,1.9,0.2v-1.4c0-6.2,5-11.2,11.1-11.4H913.3z"/>
			<path class="st16" d="M920.6,842.9v1.6c0,4.2,4.7,8.4,9,9.7h0c0.6,0.2,1.2,0.3,1.8,0.4l7.7,0.8c4.7,0.5,8.3,4.5,8.2,9.2v4.5
				c0,1.9-1.5,2.7-3.4,2.7H884c-1.9,0-3.4-0.7-3.4-2.7v-4.5c0-4.7,3.5-8.7,8.2-9.2l6.4-0.8c0.6-0.1,1.1-0.2,1.7-0.3
				c4.3-1.4,7.3-5.3,7.7-9.8v-2.8"/>
			<path class="st16" d="M896.9,854.2c4.9,2.9,10.6,4.4,16.4,4.2c5.7,0.2,11.4-1.3,16.3-4.2h0"/>
		</g>
	</g>
</g>
<g>
	<g>
		<path class="st17" d="M1007,597.9h12.1c3.8,0,5.7,1.7,5.7,5.1v10.5c0,3.4-1.9,5.1-5.7,5.1h-6.1v12.1h-6V597.9z M1018.7,612.7v-8.8
			c0-0.6-0.1-0.9-0.3-1.1c-0.2-0.2-0.6-0.3-1.1-0.3h-4.3v11.6h4.3c0.6,0,0.9-0.1,1.1-0.3S1018.7,613.2,1018.7,612.7z"/>
		<path class="st17" d="M1035.8,617.9v12.8h-6v-32.8h12.1c3.8,0,5.7,1.7,5.7,5.1v9.7c0,2.8-1.3,4.5-3.8,5l5.5,12.9h-6.4l-5-12.8
			H1035.8z M1035.8,602.5v11h4.3c0.6,0,0.9-0.1,1.1-0.3c0.2-0.2,0.3-0.6,0.3-1.1v-8.2c0-0.6-0.1-0.9-0.3-1.1
			c-0.2-0.2-0.6-0.3-1.1-0.3H1035.8z"/>
		<path class="st17" d="M1059,597.9h6.3c3.8,0,5.7,1.7,5.7,5.1v22.5c0,3.4-1.9,5.1-5.7,5.1h-6.3c-3.8,0-5.7-1.7-5.7-5.1V603
			C1053.3,599.6,1055.2,597.9,1059,597.9z M1065,624.7v-20.9c0-0.6-0.1-0.9-0.3-1.1c-0.2-0.2-0.6-0.3-1.1-0.3h-2.8
			c-0.6,0-1,0.1-1.2,0.3c-0.2,0.2-0.3,0.6-0.3,1.1v20.9c0,0.6,0.1,0.9,0.3,1.1c0.2,0.2,0.6,0.3,1.2,0.3h2.8c0.6,0,0.9-0.1,1.1-0.3
			C1064.9,625.7,1065,625.3,1065,624.7z"/>
		<path class="st17" d="M1075.3,619.2h6v5.5c0,0.6,0.1,0.9,0.3,1.1c0.2,0.2,0.6,0.3,1.2,0.3h1.2c0.6,0,0.9-0.1,1.1-0.3
			c0.2-0.2,0.3-0.6,0.3-1.1v-26.8h6v27.7c0,3.4-1.9,5.1-5.7,5.1h-4.9c-3.8,0-5.7-1.7-5.7-5.1V619.2z"/>
		<path class="st17" d="M1103.7,626.1h10v4.6h-16v-32.8h15.6v4.6h-9.6v9.1h8.1v4.6h-8.1V626.1z"/>
		<path class="st17" d="M1135.6,608.8h-6v-5.1c0-0.6-0.1-0.9-0.3-1.1c-0.2-0.2-0.6-0.3-1.1-0.3h-2.4c-0.6,0-0.9,0.1-1.1,0.3
			c-0.2,0.2-0.3,0.6-0.3,1.1V625c0,0.6,0.1,0.9,0.3,1.1s0.6,0.3,1.1,0.3h2.4c0.6,0,0.9-0.1,1.1-0.3s0.3-0.6,0.3-1.1v-5h6v5.6
			c0,3.4-1.9,5.1-5.7,5.1h-6.1c-3.8,0-5.7-1.7-5.7-5.1V603c0-3.4,1.9-5.1,5.7-5.1h6.1c3.8,0,5.7,1.7,5.7,5.1V608.8z"/>
		<path class="st17" d="M1156.3,597.9v4.6h-5.8v28.2h-6v-28.2h-5.7v-4.6H1156.3z"/>
		<path class="st17" d="M1013.7,649.9h6.3c3.8,0,5.7,1.7,5.7,5.1v22.5c0,3.4-1.9,5.1-5.7,5.1h-6.3c-3.8,0-5.7-1.7-5.7-5.1V655
			C1008,651.6,1009.9,649.9,1013.7,649.9z M1019.7,676.7v-20.9c0-0.6-0.1-0.9-0.3-1.1c-0.2-0.2-0.6-0.3-1.1-0.3h-2.8
			c-0.6,0-1,0.1-1.2,0.3c-0.2,0.2-0.3,0.6-0.3,1.1v20.9c0,0.6,0.1,0.9,0.3,1.1c0.2,0.2,0.6,0.3,1.2,0.3h2.8c0.6,0,0.9-0.1,1.1-0.3
			C1019.6,677.7,1019.7,677.3,1019.7,676.7z"/>
		<path class="st17" d="M1058,649.9h5.9l-5.8,32.8h-7.6l-3.7-23.1l-3.6,23.1h-7.6l-5.8-32.8h6.2l3.4,26.6l4.3-26.6h6.3l4.3,26.6
			L1058,649.9z"/>
		<path class="st17" d="M1080.9,649.9h5.5v32.8h-5.6l-7-21.7v21.7h-5.5v-32.8h5.8l6.9,21.4V649.9z"/>
		<path class="st17" d="M1098.7,678.1h10v4.6h-16v-32.8h15.6v4.6h-9.6v9.1h8.1v4.6h-8.1V678.1z"/>
		<path class="st17" d="M1119.4,669.9v12.8h-6v-32.8h12.1c3.8,0,5.7,1.7,5.7,5.1v9.7c0,2.8-1.3,4.5-3.8,5l5.5,12.9h-6.4l-5-12.8
			H1119.4z M1119.4,654.5v11h4.3c0.6,0,0.9-0.1,1.1-0.3c0.2-0.2,0.3-0.6,0.3-1.1v-8.2c0-0.6-0.1-0.9-0.3-1.1
			c-0.2-0.2-0.6-0.3-1.1-0.3H1119.4z"/>
		<path class="st17" d="M1147.5,676.7v-7c0-0.6-0.1-0.9-0.3-1.1c-0.2-0.2-0.6-0.3-1.1-0.3h-4.2c-3.6,0-5.4-1.7-5.4-5.2V655
			c0-3.4,1.9-5.1,5.6-5.1h5.7c3.7,0,5.6,1.7,5.6,5.1v4.6h-6v-3.7c0-0.6-0.1-0.9-0.3-1.1c-0.2-0.2-0.6-0.3-1.1-0.3h-2
			c-0.6,0-1,0.1-1.2,0.3c-0.2,0.2-0.3,0.6-0.3,1.1v6.6c0,0.6,0.1,0.9,0.3,1.1c0.2,0.2,0.6,0.3,1.2,0.3h4.1c3.6,0,5.5,1.7,5.5,5.1
			v8.6c0,3.4-1.9,5.1-5.7,5.1h-5.6c-3.8,0-5.7-1.7-5.7-5.1V673h6v3.7c0,0.6,0.1,0.9,0.3,1.1c0.2,0.2,0.6,0.3,1.2,0.3h2
			c0.6,0,0.9-0.1,1.1-0.3C1147.4,677.7,1147.5,677.3,1147.5,676.7z"/>
	</g>
</g>
<g>
	<g>
		<path class="st17" d="M93.5,654.7v4.6h-5.8v28.2h-6v-28.2H76v-4.6H93.5z"/>
		<path class="st17" d="M110.3,654.7h6v32.8h-6v-14h-6.8v14h-6v-32.8h6V669h6.8V654.7z"/>
		<path class="st17" d="M128.6,682.9h10v4.6h-16v-32.8h15.6v4.6h-9.6v9.1h8.1v4.6h-8.1V682.9z"/>
		<path class="st17" d="M50.9,706.7h12.5c3.8,0,5.7,1.7,5.7,5.1v7.1c0,2.2-0.7,3.5-2.2,4c1.5,0.5,2.2,1.7,2.2,3.7v7.7
			c0,3.4-1.9,5.1-5.7,5.1H50.9V706.7z M63.2,719.3v-6.9c0-0.6-0.1-0.9-0.3-1.1c-0.2-0.2-0.6-0.3-1.2-0.3h-4.7v9.7h4.7
			c0.6,0,1-0.1,1.2-0.3S63.2,719.9,63.2,719.3z M63.2,733.7v-7.2c0-0.6-0.1-0.9-0.3-1.1c-0.2-0.2-0.6-0.3-1.2-0.3h-4.7v10h4.7
			c0.6,0,1-0.1,1.2-0.3C63.1,734.7,63.2,734.3,63.2,733.7z"/>
		<path class="st17" d="M80.6,706.7h6.3c3.8,0,5.7,1.7,5.7,5.1v22.5c0,3.4-1.9,5.1-5.7,5.1h-6.3c-3.8,0-5.7-1.7-5.7-5.1v-22.5
			C74.9,708.4,76.8,706.7,80.6,706.7z M86.6,733.5v-20.9c0-0.6-0.1-0.9-0.3-1.1c-0.2-0.2-0.6-0.3-1.1-0.3h-2.8c-0.6,0-1,0.1-1.2,0.3
			c-0.2,0.2-0.3,0.6-0.3,1.1v20.9c0,0.6,0.1,0.9,0.3,1.1c0.2,0.2,0.6,0.3,1.2,0.3h2.8c0.6,0,0.9-0.1,1.1-0.3
			C86.5,734.5,86.6,734.1,86.6,733.5z"/>
		<path class="st17" d="M112.2,739.5l-1.2-6.8h-7.2l-1.1,6.8h-6l6.6-32.8h8.1l6.9,32.8H112.2z M104.6,728.2h5.6l-2.9-15.7
			L104.6,728.2z"/>
		<path class="st17" d="M128.4,726.7v12.8h-6v-32.8h12.1c3.8,0,5.7,1.7,5.7,5.1v9.7c0,2.8-1.3,4.5-3.8,5l5.5,12.9h-6.4l-5-12.8
			H128.4z M128.4,711.3v11h4.3c0.6,0,0.9-0.1,1.1-0.3c0.2-0.2,0.3-0.6,0.3-1.1v-8.2c0-0.6-0.1-0.9-0.3-1.1c-0.2-0.2-0.6-0.3-1.1-0.3
			H128.4z"/>
		<path class="st17" d="M146.4,706.7h12.5c3.8,0,5.7,1.7,5.7,5.1v22.5c0,3.4-1.9,5.1-5.7,5.1h-12.5V706.7z M158.5,733.7v-21.3
			c0-0.6-0.1-0.9-0.3-1.1c-0.2-0.2-0.6-0.3-1.1-0.3h-4.7v24.1h4.7c0.6,0,0.9-0.1,1.1-0.3C158.4,734.7,158.5,734.3,158.5,733.7z"/>
	</g>
</g>
<g>
	<g>
		<path class="st17" d="M375.6,115.4h-9.9v10h8.1v4.4h-8.1v13.9h-6v-32.8h15.9V115.4z"/>
		<path class="st17" d="M391.5,110.8h6v27.7c0,3.4-1.9,5.1-5.7,5.1h-6.3c-3.8,0-5.7-1.7-5.7-5.1v-27.7h6v26.8c0,0.6,0.1,0.9,0.3,1.1
			c0.2,0.2,0.6,0.3,1.1,0.3h2.8c0.6,0,1-0.1,1.2-0.3c0.2-0.2,0.3-0.6,0.3-1.1V110.8z"/>
		<path class="st17" d="M416.5,110.8h5.5v32.8h-5.6l-7-21.7v21.7h-5.5v-32.8h5.8l6.9,21.4V110.8z"/>
		<path class="st17" d="M428.5,110.8H441c3.8,0,5.7,1.7,5.7,5.1v22.5c0,3.4-1.9,5.1-5.7,5.1h-12.5V110.8z M440.6,137.8v-21.3
			c0-0.6-0.1-0.9-0.3-1.1c-0.2-0.2-0.6-0.3-1.1-0.3h-4.7v24.1h4.7c0.6,0,0.9-0.1,1.1-0.3C440.5,138.7,440.6,138.4,440.6,137.8z"/>
		<path class="st17" d="M307.9,191h10v4.6h-16v-32.8h15.6v4.6h-9.6v9.1h8.1v4.6h-8.1V191z"/>
		<path class="st17" d="M334.1,178.8l7.5,16.7h-6.7l-4.1-11.5l-4.2,11.5h-6.4l7.2-16.7l-6.9-16.1h6.7l3.5,10.8l3.5-10.8h6.4
			L334.1,178.8z"/>
		<path class="st17" d="M351.6,191h10v4.6h-16v-32.8h15.6v4.6h-9.6v9.1h8.1v4.6h-8.1V191z"/>
		<path class="st17" d="M383.5,173.6h-6v-5.1c0-0.6-0.1-0.9-0.3-1.1c-0.2-0.2-0.6-0.3-1.1-0.3h-2.4c-0.6,0-0.9,0.1-1.1,0.3
			c-0.2,0.2-0.3,0.6-0.3,1.1v21.3c0,0.6,0.1,0.9,0.3,1.1s0.6,0.3,1.1,0.3h2.4c0.6,0,0.9-0.1,1.1-0.3s0.3-0.6,0.3-1.1v-5h6v5.6
			c0,3.4-1.9,5.1-5.7,5.1h-6.1c-3.8,0-5.7-1.7-5.7-5.1v-22.6c0-3.4,1.9-5.1,5.7-5.1h6.1c3.8,0,5.7,1.7,5.7,5.1V173.6z"/>
		<path class="st17" d="M400.6,162.8h6v27.7c0,3.4-1.9,5.1-5.7,5.1h-6.3c-3.8,0-5.7-1.7-5.7-5.1v-27.7h6v26.8c0,0.6,0.1,0.9,0.3,1.1
			c0.2,0.2,0.6,0.3,1.1,0.3h2.8c0.6,0,1-0.1,1.2-0.3c0.2-0.2,0.3-0.6,0.3-1.1V162.8z"/>
		<path class="st17" d="M428.1,162.8v4.6h-5.8v28.2h-6v-28.2h-5.7v-4.6H428.1z"/>
		<path class="st17" d="M432.4,162.8h6v32.8h-6V162.8z"/>
		<path class="st17" d="M457.6,162.8h6.1l-6.5,32.8h-7.9l-6.5-32.8h6.2l4.2,26.5L457.6,162.8z"/>
		<path class="st17" d="M473.8,191h10v4.6h-16v-32.8h15.6v4.6h-9.6v9.1h8.1v4.6h-8.1V191z"/>
		<path class="st17" d="M499,189.6v-7c0-0.6-0.1-0.9-0.3-1.1c-0.2-0.2-0.6-0.3-1.1-0.3h-4.2c-3.6,0-5.4-1.7-5.4-5.2v-8.1
			c0-3.4,1.9-5.1,5.6-5.1h5.7c3.7,0,5.6,1.7,5.6,5.1v4.6h-6v-3.7c0-0.6-0.1-0.9-0.3-1.1c-0.2-0.2-0.6-0.3-1.1-0.3h-2
			c-0.6,0-1,0.1-1.2,0.3c-0.2,0.2-0.3,0.6-0.3,1.1v6.6c0,0.6,0.1,0.9,0.3,1.1c0.2,0.2,0.6,0.3,1.2,0.3h4.1c3.6,0,5.5,1.7,5.5,5.1
			v8.6c0,3.4-1.9,5.1-5.7,5.1h-5.6c-3.8,0-5.7-1.7-5.7-5.1v-4.5h6v3.7c0,0.6,0.1,0.9,0.3,1.1c0.2,0.2,0.6,0.3,1.2,0.3h2
			c0.6,0,0.9-0.1,1.1-0.3C498.8,190.5,499,190.2,499,189.6z"/>
	</g>
</g>
<g>
	<g>
		<path class="st11" d="M753.2,599.4l1.9,3.2l-17.4,10.2l-1.9-3.2L753.2,599.4z"/>
		<path class="st11" d="M761.1,612.8l1.7,2.9l-17.4,10.2l-1.7-3l9.4-10.5l-11.5,6.8l-1.7-2.9l17.4-10.2l1.8,3.1l-9.2,10.3
			L761.1,612.8z"/>
		<path class="st11" d="M768.6,625.7l1.9,3.3l-19.4,6.8l-2.4-4.2l15.4-13.7l1.9,3.3l-12.8,10.5L768.6,625.7z"/>
		<path class="st11" d="M758.7,643.2l3.1,5.3l-2.4,1.4l-5-8.5l17.4-10.2l4.9,8.3l-2.4,1.4l-3-5.1l-4.8,2.8l2.5,4.3l-2.5,1.4
			l-2.5-4.3L758.7,643.2z"/>
		<path class="st11" d="M767.3,656l3.7-2.2c0.3-0.2,0.5-0.3,0.5-0.5c0-0.2,0-0.4-0.2-0.7l-1.3-2.2c-1.1-1.9-0.7-3.4,1.1-4.5l4.3-2.5
			c1.8-1.1,3.3-0.6,4.5,1.4l1.8,3c1.2,2,0.8,3.5-1,4.6l-2.4,1.4l-1.9-3.2l2-1.2c0.3-0.2,0.5-0.3,0.5-0.5c0-0.2,0-0.4-0.2-0.7l-0.6-1
			c-0.2-0.3-0.4-0.5-0.5-0.5c-0.2-0.1-0.4,0-0.7,0.2l-3.5,2.1c-0.3,0.2-0.5,0.3-0.5,0.5c0,0.2,0,0.4,0.2,0.7l1.3,2.2
			c1.1,1.9,0.8,3.4-1,4.5l-4.6,2.7c-1.8,1.1-3.3,0.6-4.5-1.4l-1.7-3c-1.2-2-0.9-3.5,1-4.6l2.4-1.4l1.9,3.2l-2,1.1
			c-0.3,0.2-0.5,0.3-0.5,0.5c0,0.2,0,0.4,0.2,0.7l0.6,1c0.2,0.3,0.3,0.5,0.5,0.5S767,656.2,767.3,656z"/>
		<path class="st11" d="M789.9,662l-2.4,1.4l-1.8-3.1l-15,8.8l-1.9-3.2l15-8.8l-1.8-3l2.4-1.4L789.9,662z"/>
		<path class="st11" d="M794.3,669.4l1.9,3.2l-17.4,10.2l-1.9-3.2L794.3,669.4z"/>
		<path class="st11" d="M802.1,682.8l1.7,2.9L786.4,696l-1.7-3l9.4-10.5l-11.5,6.8l-1.7-2.9l17.4-10.2l1.8,3.1l-9.2,10.3
			L802.1,682.8z"/>
	</g>
</g>
<g>
	<g>
		<path class="st18" d="M778.3,433l3.8,6.4c1.2,2,0.9,3.5-0.9,4.6l-5.5,3.3c-1.8,1.1-3.3,0.6-4.5-1.4l-1.9-3.2l-6.4,3.8l-1.9-3.2
			L778.3,433z M774.2,443.8l4.6-2.8c0.3-0.2,0.5-0.3,0.5-0.5s0-0.4-0.2-0.7l-1.4-2.3l-6.1,3.6l1.4,2.3c0.2,0.3,0.3,0.5,0.5,0.5
			C773.7,444.1,773.9,444,774.2,443.8z"/>
		<path class="st18" d="M785.6,445.2l1.9,3.2l-17.4,10.3l-1.9-3.2L785.6,445.2z"/>
		<path class="st18" d="M794.4,459.9l-2.4,1.4l-1.8-3.1l-14.9,8.9l-1.9-3.2l14.9-8.9l-1.8-3l2.4-1.4L794.4,459.9z"/>
		<path class="st18" d="M795.3,474.6l-1.9-3.2l2.7-1.6c0.3-0.2,0.5-0.3,0.5-0.5c0-0.2,0-0.4-0.2-0.7l-0.8-1.3
			c-0.2-0.3-0.3-0.5-0.5-0.5c-0.2,0-0.4,0-0.7,0.2l-11.3,6.7c-0.3,0.2-0.5,0.3-0.5,0.5s0,0.4,0.2,0.7l0.8,1.3
			c0.2,0.3,0.3,0.5,0.5,0.5s0.4,0,0.7-0.2l2.6-1.6l1.9,3.2l-3,1.8c-1.8,1.1-3.3,0.6-4.5-1.4l-1.9-3.2c-1.2-2-0.9-3.5,0.9-4.6
			l11.9-7.1c1.8-1.1,3.3-0.6,4.5,1.4l1.9,3.2c1.2,2,0.9,3.5-0.9,4.6L795.3,474.6z"/>
		<path class="st18" d="M806.8,480.8l1.9,3.2l-17.4,10.3l-1.9-3.2l7.4-4.4l-2.1-3.6l-7.4,4.4l-1.9-3.2l17.4-10.3l1.9,3.2l-7.5,4.5
			l2.1,3.6L806.8,480.8z"/>
		<path class="st18" d="M813.8,492.6l1.9,3.2l-17.4,10.3l-1.9-3.2L813.8,492.6z"/>
		<path class="st18" d="M817.8,499.4l3.9,6.6c1.2,2,0.9,3.5-0.9,4.6l-11.9,7.1c-1.8,1.1-3.3,0.6-4.5-1.4l-3.9-6.6L817.8,499.4z
			 M807.4,514.3l11.2-6.7c0.3-0.2,0.5-0.3,0.5-0.5c0-0.2,0-0.4-0.2-0.7l-1.5-2.5l-12.7,7.6l1.5,2.5c0.2,0.3,0.3,0.5,0.5,0.5
			C806.8,514.5,807.1,514.5,807.4,514.3z"/>
		<path class="st18" d="M812.4,524.3l3.1,5.3l-2.4,1.4l-5-8.5l17.4-10.3l4.9,8.3l-2.4,1.4l-3-5.1l-4.8,2.9l2.5,4.3l-2.4,1.5
			l-2.5-4.3L812.4,524.3z"/>
		<path class="st18" d="M818.9,540.6l3.2-2.8l-2.3-3.8l-4,1.5l-1.9-3.2l19.4-6.8l2.5,4.3l-15.2,14L818.9,540.6z M822.5,533l1.8,2.9
			l7.4-6.5L822.5,533z"/>
		<path class="st18" d="M828.5,549.7l3.7-2.2c0.3-0.2,0.5-0.3,0.5-0.5c0-0.2,0-0.4-0.2-0.7l-1.3-2.2c-1.1-1.9-0.8-3.4,1.1-4.5
			l4.3-2.5c1.8-1.1,3.3-0.6,4.5,1.4l1.8,3c1.2,2,0.9,3.5-1,4.6l-2.4,1.4l-1.9-3.2l2-1.2c0.3-0.2,0.5-0.3,0.5-0.5
			c0-0.2,0-0.4-0.2-0.7l-0.6-1c-0.2-0.3-0.4-0.5-0.5-0.5c-0.2,0-0.4,0-0.7,0.2l-3.5,2.1c-0.3,0.2-0.5,0.3-0.5,0.5
			c0,0.2,0,0.4,0.2,0.7l1.3,2.2c1.1,1.9,0.8,3.4-1,4.5l-4.5,2.7c-1.8,1.1-3.3,0.6-4.5-1.4l-1.8-3c-1.2-2-0.9-3.5,0.9-4.6l2.4-1.4
			l1.9,3.2l-2,1.2c-0.3,0.2-0.5,0.3-0.5,0.5c0,0.2,0,0.4,0.2,0.7l0.6,1c0.2,0.3,0.3,0.5,0.5,0.5C828,549.9,828.2,549.8,828.5,549.7z
			"/>
		<path class="st18" d="M854.2,560.6l-2.4,1.4l-1.8-3.1l-14.9,8.9l-1.9-3.2l14.9-8.9l-1.8-3l2.4-1.4L854.2,560.6z"/>
		<path class="st18" d="M857.2,565.6l2,3.4c1.2,2,0.9,3.5-0.9,4.6l-11.9,7.1c-1.8,1.1-3.3,0.6-4.5-1.4l-2-3.4
			c-1.2-2-0.9-3.5,0.9-4.6l11.9-7.1C854.5,563.1,856,563.6,857.2,565.6z M844.9,577.2l11-6.6c0.3-0.2,0.5-0.3,0.5-0.5
			c0-0.2,0-0.4-0.2-0.7l-0.9-1.5c-0.2-0.3-0.4-0.5-0.5-0.5c-0.2,0-0.4,0-0.7,0.2l-11,6.6c-0.3,0.2-0.5,0.3-0.5,0.5
			c0,0.2,0,0.4,0.2,0.7l0.9,1.5c0.2,0.3,0.3,0.5,0.5,0.5C844.4,577.5,844.6,577.4,844.9,577.2z"/>
	</g>
</g>
<g>
	<g>
		<path class="st11" d="M338.8,641.5l-3.7-2.1c-0.3-0.2-0.5-0.2-0.7-0.2c-0.2,0.1-0.3,0.2-0.5,0.5l-1.3,2.2
			c-1.1,1.9-2.6,2.3-4.4,1.3l-4.3-2.5c-1.8-1-2.2-2.6-1-4.6l1.8-3.1c1.1-2,2.6-2.5,4.5-1.4l2.4,1.4l-1.8,3.2l-2-1.1
			c-0.3-0.2-0.5-0.2-0.7-0.2c-0.2,0.1-0.3,0.2-0.5,0.5l-0.6,1.1c-0.2,0.3-0.3,0.6-0.2,0.7c0,0.2,0.2,0.3,0.5,0.5l3.5,2
			c0.3,0.2,0.5,0.2,0.7,0.2c0.2-0.1,0.3-0.2,0.5-0.6l1.3-2.2c1.1-1.9,2.6-2.4,4.4-1.4l4.6,2.6c1.8,1,2.2,2.6,1,4.6l-1.7,3
			c-1.2,2-2.7,2.5-4.5,1.5l-2.4-1.4l1.8-3.2l2,1.1c0.3,0.2,0.5,0.2,0.7,0.2c0.2-0.1,0.3-0.2,0.5-0.6l0.6-1.1
			c0.2-0.3,0.2-0.5,0.2-0.7C339.3,641.8,339.1,641.6,338.8,641.5z"/>
		<path class="st11" d="M331.6,620.8l1.8-3.2l14.8,8.5c1.8,1,2.2,2.6,1,4.6l-1.9,3.4c-1.2,2-2.7,2.5-4.5,1.5l-14.8-8.5l1.8-3.2
			l14.3,8.2c0.3,0.2,0.5,0.2,0.7,0.2c0.2-0.1,0.3-0.2,0.5-0.5l0.8-1.5c0.2-0.3,0.3-0.6,0.2-0.7c0-0.2-0.2-0.3-0.5-0.5L331.6,620.8z"
			/>
		<path class="st11" d="M335.4,614.3l3.8-6.7c1.2-2,2.7-2.5,4.5-1.5l3.8,2.2c1.2,0.7,1.7,1.5,1.5,2.4c0.7-0.6,1.6-0.6,2.7,0l4.1,2.4
			c1.8,1.1,2.2,2.6,1,4.6l-3.8,6.7L335.4,614.3z M345.8,611.6l-3.7-2.1c-0.3-0.2-0.5-0.2-0.7-0.2c-0.2,0.1-0.3,0.2-0.5,0.6l-1.4,2.5
			l5.2,3l1.4-2.5c0.2-0.3,0.3-0.6,0.2-0.7S346.1,611.8,345.8,611.6z M353.5,616l-3.9-2.2c-0.3-0.2-0.5-0.2-0.7-0.2
			c-0.2,0.1-0.3,0.2-0.5,0.6l-1.4,2.5l5.4,3.1l1.4-2.5c0.2-0.3,0.3-0.6,0.2-0.7C354,616.4,353.8,616.2,353.5,616z"/>
		<path class="st11" d="M361.9,608.6l-1.6,2.8l-17.5-10l2-3.5l12.1,3l-8.7-8.9l2-3.5l17.5,10l-1.6,2.8l-12.3-7l7.2,7.2l-1.5,2.6
			l-9.8-2.5L361.9,608.6z"/>
		<path class="st11" d="M352.2,584.9l1.8-3.2l17.5,10l-1.8,3.2L352.2,584.9z"/>
		<path class="st11" d="M360.7,570.1l2.4,1.4l-1.8,3.1l15.1,8.6l-1.8,3.2l-15.1-8.6l-1.8,3.1l-2.4-1.4L360.7,570.1z"/>
		<path class="st11" d="M365,562.6l1.8-3.2l17.5,10l-1.8,3.2L365,562.6z"/>
		<path class="st11" d="M372.7,549.1l1.7-2.9l17.5,10l-1.7,3l-13.8-2.9L388,563l-1.7,2.9l-17.5-10l1.8-3.1l13.6,2.9L372.7,549.1z"/>
		<path class="st11" d="M380.2,536.1l1.9-3.3l15.5,13.5l-2.4,4.2l-19.5-6.6l1.9-3.3l15.4,5.9L380.2,536.1z"/>
		<path class="st11" d="M400.2,536.1l3.1-5.3l2.4,1.4l-4.9,8.6l-17.5-10l4.8-8.3l2.4,1.4l-2.9,5.1l4.9,2.8l2.5-4.3l2.5,1.4l-2.5,4.3
			L400.2,536.1z"/>
		<path class="st11" d="M407.2,522.2l-3.7-2.1c-0.3-0.2-0.5-0.2-0.7-0.2c-0.2,0.1-0.3,0.2-0.5,0.5l-1.3,2.2
			c-1.1,1.9-2.6,2.3-4.4,1.3l-4.3-2.5c-1.8-1-2.2-2.6-1-4.6l1.8-3.1c1.1-2,2.6-2.5,4.5-1.4l2.4,1.4L398,517l-2-1.1
			c-0.3-0.2-0.5-0.2-0.7-0.2s-0.3,0.2-0.5,0.5l-0.6,1.1c-0.2,0.3-0.3,0.6-0.2,0.7c0,0.2,0.2,0.3,0.5,0.5l3.5,2
			c0.3,0.2,0.5,0.2,0.7,0.2c0.2-0.1,0.3-0.2,0.5-0.6l1.3-2.2c1.1-1.9,2.6-2.4,4.4-1.4l4.6,2.6c1.8,1,2.2,2.6,1,4.6l-1.7,3
			c-1.2,2-2.7,2.5-4.5,1.5l-2.4-1.4l1.8-3.2l2,1.1c0.3,0.2,0.5,0.2,0.7,0.2c0.2-0.1,0.3-0.2,0.5-0.6l0.6-1.1
			c0.2-0.3,0.2-0.5,0.2-0.7C407.6,522.6,407.5,522.4,407.2,522.2z"/>
		<path class="st11" d="M401.1,499.6l2.4,1.4l-1.8,3.1l15.1,8.6L415,516l-15.1-8.6l-1.8,3.1l-2.4-1.4L401.1,499.6z"/>
		<path class="st11" d="M421.4,504.7l-1.6,2.8l-17.5-10l2-3.5l12.1,3l-8.7-8.9l2-3.5l17.5,10l-1.6,2.8l-12.3-7l7.2,7.2l-1.5,2.6
			l-9.8-2.5L421.4,504.7z"/>
		<path class="st11" d="M428.5,486.6l3.1-5.3l2.4,1.4l-4.9,8.6l-17.5-10l4.8-8.3l2.4,1.4l-2.9,5.1l4.9,2.8l2.5-4.3l2.5,1.4l-2.5,4.3
			L428.5,486.6z"/>
		<path class="st11" d="M421.9,463.4l1.7-2.9l17.5,10l-1.7,3l-13.8-2.9l11.6,6.7l-1.7,2.9l-17.5-10l1.8-3.1l13.6,2.9L421.9,463.4z"
			/>
		<path class="st11" d="M430.1,448.9l2.4,1.4l-1.8,3.1l15.1,8.6l-1.8,3.2l-15.1-8.6l-1.8,3.1l-2.4-1.4L430.1,448.9z"/>
		<path class="st11" d="M402.9,583.9l-3.7-2.1c-0.3-0.2-0.5-0.2-0.7-0.2c-0.2,0.1-0.3,0.2-0.5,0.5l-1.3,2.2
			c-1.1,1.9-2.6,2.3-4.4,1.3l-4.3-2.5c-1.8-1-2.2-2.6-1-4.6l1.8-3.1c1.1-2,2.6-2.5,4.5-1.4l2.4,1.4l-1.8,3.2l-2-1.1
			c-0.3-0.2-0.5-0.2-0.7-0.2c-0.2,0.1-0.3,0.2-0.5,0.5L390,579c-0.2,0.3-0.3,0.6-0.2,0.7c0,0.2,0.2,0.3,0.5,0.5l3.5,2
			c0.3,0.2,0.5,0.2,0.7,0.2s0.3-0.2,0.5-0.6l1.3-2.2c1.1-1.9,2.6-2.4,4.4-1.4l4.6,2.6c1.8,1,2.2,2.6,1,4.6l-1.7,3
			c-1.2,2-2.7,2.5-4.5,1.5l-2.4-1.4l1.8-3.2l2,1.1c0.3,0.2,0.5,0.2,0.7,0.2c0.2-0.1,0.3-0.2,0.5-0.6l0.6-1.1
			c0.2-0.3,0.2-0.5,0.2-0.7C403.4,584.2,403.2,584.1,402.9,583.9z"/>
		<path class="st11" d="M396.8,561.3l2.4,1.4l-1.8,3.1l15.1,8.6l-1.8,3.2l-15.1-8.6l-1.8,3.1l-2.4-1.4L396.8,561.3z"/>
		<path class="st11" d="M410.6,562.1l6.8,3.9l-1.8,3.2l-17.5-10l3.7-6.4c1.2-2,2.7-2.5,4.5-1.5l5.2,3c1.5,0.9,2,2.1,1.5,3.6l8.6,1
			l-2,3.4l-8.4-1.2L410.6,562.1z M402.3,557.4l5.9,3.4l1.3-2.3c0.2-0.3,0.2-0.5,0.2-0.7c0-0.2-0.2-0.3-0.5-0.5l-4.4-2.5
			c-0.3-0.2-0.5-0.2-0.7-0.2s-0.3,0.2-0.5,0.5L402.3,557.4z"/>
		<path class="st11" d="M427,549.4l-4-1.4l-2.2,3.8l3.3,2.7l-1.8,3.2l-15.5-13.6l2.5-4.3l19.6,6.3L427,549.4z M418.6,550l1.7-3
			l-9.3-3.3L418.6,550z"/>
		<path class="st11" d="M417.2,525.7l2.4,1.4l-1.8,3.1l15.1,8.6l-1.8,3.2l-15.1-8.6l-1.8,3.1l-2.4-1.4L417.2,525.7z"/>
		<path class="st11" d="M435.4,529l3.1-5.3l2.4,1.4l-4.9,8.6l-17.5-10l4.8-8.3l2.4,1.4l-2.9,5.1l4.9,2.8l2.5-4.3l2.5,1.4l-2.5,4.3
			L435.4,529z"/>
		<path class="st11" d="M435.5,506.4l-1.8,3.2l-2.3-1.3c-0.3-0.2-0.5-0.2-0.7-0.2c-0.2,0.1-0.3,0.2-0.5,0.5l-0.7,1.3
			c-0.2,0.3-0.2,0.5-0.2,0.7s0.2,0.3,0.5,0.5l11.4,6.5c0.3,0.2,0.5,0.2,0.7,0.2c0.2-0.1,0.3-0.2,0.5-0.5l0.7-1.3
			c0.2-0.3,0.2-0.5,0.2-0.7c0-0.2-0.2-0.3-0.5-0.5l-3.9-2.2L438,514l-2.2-1.3l2.6-4.6l6.5,3.7c1.8,1,2.2,2.6,1,4.6l-1.9,3.2
			c-1.2,2-2.7,2.5-4.5,1.5l-12-6.9c-1.8-1-2.2-2.6-1-4.6l1.9-3.2c1.2-2,2.7-2.5,4.5-1.5L435.5,506.4z"/>
		<path class="st11" d="M452.8,504.3l-1.8,3.2l-5.6-3.2l-14.3-2.8l1.9-3.2l10.4,2.8l-7.7-7.4l1.9-3.2l9.7,10.7L452.8,504.3z"/>
		<path class="st11" d="M446.3,475l2.4,1.4l-1.8,3.1l15.1,8.6l-1.8,3.2l-15.1-8.6l-1.8,3.1l-2.4-1.4L446.3,475z"/>
		<path class="st11" d="M449.2,469.9l1.9-3.4c1.2-2,2.7-2.5,4.5-1.5l12,6.9c1.8,1.1,2.2,2.6,1,4.6l-1.9,3.4c-1.2,2-2.7,2.5-4.5,1.5
			l-12-6.9C448.4,473.4,448.1,471.9,449.2,469.9z M465.4,474.9l-11.1-6.4c-0.3-0.2-0.5-0.2-0.7-0.2s-0.3,0.2-0.5,0.5l-0.8,1.5
			c-0.2,0.3-0.3,0.6-0.2,0.7c0,0.2,0.2,0.3,0.5,0.5l11.1,6.4c0.3,0.2,0.5,0.2,0.7,0.2s0.3-0.2,0.5-0.6l0.8-1.5
			c0.2-0.3,0.2-0.5,0.2-0.7C465.9,475.2,465.7,475,465.4,474.9z"/>
	</g>
</g>
<g>
	<g>
		<path class="st5" d="M515.9,894.7h3.6l-3.6,20.2h-4.7l-2.3-14.2l-2.2,14.2h-4.7l-3.6-20.2h3.8l2.1,16.4l2.7-16.4h3.9l2.6,16.4
			L515.9,894.7z"/>
		<path class="st5" d="M530.1,894.7h3.7v20.2h-3.7v-8.6h-4.2v8.6h-3.7v-20.2h3.7v8.8h4.2V894.7z"/>
		<path class="st5" d="M537.8,894.7h3.7v20.2h-3.7V894.7z"/>
		<path class="st5" d="M554.9,894.7v2.8h-3.6v17.4h-3.7v-17.4h-3.5v-2.8H554.9z"/>
		<path class="st5" d="M561.1,912.1h6.1v2.8h-9.9v-20.2h9.6v2.8h-5.9v5.6h5v2.8h-5V912.1z"/>
		<path class="st5" d="M573.9,912.1h5.4v2.8h-9.1v-20.2h3.7V912.1z"/>
		<path class="st5" d="M581.9,894.7h3.7v20.2h-3.7V894.7z"/>
		<path class="st5" d="M596,911.2v-4.3c0-0.3-0.1-0.6-0.2-0.7c-0.1-0.1-0.4-0.2-0.7-0.2h-2.6c-2.2,0-3.3-1.1-3.3-3.2v-5
			c0-2.1,1.2-3.2,3.5-3.2h3.5c2.3,0,3.5,1.1,3.5,3.2v2.8H596v-2.3c0-0.3-0.1-0.6-0.2-0.7c-0.1-0.1-0.4-0.2-0.7-0.2h-1.2
			c-0.4,0-0.6,0.1-0.7,0.2c-0.1,0.1-0.2,0.3-0.2,0.7v4.1c0,0.3,0.1,0.6,0.2,0.7s0.4,0.2,0.7,0.2h2.5c2.2,0,3.4,1,3.4,3.1v5.3
			c0,2.1-1.2,3.2-3.5,3.2h-3.5c-2.3,0-3.5-1.1-3.5-3.2V909h3.7v2.3c0,0.3,0.1,0.6,0.2,0.7c0.1,0.1,0.4,0.2,0.7,0.2h1.2
			c0.3,0,0.6-0.1,0.7-0.2C596,911.8,596,911.6,596,911.2z"/>
		<path class="st5" d="M612.6,894.7v2.8H609v17.4h-3.7v-17.4h-3.5v-2.8H612.6z"/>
		<path class="st5" d="M621.5,911.2v-4.3c0-0.3-0.1-0.6-0.2-0.7c-0.1-0.1-0.4-0.2-0.7-0.2H618c-2.2,0-3.3-1.1-3.3-3.2v-5
			c0-2.1,1.2-3.2,3.5-3.2h3.5c2.3,0,3.5,1.1,3.5,3.2v2.8h-3.7v-2.3c0-0.3-0.1-0.6-0.2-0.7c-0.1-0.1-0.4-0.2-0.7-0.2h-1.2
			c-0.4,0-0.6,0.1-0.7,0.2c-0.1,0.1-0.2,0.3-0.2,0.7v4.1c0,0.3,0.1,0.6,0.2,0.7s0.4,0.2,0.7,0.2h2.5c2.2,0,3.4,1,3.4,3.1v5.3
			c0,2.1-1.2,3.2-3.5,3.2h-3.5c-2.3,0-3.5-1.1-3.5-3.2V909h3.7v2.3c0,0.3,0.1,0.6,0.2,0.7c0.1,0.1,0.4,0.2,0.7,0.2h1.2
			c0.3,0,0.6-0.1,0.7-0.2C621.4,911.8,621.5,911.6,621.5,911.2z"/>
		<path class="st5" d="M634.6,894.7h7.4c2.3,0,3.5,1.1,3.5,3.2v6.4c0,2.1-1.2,3.2-3.5,3.2h-3.7v7.4h-3.7V894.7z M641.8,903.8v-5.4
			c0-0.3-0.1-0.6-0.2-0.7c-0.1-0.1-0.4-0.2-0.7-0.2h-2.7v7.1h2.7c0.3,0,0.6-0.1,0.7-0.2S641.8,904.2,641.8,903.8z"/>
		<path class="st5" d="M652.3,907v7.9h-3.7v-20.2h7.4c2.3,0,3.5,1.1,3.5,3.2v6c0,1.8-0.8,2.8-2.3,3.1l3.4,8h-4l-3.1-7.9H652.3z
			 M652.3,897.5v6.8h2.7c0.3,0,0.6-0.1,0.7-0.2s0.2-0.3,0.2-0.7v-5.1c0-0.3-0.1-0.6-0.2-0.7c-0.1-0.1-0.4-0.2-0.7-0.2H652.3z"/>
		<path class="st5" d="M666.6,894.7h3.9c2.3,0,3.5,1.1,3.5,3.2v13.9c0,2.1-1.2,3.2-3.5,3.2h-3.9c-2.3,0-3.5-1.1-3.5-3.2v-13.9
			C663.1,895.8,664.2,894.7,666.6,894.7z M670.3,911.2v-12.8c0-0.3-0.1-0.6-0.2-0.7c-0.1-0.1-0.4-0.2-0.7-0.2h-1.7
			c-0.4,0-0.6,0.1-0.7,0.2c-0.1,0.1-0.2,0.3-0.2,0.7v12.8c0,0.3,0.1,0.6,0.2,0.7c0.1,0.1,0.4,0.2,0.7,0.2h1.7c0.3,0,0.6-0.1,0.7-0.2
			C670.2,911.8,670.3,911.6,670.3,911.2z"/>
		<path class="st5" d="M676.6,907.8h3.7v3.4c0,0.3,0.1,0.6,0.2,0.7c0.1,0.1,0.4,0.2,0.7,0.2h0.8c0.3,0,0.6-0.1,0.7-0.2
			c0.1-0.1,0.2-0.3,0.2-0.7v-16.5h3.7v17c0,2.1-1.2,3.2-3.5,3.2h-3c-2.3,0-3.5-1.1-3.5-3.2V907.8z"/>
		<path class="st5" d="M694.1,912.1h6.1v2.8h-9.9v-20.2h9.6v2.8h-5.9v5.6h5v2.8h-5V912.1z"/>
		<path class="st5" d="M713.7,901.4H710v-3.1c0-0.3-0.1-0.6-0.2-0.7s-0.4-0.2-0.7-0.2h-1.5c-0.3,0-0.6,0.1-0.7,0.2
			c-0.1,0.1-0.2,0.3-0.2,0.7v13.1c0,0.3,0.1,0.6,0.2,0.7c0.1,0.1,0.4,0.2,0.7,0.2h1.5c0.3,0,0.6-0.1,0.7-0.2s0.2-0.3,0.2-0.7v-3.1
			h3.7v3.5c0,2.1-1.2,3.2-3.5,3.2h-3.7c-2.3,0-3.5-1.1-3.5-3.2v-13.9c0-2.1,1.2-3.2,3.5-3.2h3.7c2.3,0,3.5,1.1,3.5,3.2V901.4z"/>
		<path class="st5" d="M726.5,894.7v2.8h-3.6v17.4h-3.7v-17.4h-3.5v-2.8H726.5z"/>
		<path class="st5" d="M509,941.9h-3.3v-20.2h4l3.4,12l3.4-12h4v20.2h-3.2v-14.2l-2.7,9.8h-3l-2.7-9.8V941.9z"/>
		<path class="st5" d="M532.8,941.9l-0.8-4.2h-4.4l-0.7,4.2h-3.7l4.1-20.2h5l4.3,20.2H532.8z M528.1,934.9h3.4l-1.8-9.7L528.1,934.9
			z"/>
		<path class="st5" d="M546.9,921.7h3.4v20.2h-3.5l-4.3-13.4v13.4h-3.4v-20.2h3.6l4.3,13.2V921.7z"/>
		<path class="st5" d="M562.5,941.9l-0.8-4.2h-4.4l-0.7,4.2h-3.7l4.1-20.2h5l4.3,20.2H562.5z M557.8,934.9h3.4l-1.8-9.7L557.8,934.9
			z"/>
		<path class="st5" d="M579.3,927.9h-3.7v-2.7c0-0.3-0.1-0.6-0.2-0.7s-0.4-0.2-0.7-0.2h-1.5c-0.3,0-0.6,0.1-0.7,0.2
			c-0.1,0.1-0.2,0.3-0.2,0.7v13.1c0,0.3,0.1,0.6,0.2,0.7c0.1,0.1,0.4,0.2,0.7,0.2h1.5c0.3,0,0.6-0.1,0.7-0.2s0.2-0.3,0.2-0.7v-4.5
			H574v-2.6h5.3v7.5c0,2.1-1.2,3.2-3.5,3.2h-3.7c-2.3,0-3.5-1.1-3.5-3.2v-13.9c0-2.1,1.2-3.2,3.5-3.2h3.7c2.3,0,3.5,1.1,3.5,3.2
			V927.9z"/>
		<path class="st5" d="M586.6,939.1h6.1v2.8h-9.9v-20.2h9.6v2.8h-5.9v5.6h5v2.8h-5V939.1z"/>
		<path class="st5" d="M595.8,921.7h7.7c2.3,0,3.5,1.1,3.5,3.2v13.9c0,2.1-1.2,3.2-3.5,3.2h-7.7V921.7z M603.3,938.4v-13.1
			c0-0.3-0.1-0.6-0.2-0.7s-0.4-0.2-0.7-0.2h-2.9v14.8h2.9c0.3,0,0.6-0.1,0.7-0.2C603.2,938.9,603.3,938.7,603.3,938.4z"/>
		<path class="st5" d="M616.7,921.7h7.7c2.3,0,3.5,1.1,3.5,3.2v4.4c0,1.3-0.4,2.2-1.3,2.5c0.9,0.3,1.3,1.1,1.3,2.3v4.7
			c0,2.1-1.2,3.2-3.5,3.2h-7.7V921.7z M624.2,929.5v-4.2c0-0.3-0.1-0.6-0.2-0.7c-0.1-0.1-0.4-0.2-0.7-0.2h-2.9v6h2.9
			c0.4,0,0.6-0.1,0.7-0.2C624.1,930.1,624.2,929.8,624.2,929.5z M624.2,938.4v-4.4c0-0.3-0.1-0.6-0.2-0.7c-0.1-0.1-0.4-0.2-0.7-0.2
			h-2.9v6.2h2.9c0.4,0,0.6-0.1,0.7-0.2C624.1,938.9,624.2,938.7,624.2,938.4z"/>
		<path class="st5" d="M638.5,941.9h-3.7v-6.4l-4.7-13.8h3.7l2.8,10.4l2.6-10.4h3.7l-4.4,13.7V941.9z"/>
	</g>
</g>
<g>
	<g>
		<path class="st18" d="M489.3,805.5h7.7c2.3,0,3.5,1.1,3.5,3.2v13.9c0,2.1-1.2,3.2-3.5,3.2h-7.7V805.5z M496.7,822.2v-13.1
			c0-0.3-0.1-0.6-0.2-0.7s-0.4-0.2-0.7-0.2H493v14.8h2.9c0.3,0,0.6-0.1,0.7-0.2C496.7,822.8,496.7,822.5,496.7,822.2z"/>
		<path class="st18" d="M507.9,822.9h6.1v2.8h-9.9v-20.2h9.6v2.8h-5.9v5.6h5v2.8h-5V822.9z"/>
		<path class="st18" d="M520.2,825.7H517v-20.2h4l3.4,12l3.4-12h4v20.2h-3.2v-14.2l-2.7,9.8h-3l-2.7-9.8V825.7z"/>
		<path class="st18" d="M539.1,805.5h3.9c2.3,0,3.5,1.1,3.5,3.2v13.9c0,2.1-1.2,3.2-3.5,3.2h-3.9c-2.3,0-3.5-1.1-3.5-3.2v-13.9
			C535.6,806.6,536.8,805.5,539.1,805.5z M542.8,822.1v-12.8c0-0.3-0.1-0.6-0.2-0.7c-0.1-0.1-0.4-0.2-0.7-0.2h-1.7
			c-0.4,0-0.6,0.1-0.7,0.2c-0.1,0.1-0.2,0.3-0.2,0.7v12.8c0,0.3,0.1,0.6,0.2,0.7c0.1,0.1,0.4,0.2,0.7,0.2h1.7c0.3,0,0.6-0.1,0.7-0.2
			S542.8,822.4,542.8,822.1z"/>
		<path class="st18" d="M558.1,805.5h3.4v20.2H558l-4.3-13.4v13.4h-3.4v-20.2h3.6l4.3,13.2V805.5z"/>
		<path class="st18" d="M571.7,822.1v-4.3c0-0.3-0.1-0.6-0.2-0.7c-0.1-0.1-0.4-0.2-0.7-0.2h-2.6c-2.2,0-3.3-1.1-3.3-3.2v-5
			c0-2.1,1.2-3.2,3.5-3.2h3.5c2.3,0,3.5,1.1,3.5,3.2v2.8h-3.7v-2.3c0-0.3-0.1-0.6-0.2-0.7c-0.1-0.1-0.4-0.2-0.7-0.2h-1.2
			c-0.4,0-0.6,0.1-0.7,0.2c-0.1,0.1-0.2,0.3-0.2,0.7v4.1c0,0.3,0.1,0.6,0.2,0.7s0.4,0.2,0.7,0.2h2.5c2.2,0,3.4,1,3.4,3.1v5.3
			c0,2.1-1.2,3.2-3.5,3.2h-3.5c-2.3,0-3.5-1.1-3.5-3.2v-2.8h3.7v2.3c0,0.3,0.1,0.6,0.2,0.7s0.4,0.2,0.7,0.2h1.2
			c0.3,0,0.6-0.1,0.7-0.2S571.7,822.4,571.7,822.1z"/>
		<path class="st18" d="M588.3,805.5v2.8h-3.6v17.4H581v-17.4h-3.5v-2.8H588.3z"/>
		<path class="st18" d="M594.4,817.9v7.9h-3.7v-20.2h7.4c2.3,0,3.5,1.1,3.5,3.2v6c0,1.8-0.8,2.8-2.3,3.1l3.4,8h-4l-3.1-7.9H594.4z
			 M594.4,808.4v6.8h2.7c0.3,0,0.6-0.1,0.7-0.2s0.2-0.3,0.2-0.7v-5.1c0-0.3-0.1-0.6-0.2-0.7c-0.1-0.1-0.4-0.2-0.7-0.2H594.4z"/>
		<path class="st18" d="M613.6,825.7l-0.8-4.2h-4.4l-0.7,4.2H604l4.1-20.2h5l4.3,20.2H613.6z M608.9,818.8h3.4l-1.8-9.7L608.9,818.8
			z"/>
		<path class="st18" d="M629.3,805.5v2.8h-3.6v17.4h-3.7v-17.4h-3.5v-2.8H629.3z"/>
		<path class="st18" d="M635.5,822.9h6.1v2.8h-9.9v-20.2h9.6v2.8h-5.9v5.6h5v2.8h-5V822.9z"/>
		<path class="st18" d="M658.2,805.5h3.8l-4,20.2h-4.8l-4-20.2h3.8l2.6,16.3L658.2,805.5z"/>
		<path class="st18" d="M672.8,825.7l-0.8-4.2h-4.4l-0.7,4.2h-3.7l4.1-20.2h5l4.3,20.2H672.8z M668.1,818.8h3.4l-1.8-9.7
			L668.1,818.8z"/>
		<path class="st18" d="M682.8,822.9h5.4v2.8h-9.1v-20.2h3.7V822.9z"/>
		<path class="st18" d="M697.8,805.5h3.7v17c0,2.1-1.2,3.2-3.5,3.2h-3.9c-2.3,0-3.5-1.1-3.5-3.2v-17h3.7v16.5c0,0.3,0.1,0.6,0.2,0.7
			s0.4,0.2,0.7,0.2h1.7c0.4,0,0.6-0.1,0.7-0.2s0.2-0.3,0.2-0.7V805.5z"/>
		<path class="st18" d="M709,822.9h6.1v2.8h-9.9v-20.2h9.6v2.8H709v5.6h5v2.8h-5V822.9z"/>
		<path class="st18" d="M733.4,805.5v2.8h-3.6v17.4h-3.7v-17.4h-3.5v-2.8H733.4z"/>
		<path class="st18" d="M739.2,805.5h3.9c2.3,0,3.5,1.1,3.5,3.2v13.9c0,2.1-1.2,3.2-3.5,3.2h-3.9c-2.3,0-3.5-1.1-3.5-3.2v-13.9
			C735.7,806.6,736.9,805.5,739.2,805.5z M742.9,822.1v-12.8c0-0.3-0.1-0.6-0.2-0.7c-0.1-0.1-0.4-0.2-0.7-0.2h-1.7
			c-0.4,0-0.6,0.1-0.7,0.2c-0.1,0.1-0.2,0.3-0.2,0.7v12.8c0,0.3,0.1,0.6,0.2,0.7c0.1,0.1,0.4,0.2,0.7,0.2h1.7c0.3,0,0.6-0.1,0.7-0.2
			S742.9,822.4,742.9,822.1z"/>
	</g>
</g>
<g>
	<polygon class="st5" points="750.6,902.7 731.6,935.5 751.5,935.5 770.5,902.7 751.5,870 731.6,870 	"/>
</g>
<g>
	<polygon class="st5" points="552.1,471.9 570.9,504.7 580.9,487.5 562.1,454.7 524.3,454.7 514.3,472 	"/>
</g>
<g>
	<polygon class="st19" points="758.2,416 796,416.1 786,398.8 748.2,398.7 729.4,431.5 739.4,448.8 	"/>
</g>
<g>
	<polygon class="st11" points="316.9,663.5 298,630.7 288.1,648 306.9,680.8 344.7,680.7 354.7,663.4 	"/>
</g>
<g>
	<polygon class="st11" points="809.2,716.4 771.3,716.3 781.3,733.6 819.1,733.7 838,700.9 828,683.6 	"/>
</g>
<g>
	<polygon class="st19" points="465.6,815.3 484.5,782.6 464.6,782.6 445.6,815.3 464.6,848 484.5,848 	"/>
</g>
<g>
	<g>
		<path class="st5" d="M437.8,690.4l-4-1.4l-2.2,3.8l3.3,2.7l-1.8,3.2l-15.5-13.6l2.5-4.3l19.6,6.3L437.8,690.4z M429.4,691.1l1.7-3
			l-9.3-3.3L429.4,691.1z"/>
		<path class="st5" d="M440.3,680.4l2.7-4.7l2.4,1.4l-4.5,7.9l-17.5-10l1.8-3.2L440.3,680.4z"/>
		<path class="st5" d="M446,670.4l2.7-4.7l2.4,1.4l-4.5,7.9l-17.5-10l1.8-3.2L446,670.4z"/>
		<path class="st5" d="M436.5,652.1l1.9-3.4c1.2-2,2.7-2.5,4.5-1.5l12,6.9c1.8,1.1,2.2,2.6,1,4.6l-1.9,3.4c-1.2,2-2.7,2.5-4.5,1.5
			l-12-6.9C435.7,655.6,435.4,654.1,436.5,652.1z M452.7,657.1l-11.1-6.4c-0.3-0.2-0.5-0.2-0.7-0.2c-0.2,0.1-0.3,0.2-0.5,0.5
			l-0.8,1.5c-0.2,0.3-0.3,0.6-0.2,0.7c0,0.2,0.2,0.3,0.5,0.5l11.1,6.4c0.3,0.2,0.5,0.2,0.7,0.2s0.3-0.2,0.5-0.6l0.8-1.5
			c0.2-0.3,0.2-0.5,0.2-0.7C453.1,657.4,453,657.2,452.7,657.1z"/>
		<path class="st5" d="M453.1,636.6l-1.8,3.2l-2.7-1.6c-0.3-0.2-0.5-0.2-0.7-0.2c-0.2,0.1-0.3,0.2-0.5,0.5l-0.7,1.3
			c-0.2,0.3-0.2,0.5-0.2,0.7c0,0.2,0.2,0.3,0.5,0.5l11.4,6.5c0.3,0.2,0.5,0.2,0.7,0.2c0.2-0.1,0.3-0.2,0.5-0.5l0.7-1.3
			c0.2-0.3,0.2-0.5,0.2-0.7c0-0.2-0.2-0.3-0.5-0.5l-2.7-1.5l1.8-3.2l3,1.7c1.8,1.1,2.2,2.6,1,4.6l-1.9,3.2c-1.2,2-2.7,2.5-4.5,1.5
			l-12-6.9c-1.8-1-2.2-2.6-1-4.6l1.9-3.2c1.2-2,2.7-2.5,4.5-1.5L453.1,636.6z"/>
		<path class="st5" d="M470.6,633.1l-4-1.4l-2.2,3.8l3.3,2.7l-1.8,3.2l-15.5-13.6l2.5-4.3l19.6,6.3L470.6,633.1z M462.2,633.8l1.7-3
			l-9.3-3.3L462.2,633.8z"/>
		<path class="st5" d="M460.9,609.5l2.4,1.4l-1.8,3.1l15.1,8.6l-1.8,3.2l-15.1-8.6l-1.8,3.1l-2.4-1.4L460.9,609.5z"/>
		<path class="st5" d="M479.1,612.8l3.1-5.3l2.4,1.4l-4.9,8.6l-17.5-10l4.8-8.3l2.4,1.4l-2.9,5.1l4.9,2.8l2.5-4.3l2.5,1.4l-2.5,4.3
			L479.1,612.8z"/>
		<path class="st5" d="M482.5,585.3l-1.8,3.2l-2.7-1.6c-0.3-0.2-0.5-0.2-0.7-0.2c-0.2,0.1-0.3,0.2-0.5,0.5l-0.7,1.3
			c-0.2,0.3-0.2,0.5-0.2,0.7c0,0.2,0.2,0.3,0.5,0.5l11.4,6.5c0.3,0.2,0.5,0.2,0.7,0.2c0.2-0.1,0.3-0.2,0.5-0.5l0.7-1.3
			c0.2-0.3,0.2-0.5,0.2-0.7s-0.2-0.3-0.5-0.5l-2.7-1.5l1.8-3.2l3,1.7c1.8,1,2.2,2.6,1,4.6l-1.9,3.2c-1.2,2-2.7,2.5-4.5,1.5l-12-6.9
			c-1.8-1-2.2-2.6-1-4.6l1.9-3.2c1.2-2,2.7-2.5,4.5-1.5L482.5,585.3z"/>
		<path class="st5" d="M500,581.8l-4-1.4l-2.2,3.8l3.3,2.7l-1.8,3.2l-15.5-13.6l2.5-4.3l19.6,6.3L500,581.8z M491.7,582.4l1.7-3
			l-9.3-3.3L491.7,582.4z"/>
		<path class="st5" d="M485.7,566.3l3.7-6.4c1.2-2,2.7-2.5,4.5-1.5l5.6,3.2c1.8,1.1,2.2,2.6,1,4.6l-1.9,3.2l6.4,3.7l-1.8,3.2
			L485.7,566.3z M497.1,564.6l-4.7-2.7c-0.3-0.2-0.5-0.2-0.7-0.2s-0.3,0.2-0.5,0.5l-1.3,2.3l6.2,3.5l1.3-2.3
			c0.2-0.3,0.2-0.5,0.2-0.7C497.6,564.9,497.4,564.7,497.1,564.6z"/>
		<path class="st5" d="M492.8,553.9l1.8-3.2l17.5,10l-1.8,3.2L492.8,553.9z"/>
		<path class="st5" d="M501.3,539.1l2.4,1.4l-1.8,3.1l15.1,8.6l-1.8,3.2l-15.1-8.6l-1.8,3.1l-2.4-1.4L501.3,539.1z"/>
		<path class="st5" d="M524.2,539.8l-4-1.4l-2.2,3.8l3.3,2.7l-1.8,3.2l-15.5-13.6l2.5-4.3l19.6,6.3L524.2,539.8z M515.8,540.4l1.7-3
			l-9.3-3.3L515.8,540.4z"/>
		<path class="st5" d="M526.7,529.7l2.7-4.7l2.4,1.4l-4.5,7.9l-17.5-10l1.8-3.2L526.7,529.7z"/>
		<path class="st5" d="M523.1,501l2.4,1.4l-1.8,3.1l15.1,8.6l-1.8,3.2l-15.1-8.6l-1.8,3.1l-2.4-1.4L523.1,501z"/>
		<path class="st5" d="M526,495.9l1.9-3.4c1.2-2,2.7-2.5,4.5-1.5l12,6.9c1.8,1,2.2,2.6,1,4.6l-1.9,3.4c-1.2,2-2.7,2.5-4.5,1.5
			l-12-6.9C525.2,499.5,524.9,497.9,526,495.9z M542.2,500.9l-11.1-6.4c-0.3-0.2-0.5-0.2-0.7-0.2c-0.2,0.1-0.3,0.2-0.5,0.5l-0.8,1.5
			c-0.2,0.3-0.3,0.6-0.2,0.7c0,0.2,0.2,0.3,0.5,0.5l11.1,6.4c0.3,0.2,0.5,0.2,0.7,0.2c0.2-0.1,0.3-0.2,0.5-0.6l0.8-1.5
			c0.2-0.3,0.2-0.5,0.2-0.7C542.6,501.2,542.5,501.1,542.2,500.9z"/>
	</g>
</g>
</svg>
