<svg enable-background="new 0 0 40.4 41" viewBox="0 0 40.4 41" xmlns="http://www.w3.org/2000/svg"><path clip-rule="evenodd" d="m35.1 24.5c-.7.5-1.6.5-2.2.1-.8-.5-1.3-1.5-1.3-3v-4.5c0-2.2-.9-3.7-2.3-4.1-2.4-.7-4.2 2.3-4.9 3.4l-4.3 6.9v-8.5c0-1.9-.7-3.1-1.9-3.5-.8-.2-2-.1-3.1 1.6l-9.5 15.5c-1.3-2.4-1.9-5.1-1.9-7.9 0-9.2 7.4-16.8 16.5-16.8s16.5 7.5 16.5 16.8c.1 1.9-.5 3.3-1.6 4zm5.3-4c-.1-11.4-9.1-20.5-20.2-20.5s-20.2 9.2-20.2 20.5 9.1 20.5 20.2 20.5c5.1 0 10-1.9 13.7-5.5.7-.7.8-1.9.1-2.6s-1.8-.8-2.6-.1c-3 2.9-7.1 4.5-11.2 4.5-4.9 0-9.3-2.2-12.3-5.6l8.6-13.8v6.4c0 3.1 1.2 4.1 2.2 4.3 1 .3 2.5.1 4.1-2.5l4.7-7.7c.2-.2.3-.5.4-.6v3.9c0 2.9 1.1 5.2 3.1 6.3 1.8 1 4.1.9 5.9-.2 2.4-1.6 3.6-4.2 3.5-7.3z" fill="#ffee07" fill-rule="evenodd"/></svg>