<?xml version="1.0" encoding="utf-8"?>
<!-- Generator: Adobe Illustrator 23.0.1, SVG Export Plug-In . SVG Version: 6.00 Build 0)  -->
<svg version="1.1" xmlns="http://www.w3.org/2000/svg" xmlns:xlink="http://www.w3.org/1999/xlink" x="0px" y="0px"
	 viewBox="0 0 1200 1200" style="enable-background:new 0 0 1200 1200;" xml:space="preserve">
<style type="text/css">
	.st0{opacity:0.33;fill-rule:evenodd;clip-rule:evenodd;}
	.st1{opacity:0.2;fill:#FFFFFF;}
	.st2{opacity:0.5;}
	.st3{fill:#FFFFFF;}
	.st4{fill:#FA6633;}
	.st5{fill:#FFF417;}
	.st6{fill-rule:evenodd;clip-rule:evenodd;}
	.st7{fill:#FFF300;}
	.st8{fill:none;stroke:#FFF417;stroke-width:3.2121;stroke-linecap:round;stroke-linejoin:round;stroke-miterlimit:10;}
	.st9{fill:none;stroke:#FFF417;stroke-width:2.5019;stroke-linecap:round;stroke-linejoin:round;stroke-miterlimit:10;}
	.st10{fill:#70EEEE;}
	.st11{stroke:#FA6633;stroke-width:3.4842;stroke-linecap:round;stroke-linejoin:round;}
	.st12{fill:none;stroke:#FA6633;stroke-width:3.4842;stroke-linecap:round;stroke-linejoin:round;}
	.st13{stroke:#FA6633;stroke-width:3.3864;stroke-linecap:round;stroke-linejoin:round;}
	.st14{stroke:#FA6633;stroke-width:2.7449;stroke-linecap:round;stroke-linejoin:round;}
	.st15{stroke:#70EEEE;stroke-width:3.4842;stroke-miterlimit:10;}
	.st16{fill:none;stroke:#70EEEE;stroke-width:3.4842;stroke-miterlimit:10;}
	.st17{stroke:#70EEEE;stroke-width:0.2624;stroke-miterlimit:10;}
	.st18{fill:#FB8C66;}
	.st19{opacity:0.25;}
</style>
<g id="Layer_1">
	<g>
		<g>
			<circle class="st0" cx="608.4" cy="656" r="518.6"/>
			<path class="st1" d="M608.4,200.5c-251.2,0-455.6,204.4-455.6,455.6s204.4,455.6,455.6,455.6S1064,907.3,1064,656
				S859.6,200.5,608.4,200.5z M608.4,1057.6c-160.5,0-299.3-94.7-363.5-231.1c56.2,0.1,237.6,0.1,237.6,0.1c19.6,0,29.4,0,38-2.4
				c9.6-2.9,18.3-7.9,25.6-14.8c6.7-6.4,11.5-14.8,21-31.4l0.3-0.5l107.9-190.7c9.6-16.7,14.3-25.2,16.4-34c2.3-9.6,2.3-19.7,0-29.3
				c-2.1-8.8-6.9-17.1-16.3-33.6l-0.2-0.4l-42.2-73.7c-8.7-15.4-13.1-23-18.7-25.9c-6-3.1-13.1-3.1-19.1,0
				c-5.5,2.8-10,10.5-18.7,25.9L456,627.7c-5.9,10.5-17.1,17-29.1,16.9c-45.8,0-160.7,0-219.9,0c6.1-216.1,183.8-390.1,401.4-390.1
				s395.3,174,401.4,390.1H775.3c-17.6,0-26.4,0-31.6,3.4c-2.3,1.5-4.2,3.4-5.7,5.5c-3.8,4.1-7.9,11-14.2,21.9l-59.5,102.1l-0.2,0.3
				c-8.7,15-13,22.6-12.8,28.7c0.4,6.7,3.9,13,9.6,16.6c5.2,3.4,14,3.4,31.6,3.4h279.4C907.6,963,768.9,1057.6,608.4,1057.6z"/>
		</g>
	</g>
	<g class="st2">
		<path class="st3" d="M62.6,112h-6.4l-1.1-7.4h-7.8l-1.1,7.4h-5.9l6.5-40.6h9.3L62.6,112z M48,99.1h6.1l-3-20.5h-0.1L48,99.1z"/>
		<path class="st3" d="M78.1,82.6H78V112h-5.7V71.4h8l6.4,24.3h0.1V71.4h5.7V112H86L78.1,82.6z"/>
		<path class="st3" d="M119.1,81.2c0-6.5,3.4-10.2,9.7-10.2c6.3,0,9.7,3.7,9.7,10.2v21.1c0,6.5-3.4,10.2-9.7,10.2
			c-6.3,0-9.7-3.7-9.7-10.2V81.2z M125.5,102.7c0,2.9,1.3,4,3.3,4c2,0,3.3-1.1,3.3-4V80.8c0-2.9-1.3-4-3.3-4c-2,0-3.3,1.1-3.3,4
			V102.7z"/>
		<path class="st3" d="M168.3,81.4v5.3c0,6.5-3.1,10-9.5,10h-3V112h-6.4V71.4h9.4C165.2,71.4,168.3,75,168.3,81.4z M155.8,77.2V91h3
			c2,0,3.1-0.9,3.1-3.8V81c0-2.9-1.1-3.8-3.1-3.8H155.8z"/>
		<path class="st3" d="M176.2,71.4h19.7v5.8h-6.7V112h-6.4V77.2h-6.7V71.4z"/>
		<path class="st3" d="M205.5,71.4h6.4V112h-6.4V71.4z"/>
		<path class="st3" d="M236.8,100.2h0.1l4.3-28.8h8.9V112h-6V82.9h-0.1l-4.3,29.1h-6l-4.6-28.7h-0.1V112h-5.6V71.4h8.9L236.8,100.2z
			"/>
		<path class="st3" d="M282.1,112h-6.4l-1.1-7.4h-7.8l-1.1,7.4h-5.9l6.5-40.6h9.3L282.1,112z M267.6,99.1h6.1l-3-20.5h-0.1
			L267.6,99.1z"/>
		<path class="st3" d="M291.9,71.4h6.4v34.8h10.5v5.8h-16.9V71.4z"/>
		<path class="st3" d="M318.3,71.4h6.4v34.8h10.5v5.8h-16.9V71.4z"/>
		<path class="st3" d="M347.1,98.6l-8.1-27.1h6.7l4.8,18.5h0.1l4.8-18.5h6.1l-8.1,27.1V112h-6.4V98.6z"/>
		<path class="st3" d="M41.9,127.4H52c6.4,0,9.5,3.5,9.5,10V158c0,6.5-3.1,10-9.5,10H41.9V127.4z M48.3,133.2v29h3.6
			c2,0,3.2-1,3.2-3.9v-21.1c0-2.9-1.2-3.9-3.2-3.9H48.3z"/>
		<path class="st3" d="M75.9,144.5h8.8v5.8h-8.8v11.9h11v5.8H69.5v-40.6h17.4v5.8h-11V144.5z"/>
		<path class="st3" d="M113.2,152.9v5.4c0,6.5-3.2,10.2-9.5,10.2c-6.3,0-9.5-3.7-9.5-10.2v-21.1c0-6.5,3.2-10.2,9.5-10.2
			c6.3,0,9.5,3.7,9.5,10.2v3.9h-6v-4.4c0-2.9-1.3-4-3.3-4c-2,0-3.3,1.1-3.3,4v21.9c0,2.9,1.3,3.9,3.3,3.9c2,0,3.3-1,3.3-3.9v-5.8
			H113.2z"/>
		<path class="st3" d="M127.4,144.5h8.8v5.8h-8.8v11.9h11v5.8H121v-40.6h17.4v5.8h-11V144.5z"/>
		<path class="st3" d="M152,138.6h-0.1V168h-5.7v-40.6h8l6.4,24.3h0.1v-24.3h5.7V168h-6.6L152,138.6z"/>
		<path class="st3" d="M173,127.4h19.7v5.8h-6.7V168h-6.4v-34.8H173V127.4z"/>
		<path class="st3" d="M212.8,168c-0.3-1-0.6-1.7-0.6-5v-6.4c0-3.8-1.3-5.2-4.2-5.2h-2.2V168h-6.4v-40.6h9.6c6.6,0,9.5,3.1,9.5,9.3
			v3.2c0,4.2-1.3,6.8-4.2,8.2v0.1c3.2,1.3,4.2,4.3,4.2,8.6v6.3c0,2,0.1,3.4,0.7,4.9H212.8z M205.8,133.2v12.5h2.5
			c2.4,0,3.8-1,3.8-4.3v-4c0-2.9-1-4.2-3.2-4.2H205.8z"/>
		<path class="st3" d="M247.3,168h-6.4l-1.1-7.4h-7.8l-1.1,7.4h-5.9l6.5-40.6h9.3L247.3,168z M232.7,155.1h6.1l-3-20.5h-0.1
			L232.7,155.1z"/>
		<path class="st3" d="M254.1,127.4h6.4v34.8H271v5.8h-16.9V127.4z"/>
		<path class="st3" d="M277.7,127.4h6.4V168h-6.4V127.4z"/>
		<path class="st3" d="M310.3,127.4v5.7l-12.1,29.1h12.1v5.8h-18.7v-5.7l12.1-29.1h-11.5v-5.8H310.3z"/>
		<path class="st3" d="M324.3,144.5h8.8v5.8h-8.8v11.9h11v5.8h-17.4v-40.6h17.4v5.8h-11V144.5z"/>
		<path class="st3" d="M343.1,127.4h10.1c6.4,0,9.5,3.5,9.5,10V158c0,6.5-3.1,10-9.5,10h-10.1V127.4z M349.5,133.2v29h3.6
			c2,0,3.2-1,3.2-3.9v-21.1c0-2.9-1.2-3.9-3.2-3.9H349.5z"/>
		<path class="st3" d="M62.6,224h-6.4l-1.1-7.4h-7.8l-1.1,7.4h-5.9l6.5-40.6h9.3L62.6,224z M48,211.1h6.1l-3-20.5h-0.1L48,211.1z"/>
		<path class="st3" d="M84.7,224c-0.3-1-0.6-1.7-0.6-5v-6.4c0-3.8-1.3-5.2-4.2-5.2h-2.2V224h-6.4v-40.6H81c6.6,0,9.5,3.1,9.5,9.3
			v3.2c0,4.2-1.3,6.8-4.2,8.2v0.1c3.2,1.3,4.2,4.3,4.2,8.6v6.3c0,2,0.1,3.4,0.7,4.9H84.7z M77.7,189.2v12.5h2.5c2.4,0,3.8-1,3.8-4.3
			v-4c0-2.9-1-4.2-3.2-4.2H77.7z"/>
		<path class="st3" d="M119,208.9v5.4c0,6.5-3.2,10.2-9.5,10.2c-6.3,0-9.5-3.7-9.5-10.2v-21.1c0-6.5,3.2-10.2,9.5-10.2
			c6.3,0,9.5,3.7,9.5,10.2v3.9h-6v-4.4c0-2.9-1.3-4-3.3-4c-2,0-3.3,1.1-3.3,4v21.9c0,2.9,1.3,3.9,3.3,3.9c2,0,3.3-1,3.3-3.9v-5.8
			H119z"/>
		<path class="st3" d="M135,224h-6.4v-40.6h6.4v17.4h7.2v-17.4h6.5V224h-6.5v-17.4H135V224z"/>
		<path class="st3" d="M159.2,183.4h6.4V224h-6.4V183.4z"/>
		<path class="st3" d="M174.2,183.4h19.7v5.8h-6.7V224h-6.4v-34.8h-6.7V183.4z"/>
		<path class="st3" d="M208.9,200.5h8.8v5.8h-8.8v11.9h11v5.8h-17.4v-40.6h17.4v5.8h-11V200.5z"/>
		<path class="st3" d="M248.1,208.9v5.4c0,6.5-3.2,10.2-9.5,10.2c-6.3,0-9.5-3.7-9.5-10.2v-21.1c0-6.5,3.2-10.2,9.5-10.2
			c6.3,0,9.5,3.7,9.5,10.2v3.9h-6v-4.4c0-2.9-1.3-4-3.3-4c-2,0-3.3,1.1-3.3,4v21.9c0,2.9,1.3,3.9,3.3,3.9c2,0,3.3-1,3.3-3.9v-5.8
			H248.1z"/>
		<path class="st3" d="M256,183.4h19.7v5.8H269V224h-6.4v-34.8H256V183.4z"/>
		<path class="st3" d="M290.4,183.4v31.3c0,2.9,1.3,3.9,3.3,3.9c2,0,3.3-1,3.3-3.9v-31.3h6v30.9c0,6.5-3.2,10.2-9.5,10.2
			c-6.3,0-9.5-3.7-9.5-10.2v-30.9H290.4z"/>
		<path class="st3" d="M326.5,224c-0.3-1-0.6-1.7-0.6-5v-6.4c0-3.8-1.3-5.2-4.2-5.2h-2.2V224h-6.4v-40.6h9.6c6.6,0,9.5,3.1,9.5,9.3
			v3.2c0,4.2-1.3,6.8-4.2,8.2v0.1c3.2,1.3,4.2,4.3,4.2,8.6v6.3c0,2,0.1,3.4,0.7,4.9H326.5z M319.5,189.2v12.5h2.5
			c2.4,0,3.8-1,3.8-4.3v-4c0-2.9-1-4.2-3.2-4.2H319.5z"/>
		<path class="st3" d="M348.6,200.5h8.8v5.8h-8.8v11.9h11v5.8h-17.4v-40.6h17.4v5.8h-11V200.5z"/>
	</g>
</g>
<g id="Layer_5">
</g>
<g id="Layer_3">
	<g>
		<path d="M861.8,968.5c-10.3,0-19.6-5.3-24.7-14.3s-5.2-19.6,0-28.6l105-181.8c5.2-8.9,14.4-14.3,24.7-14.3s19.6,5.3,24.7,14.3
			l105,181.8c5.2,8.9,5.2,19.6,0,28.6s-14.4,14.3-24.7,14.3H861.8z"/>
		<path class="st4" d="M966.8,743.9c4.8,0,9.6,2.4,12.3,7.1l105,181.8c5.5,9.5-1.4,21.3-12.3,21.3h-210c-10.9,0-17.8-11.8-12.3-21.3
			l105-181.8C957.2,746.3,962,743.9,966.8,743.9 M966.8,715.2c-15.3,0-29.5,8.2-37.2,21.5l-105,181.8c-7.6,13.2-7.6,29.7,0,42.9
			c7.6,13.2,21.9,21.5,37.2,21.5h210c15.3,0,29.5-8.2,37.2-21.5c7.6-13.2,7.6-29.7,0-42.9l-105-181.8
			C996.3,723.4,982,715.2,966.8,715.2L966.8,715.2z"/>
	</g>
	<g>
		<path d="M145.7,967.3c-10.3,0-19.6-5.3-24.7-14.3s-5.2-19.6,0-28.6l105-181.8c5.2-8.9,14.4-14.3,24.7-14.3
			c10.3,0,19.6,5.3,24.7,14.3l105,181.8c5.2,8.9,5.2,19.6,0,28.6c-5.2,8.9-14.4,14.3-24.7,14.3H145.7z"/>
		<path class="st5" d="M250.6,742.7c4.8,0,9.6,2.4,12.3,7.1l105,181.8c5.5,9.5-1.4,21.3-12.3,21.3h-210c-10.9,0-17.8-11.8-12.3-21.3
			l105-181.8C241.1,745.1,245.9,742.7,250.6,742.7 M250.6,714c-15.3,0-29.5,8.2-37.2,21.5l-105,181.8c-7.6,13.2-7.6,29.7,0,42.9
			c7.6,13.2,21.9,21.5,37.2,21.5h210c15.3,0,29.5-8.2,37.2-21.5c7.6-13.2,7.6-29.7,0-42.9l-105-181.8
			C280.2,722.2,265.9,714,250.6,714L250.6,714z"/>
	</g>
	<g>
		<g>
			<g>
				<g>
					
						<ellipse transform="matrix(0.1602 -0.9871 0.9871 0.1602 -590.1504 927.7097)" class="st6" cx="250.1" cy="810.7" rx="72.5" ry="72.5"/>
					<path class="st5" d="M250.1,739.9c39.1,0,70.8,31.7,70.8,70.8c0,39.1-31.7,70.8-70.8,70.8s-70.8-31.7-70.8-70.8
						C179.4,771.6,211,739.9,250.1,739.9 M250.1,736.4c-40.9,0-74.2,33.3-74.2,74.2s33.3,74.2,74.2,74.2s74.2-33.3,74.2-74.2
						S291.1,736.4,250.1,736.4L250.1,736.4z"/>
				</g>
				<path class="st7" d="M250.1,748.5c-34.3,0-62.2,27.9-62.2,62.2s27.9,62.2,62.2,62.2s62.2-27.9,62.2-62.2
					S284.4,748.5,250.1,748.5z M250.1,865.5c-21.9,0-40.8-12.9-49.6-31.5c7.7,0,32.4,0,32.4,0c2.7,0,4,0,5.2-0.3
					c1.3-0.4,2.5-1.1,3.5-2c0.9-0.9,1.6-2,2.9-4.3l0-0.1l14.7-26c1.3-2.3,2-3.4,2.2-4.6c0.3-1.3,0.3-2.7,0-4
					c-0.3-1.2-0.9-2.3-2.2-4.6l0-0.1l-5.8-10.1c-1.2-2.1-1.8-3.1-2.6-3.5c-0.8-0.4-1.8-0.4-2.6,0c-0.8,0.4-1.4,1.4-2.6,3.5
					l-16.4,28.9c-0.8,1.4-2.3,2.3-4,2.3c-6.2,0-21.9,0-30,0c0.8-29.5,25.1-53.2,54.8-53.2s53.9,23.7,54.8,53.2h-32
					c-2.4,0-3.6,0-4.3,0.5c-0.3,0.2-0.6,0.5-0.8,0.8c-0.5,0.6-1.1,1.5-1.9,3l-8.1,13.9l0,0c-1.2,2-1.8,3.1-1.7,3.9
					c0.1,0.9,0.5,1.8,1.3,2.3c0.7,0.5,1.9,0.5,4.3,0.5h38.1C290.9,852.5,272,865.5,250.1,865.5z"/>
			</g>
		</g>
		<g>
			<g>
				<path d="M225.9,927.6l-8.1-0.8l0,0l0,0l-1.4-0.1c-5.8-0.6-10.3-5.5-10.3-11.4v-2.3c3.1-2.3,5.3-5.9,5.7-10.1
					c2.5-0.6,4.4-5.2,4.4-8.5c0-3.3-1.9-4.1-4.3-4.3v-7.2c0-3-1.2-5.9-3.3-8.1c-2.1-2.1-5.6-5.3-10.1-5.3H191
					c-4.6,0-7.9,3.2-10.1,5.3c-2.1,2.1-3.3,5.1-3.3,8.1v7.2c-2.4,0.1-4.3,1-4.3,4.3c0,3.3,1.9,7.8,4.4,8.5v0h0
					c0.4,4.1,2.5,7.7,5.7,10.1v2.3c0,5.9-4.4,10.8-10.3,11.4l-1.4,0.1l0,0l0,0l-8.1,0.8c-5.8,0.6-10.3,5.5-10.3,11.4v11.1
					c0,1.1,0.4,2.2,1.3,3c0.8,0.8,1.9,1.3,3,1.3h74.3c1.1,0,2.2-0.4,3-1.3c0.8-0.8,1.3-1.9,1.3-3V939
					C236.2,933.1,231.7,928.2,225.9,927.6z"/>
				<path d="M339,927.6l-8.1-0.8l0,0l0,0l-1.4-0.1c-5.8-0.6-10.3-5.5-10.3-11.4v-2.3c3.1-2.3,5.3-5.9,5.7-10.1
					c2.5-0.6,4.4-5.2,4.4-8.5c0-3.3-1.9-4.1-4.3-4.3v-7.2c0-3-1.2-5.9-3.3-8.1c-2.1-2.1-5.6-5.3-10.1-5.3h-7.5
					c-4.6,0-7.9,3.2-10.1,5.3c-2.1,2.1-3.3,5.1-3.3,8.1v7.2c-2.4,0.1-4.3,1-4.3,4.3c0,3.3,1.9,7.8,4.4,8.5v0h0
					c0.4,4.1,2.5,7.7,5.7,10.1v2.3c0,5.9-4.4,10.8-10.3,11.4l-1.4,0.1l0,0l0,0l-8.1,0.8c-5.8,0.6-10.3,5.5-10.3,11.4v11.1
					c0,1.1,0.4,2.2,1.3,3c0.8,0.8,1.9,1.3,3,1.3H345c1.1,0,2.2-0.4,3-1.3c0.8-0.8,1.3-1.9,1.3-3V939
					C349.3,933.1,344.9,928.2,339,927.6z"/>
				<path d="M223.2,921.5h57.9c0.9,0,1.7-0.4,2.4-1c0.6-0.6,1-1.5,1-2.4v-8.7c0-4.6-3.5-8.4-8-8.9l-6.3-0.7l0,0l0,0l-1.1-0.1
					c-4.5-0.5-8-4.3-8-8.9v-1.8H261c2.5-1.8,4.2-4.6,4.5-7.8c1.9-0.5,3.4-4,3.4-6.6c0-2.6-1.5-3.2-3.4-3.3v-5.6
					c0-2.4-0.9-4.6-2.6-6.3c-1.7-1.7-4.4-4.1-7.8-4.1h-5.8c-3.6,0-6.2,2.5-7.8,4.1c-1.7,1.7-2.6,3.9-2.6,6.3v5.6
					c-1.9,0.1-3.4,0.8-3.4,3.3c0,2.6,1.5,6,3.4,6.6v0h0c0.3,3.2,2,6,4.5,7.8h-0.1v1.8c0,4.6-3.5,8.4-8,8.9l-1.1,0.1l0,0l0,0
					l-6.3,0.7c-4.5,0.5-8,4.3-8,8.9v8.7c0,0.9,0.4,1.7,1,2.4C221.5,921.1,222.3,921.5,223.2,921.5z"/>
			</g>
			<g>
				<g id="Page-1_8_">
					<g transform="translate(1.000000, 1.000000)">
						<path id="Shape_8_" class="st8" d="M176.6,889.1v-7.2c0-3,1.2-5.9,3.3-8.1c2.1-2.1,5.5-5.3,10.1-5.3h7.5
							c4.5,0,7.9,3.2,10.1,5.3c2.1,2.1,3.3,5.1,3.3,8.1v7.2"/>
						<path class="st8" d="M176.6,901.8c0.7,7.3,6.9,12.9,14.2,13h5.7c7.4,0,13.5-5.6,14.2-13"/>
						<path class="st8" d="M198,876.8c0,0-9.4,10.8-17.2,10.8s-4.3,7.1-4.3,7.1"/>
						<path class="st8" d="M198,876.8c0,0,2.2,11,10,10.8c5.7-0.1,1.4,7.1,1.4,7.1"/>
						<path class="st8" d="M205.1,911.9v2.3c0,5.9,4.4,10.8,10.3,11.4l9.5,1c5.8,0.6,10.3,5.5,10.3,11.4v11.1c0,1.1-0.4,2.2-1.3,3
							c-0.8,0.8-1.9,1.3-3,1.3h-74.3c-1.1,0-2.2-0.4-3-1.3c-0.8-0.8-1.3-1.9-1.3-3V938c0-5.9,4.4-10.8,10.3-11.4l9.5-1
							c5.8-0.6,10.3-5.5,10.3-11.4v-2.3"/>
						<polyline class="st8" points="208.6,922.4 198,929.1 195.4,933.4 						"/>
						<polyline class="st8" points="192,933.4 189.4,929.1 178.8,922.4 						"/>
						<polyline class="st8" points="170.6,925.8 185.1,939.1 189.4,929.1 						"/>
						<polyline class="st8" points="198,929.1 202.3,939.1 216.8,925.8 						"/>
						<path id="Rectangle-path_3_" class="st8" d="M190.9,933.4h5.7c1.6,0,2.9,1.3,2.9,2.9v2.9c0,1.6-1.3,2.9-2.9,2.9h-5.7
							c-1.6,0-2.9-1.3-2.9-2.9v-2.9C188,934.7,189.3,933.4,190.9,933.4z"/>
						<path class="st8" d="M190.9,942l-4.3,11.4"/>
						<path class="st8" d="M196.6,942l4.3,11.4"/>
						<path class="st8" d="M176.6,889.1c-2.4,0.1-4.3,1-4.3,4.3c0,3.3,1.9,7.8,4.4,8.5"/>
						<path class="st8" d="M210.9,889.1c2.4,0.1,4.3,1,4.3,4.3c0,3.3-1.9,7.8-4.4,8.5"/>
					</g>
				</g>
				<g id="Page-1_4_">
					<g transform="translate(1.000000, 1.000000)">
						<path id="Shape_4_" class="st8" d="M289.7,889.1v-7.2c0-3,1.2-5.9,3.3-8.1c2.1-2.1,5.5-5.3,10.1-5.3h7.5
							c4.5,0,7.9,3.2,10.1,5.3c2.1,2.1,3.3,5.1,3.3,8.1v7.2"/>
						<path class="st8" d="M289.8,901.8c0.7,7.3,6.9,12.9,14.2,13h5.7c7.4,0,13.5-5.6,14.2-13"/>
						<path class="st8" d="M311.1,876.8c0,0-9.4,10.8-17.2,10.8s-4.3,7.1-4.3,7.1"/>
						<path class="st8" d="M311.1,876.8c0,0,2.2,11,10,10.8c5.7-0.1,1.4,7.1,1.4,7.1"/>
						<path class="st8" d="M318.3,911.9v2.3c0,5.9,4.4,10.8,10.3,11.4l9.5,1c5.8,0.6,10.3,5.5,10.3,11.4v11.1c0,1.1-0.4,2.2-1.3,3
							c-0.8,0.8-1.9,1.3-3,1.3h-74.3c-1.1,0-2.2-0.4-3-1.3c-0.8-0.8-1.3-1.9-1.3-3V938c0-5.9,4.4-10.8,10.3-11.4l9.5-1
							c5.8-0.6,10.3-5.5,10.3-11.4v-2.3"/>
						<polyline class="st8" points="321.8,922.4 311.1,929.1 308.6,933.4 						"/>
						<polyline class="st8" points="305.1,933.4 302.6,929.1 291.9,922.4 						"/>
						<polyline class="st8" points="283.7,925.7 298.3,939.1 302.6,929.1 						"/>
						<polyline class="st8" points="311.1,929.1 315.4,939.1 330,925.7 						"/>
						<path id="Rectangle-path_2_" class="st8" d="M304,933.4h5.7c1.6,0,2.9,1.3,2.9,2.9v2.9c0,1.6-1.3,2.9-2.9,2.9H304
							c-1.6,0-2.9-1.3-2.9-2.9v-2.9C301.1,934.6,302.4,933.4,304,933.4z"/>
						<path class="st8" d="M304,941.9l-4.3,11.4"/>
						<path class="st8" d="M309.7,941.9l4.3,11.4"/>
						<path class="st8" d="M289.7,889.1c-2.4,0.1-4.3,1-4.3,4.3c0,3.3,1.9,7.8,4.4,8.5"/>
						<path class="st8" d="M324,889.1c2.4,0.1,4.3,1,4.3,4.3c0,3.3-1.9,7.8-4.4,8.5"/>
					</g>
				</g>
				<g id="Page-1_3_">
					<g transform="translate(1.000000, 1.000000)">
						<path id="Shape_3_" class="st9" d="M237.8,870.4v-5.6c0-2.4,0.9-4.6,2.6-6.3s4.3-4.1,7.8-4.1h5.8c3.5,0,6.2,2.5,7.8,4.1
							c1.7,1.7,2.6,3.9,2.6,6.3v5.6"/>
						<path class="st9" d="M237.8,880.3c0.5,5.7,5.3,10.1,11.1,10.1h4.5c5.7,0,10.5-4.4,11.1-10.1"/>
						<path class="st9" d="M254.5,860.8c0,0-7.3,8.4-13.4,8.4s-3.3,5.6-3.3,5.6"/>
						<path class="st9" d="M254.5,860.8c0,0,1.7,8.5,7.8,8.4c4.5-0.1,1.1,5.6,1.1,5.6"/>
						<path class="st9" d="M260.1,888.2v1.8c0,4.6,3.5,8.4,8,8.9l7.4,0.8c4.5,0.5,8,4.3,8,8.9v8.7c0,0.9-0.4,1.7-1,2.4
							c-0.6,0.6-1.5,1-2.4,1h-57.9c-0.9,0-1.7-0.4-2.4-1s-1-1.5-1-2.4v-8.7c0-4.6,3.5-8.4,8-8.9l7.4-0.8c4.5-0.5,8-4.3,8-8.9v-1.8"
							/>
						<polyline class="st9" points="262.8,896.3 254.5,901.5 252.5,904.9 						"/>
						<polyline class="st9" points="249.8,904.9 247.8,901.5 239.5,896.3 						"/>
						<polyline class="st9" points="233.1,898.9 244.5,909.3 247.8,901.5 						"/>
						<polyline class="st9" points="254.5,901.5 257.8,909.3 269.2,898.9 						"/>
						<path id="Rectangle-path_1_" class="st9" d="M248.9,904.9h4.5c1.2,0,2.2,1,2.2,2.2v2.2c0,1.2-1,2.2-2.2,2.2h-4.5
							c-1.2,0-2.2-1-2.2-2.2v-2.2C246.7,905.9,247.7,904.9,248.9,904.9z"/>
						<path class="st9" d="M248.9,911.5l-3.3,8.9"/>
						<path class="st9" d="M253.4,911.5l3.3,8.9"/>
						<path class="st9" d="M237.8,870.4c-1.9,0.1-3.4,0.8-3.4,3.3c0,2.6,1.5,6.1,3.4,6.6"/>
						<path class="st9" d="M264.5,870.4c1.9,0.1,3.4,0.8,3.4,3.3c0,2.6-1.5,6.1-3.4,6.6"/>
					</g>
				</g>
			</g>
		</g>
	</g>
	<g>
		<path d="M503.2,341.6c-10.3,0-19.6-5.3-24.7-14.3c-5.2-8.9-5.2-19.6,0-28.6l105-181.8c5.2-8.9,14.4-14.3,24.7-14.3
			s19.6,5.3,24.7,14.3l105,181.8c5.2,8.9,5.2,19.6,0,28.6c-5.2,8.9-14.4,14.3-24.7,14.3H503.2z"/>
		<path class="st10" d="M608.2,117c4.8,0,9.6,2.4,12.3,7.1l105,181.8c5.5,9.5-1.4,21.3-12.3,21.3h-210c-10.9,0-17.8-11.8-12.3-21.3
			l105-181.8C598.6,119.4,603.4,117,608.2,117 M608.2,88.3c-15.3,0-29.5,8.2-37.2,21.5l-105,181.8c-7.6,13.2-7.6,29.7,0,42.9
			c7.6,13.2,21.9,21.5,37.2,21.5h210c15.3,0,29.5-8.2,37.2-21.5c7.6-13.2,7.6-29.7,0-42.9l-105-181.8
			C637.7,96.5,623.5,88.3,608.2,88.3L608.2,88.3z"/>
	</g>
	<g>
		<g>
			<path class="st11" d="M968.2,740.4c-0.1,0-0.2,0-0.3,0c-39.2,0-71,31.8-71,71s31.8,71,71,71c0.1,0,0.2,0,0.3,0
				c39.1-0.2,70.6-31.9,70.6-71C1038.8,772.3,1007.2,740.6,968.2,740.4z"/>
			<g id="Page-1_2_">
				<g transform="translate(0.000000, 1.000000)">
					<path id="Shape_2_" class="st12" d="M995.7,810.4c-15.7,15.7-35.2,21.5-43.7,13c-8.5-8.5-2.7-28.1,13-43.7
						c8.3-8.3,21-12.5,30.8-14.1c2.7-0.5,5.4-0.8,8.1-0.8c1.8,0,3.6,0.7,4.9,1.9c1.3,1.3,2,3,1.9,4.9c-0.1,2.7-0.4,5.4-0.8,8.1
						C1008.2,789.3,1004,802.1,995.7,810.4z"/>
					<path class="st12" d="M1009.8,779.6c-3.1-1.5-5.8-3.4-8.2-5.9c-2.4-2.4-4.4-5.1-5.9-8.2c2.7-0.5,5.4-0.8,8.1-0.8
						c1.8,0,3.6,0.7,4.9,1.9c1.3,1.3,2,3,1.9,4.9C1010.6,774.2,1010.3,777,1009.8,779.6z"/>
					<circle id="Oval_2_" class="st12" cx="990.8" cy="785.4" r="6.7"/>
					<circle class="st12" cx="973.2" cy="802.1" r="10.1"/>
					<path class="st12" d="M950.4,801.2l-9.6-2.9c-1.9-0.6-4-0.3-5.7,0.8l-16.5,11.7c-0.6,0.4-0.9,1.1-0.7,1.8
						c0.2,0.7,0.8,1.2,1.5,1.2l15.2-1.3c1.3,0.1,2.5,0.4,3.6,0.9l10.1,4.7l0.5,0.2"/>
					<path class="st12" d="M974.1,824.9l2.9,9.6c0.6,1.9,0.3,4-0.8,5.7l-11.7,16.5c-0.4,0.6-1.1,0.9-1.8,0.7
						c-0.7-0.2-1.2-0.8-1.2-1.5l1.3-15.2c-0.1-1.3-0.4-2.5-0.9-3.6l-4.7-10.1l-0.2-0.5"/>
					<path class="st12" d="M957.1,826.9l-11.9,8.7c-0.4,0.3-0.9,0.5-1.3,0.6c-1.3,0.4-2.8,0-3.7-1c-1-1-1.4-2.4-1-3.7
						c0.1-0.5,0.3-0.9,0.6-1.3l8.7-11.9"/>
					<path class="st12" d="M959.8,833.9l-9.7,20.9c-0.2,0.5-0.8,0.9-1.3,0.9c-0.6,0-1.1-0.3-1.3-0.9l-2.8-6.2
						c-0.2-0.5-0.7-0.8-1.2-0.9s-1,0.2-1.3,0.6l-7.9,8.1c-0.4,0.5-1,0.7-1.6,0.5c-0.6-0.2-1-0.8-1-1.4v-10.9c0-0.8,0-0.8-0.8-0.8
						h-10.9c-1.4,0-2-2.5-0.9-3.3l8.1-7.3c0.4-0.3,0.6-0.8,0.6-1.3c-0.1-0.5-0.4-1-0.9-1.2l-6.2-2.8c-0.5-0.2-0.9-0.8-0.9-1.3
						c0-0.6,0.3-1.1,0.9-1.3l20.9-9.7"/>
				</g>
			</g>
		</g>
		<g>
			<g>
				<path class="st13" d="M911.1,872.5h3c8,0.2,14.5,6.7,14.5,14.8v1.8c1.5-0.7,1.1-0.9,2.5-0.3c3.2,1.4,4.2,6,2.3,10.3
					c-1.5,3.4-2.4,5.7-5.1,5.9c-1.4,8.4-8.3,16.7-17.2,16.7c-9,0-15.8-8.3-17.2-16.7c-2.7-0.1-3.6-2.4-5.1-5.9
					c-1.9-4.4-0.9-9,2.3-10.3c1.4-0.6,1-0.4,2.5,0.3v-1.8c0-8,6.4-14.6,14.5-14.8H911.1z"/>
				<path class="st13" d="M920.6,918.2v2.1c0,5.5,6.1,11,11.7,12.7h0c0.8,0.2,1.5,0.4,2.3,0.5l10,1c6.1,0.7,10.7,5.9,10.7,12v5.9
					c0,2.5-2,3.5-4.5,3.5H873c-2.5,0-4.5-1-4.5-3.5v-5.9c0-6.2,4.6-11.3,10.7-12l8.3-1c0.7-0.1,1.5-0.2,2.2-0.5
					c5.6-1.8,9.5-6.8,10-12.7v-3.6"/>
				<path class="st13" d="M889.8,933c6.4,3.8,13.8,5.7,21.3,5.5c7.5,0.2,14.8-1.7,21.3-5.5h0"/>
			</g>
			<g>
				<path class="st13" d="M1026,873h3c8,0.2,14.5,6.7,14.5,14.8v1.8c1.5-0.7,1.1-0.9,2.5-0.3c3.2,1.4,4.2,6,2.3,10.3
					c-1.5,3.4-2.4,5.7-5.1,5.9c-1.4,8.4-8.3,16.7-17.2,16.7c-9,0-15.8-8.3-17.2-16.7c-2.7-0.1-3.6-2.4-5.1-5.9
					c-1.9-4.4-0.9-9,2.3-10.3c1.4-0.6,1-0.4,2.5,0.3v-1.8c0-8,6.4-14.6,14.5-14.8H1026z"/>
				<path class="st13" d="M1035.6,918.7v2.1c0,5.5,6.1,11,11.7,12.7h0c0.8,0.2,1.5,0.4,2.3,0.5l10,1c6.1,0.7,10.7,5.9,10.7,12v5.9
					c0,2.5-2,3.5-4.5,3.5H988c-2.5,0-4.5-1-4.5-3.5V947c0-6.2,4.6-11.3,10.7-12l8.3-1c0.7-0.1,1.5-0.2,2.2-0.5
					c5.6-1.8,9.5-6.8,10-12.7v-3.6"/>
				<path class="st13" d="M1004.7,933.5c6.4,3.8,13.8,5.7,21.3,5.5c7.5,0.2,14.8-1.7,21.3-5.5h0"/>
			</g>
			<g>
				<path class="st14" d="M968.1,860h2.2c5.9,0.1,10.6,4.9,10.6,10.8v1.3c1.1-0.5,0.8-0.6,1.8-0.2c2.3,1,3.1,4.4,1.7,7.5
					c-1.1,2.5-1.8,4.2-3.7,4.3c-1,6.1-6,12.2-12.6,12.2c-6.5,0-11.5-6.1-12.6-12.2c-2-0.1-2.6-1.8-3.7-4.3c-1.4-3.2-0.6-6.6,1.7-7.5
					c1-0.4,0.7-0.3,1.8,0.2v-1.3c0-5.9,4.7-10.6,10.6-10.8H968.1z"/>
				<path class="st14" d="M975.1,893.4v1.5c0,4,4.4,8,8.5,9.2h0c0.6,0.2,1.1,0.3,1.7,0.4l7.3,0.8c4.5,0.5,7.8,4.3,7.8,8.8v4.3
					c0,1.8-1.5,2.5-3.3,2.5h-56.8c-1.8,0-3.3-0.7-3.3-2.5V914c0-4.5,3.4-8.3,7.8-8.8l6.1-0.8c0.5-0.1,1.1-0.2,1.6-0.3
					c4.1-1.3,7-5,7.3-9.3v-2.6"/>
				<path class="st14" d="M952.5,904.2c4.7,2.8,10.1,4.2,15.5,4c5.4,0.2,10.8-1.2,15.5-4h0"/>
			</g>
		</g>
	</g>
	<g>
		<g>
			<path class="st15" d="M609.7,114c-0.1,0-0.2,0-0.3,0c-39.3,0-71.2,31.9-71.2,71.2s31.9,71.2,71.2,71.2c0.1,0,0.2,0,0.3,0
				c39.2-0.2,70.9-32,70.9-71.2C680.5,145.9,648.8,114.2,609.7,114z"/>
			<g>
				<g>
					<path class="st16" d="M642.5,166.4c0-20.2-17.5-36.4-38.2-34.1c-16.1,1.8-29,15.1-30.3,31.3c-0.9,11.5,3.9,22,11.9,28.8
						c3.3,2.8,5,8.9,5,13.2v11c0,7,5.7,12.8,12.8,12.8h8.5c7,0,12.8-5.7,12.8-12.8v-10.5c0-4.4,1.9-10.6,5.3-13.5
						C637.7,186.4,642.5,177,642.5,166.4z"/>
					<line class="st16" x1="590.9" y1="203.9" x2="624.9" y2="203.9"/>
					<line class="st16" x1="591.2" y1="212.7" x2="625.2" y2="212.7"/>
					<line class="st16" x1="591.2" y1="221.2" x2="625.2" y2="221.2"/>
					<g>
						<path class="st16" d="M603.7,229.9c-1.1,0-2.1-0.2-3.1-0.4c-0.4,0.7-0.6,1.5-0.6,2.3c0,3.5,3.7,6.3,8.3,6.3
							c4.6,0,8.3-2.8,8.3-6.3c0-0.9-0.2-1.7-0.6-2.4c-1.2,0.4-2.4,0.5-3.7,0.5H603.7z"/>
					</g>
				</g>
				<path class="st10" d="M607.9,160.6c1.2,0,2.1-1,2.1-2.1v-6.3c4.8,0.6,8.6,3.2,8.6,6.3c0,1.2,1,2.1,2.1,2.1s2.1-1,2.1-2.1
					c0-5.5-5.5-9.9-12.8-10.6v-2.3c0-1.2-1-2.1-2.1-2.1s-2.1,1-2.1,2.1v2.3c-7.3,0.7-12.8,5.1-12.8,10.6c0,6,6.6,10.7,15,10.7
					c5.8,0,10.7,2.9,10.7,6.4c0,3-3.7,5.7-8.6,6.3v-6.3c0-1.2-1-2.1-2.1-2.1s-2.1,1-2.1,2.1v6.3c-4.8-0.6-8.6-3.2-8.6-6.3
					c0-1.2-1-2.1-2.1-2.1s-2.1,1-2.1,2.1c0,5.5,5.5,9.9,12.8,10.6v2.3c0,1.2,1,2.1,2.1,2.1s2.1-1,2.1-2.1v-2.2
					c7.3-0.7,12.8-5.1,12.8-10.6c0-6-6.6-10.7-15-10.7c-5.8,0-10.7-2.9-10.7-6.4c0-3,3.7-5.7,8.6-6.3v6.3
					C605.7,159.7,606.7,160.6,607.9,160.6z"/>
			</g>
		</g>
		<path class="st17" d="M586.7,311.2c-2.5-3.8-9.7-6.5-17.2-9.4c-1.6-0.6-3.2-1.2-4.8-1.9c-1.4-1.7-3.2-3.3-4.9-4.1
			c-0.2-0.1-0.4-0.1-0.6-0.1l-0.1,0v-6.5c1.3-1.2,4.2-4.6,4.5-10.3c0.8-0.6,1.5-1.8,1.8-3.4c0.5-2.3,0.4-5.3-1.5-7.1
			c0.1-0.3,0.3-0.7,0.4-1.1c1.4-3.4,3.9-9.8,2.9-14.7c-1.1-5.7-9.3-7.9-16-8.1c-6.3-0.1-13.1,1.4-15,5.2c-2.1,0.2-3.8,1-4.9,2.5
			c-3,4-0.8,11.4,0.4,15.3c0.1,0.3,0.2,0.6,0.2,0.8c-1.9,1.7-2.3,4.7-1.7,7.3c0.4,1.5,1,2.6,1.8,3.2c0.3,5.7,3.1,9.1,4.3,10.3v6.6
			c-0.1,0-0.3,0-0.4,0.1c-1.7,0.8-3.4,2.4-4.8,4.1c-1.5,0.6-3.1,1.2-4.6,1.8c-7.6,2.9-14.8,5.6-17.3,9.5c-3.8,5.6-4,16.6-4,17.1
			c0,0.4,0.1,0.7,0.4,1c0.3,0.3,0.6,0.4,1,0.4h31.8h9.4h8.5h32.6c0.8,0,1.4-0.6,1.4-1.4C590.3,327.9,590.5,316.9,586.7,311.2z"/>
		<path class="st17" d="M641.1,283.5c-2.2-3.2-8.3-5.6-14.8-8.1c-1.4-0.5-2.8-1.1-4.2-1.6c-1.2-1.5-2.7-2.8-4.2-3.5
			c-0.2-0.1-0.3-0.1-0.5-0.1l-0.1,0v-5.6c1.1-1,3.6-3.9,3.8-8.8c0.7-0.5,1.3-1.5,1.6-2.9c0.5-2,0.3-4.6-1.3-6.1
			c0.1-0.3,0.2-0.6,0.4-0.9c1.2-2.9,3.4-8.4,2.5-12.7c-1-4.9-8-6.8-13.7-6.9c-5.4-0.1-11.2,1.2-12.9,4.5c-1.8,0.2-3.2,0.9-4.2,2.2
			c-2.6,3.5-0.7,9.8,0.4,13.2c0.1,0.2,0.1,0.5,0.2,0.7c-1.7,1.4-1.9,4-1.4,6.2c0.3,1.3,0.8,2.3,1.5,2.8c0.2,4.9,2.6,7.8,3.7,8.8v5.6
			c-0.1,0-0.3,0-0.4,0.1c-1.5,0.7-2.9,2-4.1,3.5c-1.3,0.5-2.7,1-4,1.5c-6.5,2.5-12.7,4.8-14.9,8.1c-3.2,4.9-3.5,14.3-3.5,14.7
			c0,0.3,0.1,0.6,0.3,0.9c0.2,0.2,0.5,0.4,0.9,0.4h27.3h8.1h7.3H643c0.7,0,1.2-0.5,1.2-1.2C644.2,297.8,644.4,288.3,641.1,283.5z"/>
		<path class="st17" d="M704.2,313.1c-2.5-3.8-9.7-6.5-17.2-9.4c-1.6-0.6-3.2-1.2-4.8-1.9c-1.4-1.7-3.2-3.3-4.9-4.1
			c-0.2-0.1-0.4-0.1-0.6-0.1l-0.1,0v-6.5c1.3-1.2,4.2-4.6,4.5-10.3c0.8-0.6,1.5-1.8,1.8-3.4c0.5-2.3,0.4-5.3-1.5-7.1
			c0.1-0.3,0.3-0.7,0.4-1.1c1.4-3.4,3.9-9.8,2.9-14.7c-1.1-5.7-9.3-7.9-16-8.1c-6.3-0.1-13.1,1.4-15,5.2c-2.1,0.2-3.8,1-4.9,2.5
			c-3,4-0.8,11.4,0.4,15.3c0.1,0.3,0.2,0.6,0.2,0.8c-1.9,1.7-2.3,4.7-1.7,7.3c0.4,1.5,1,2.6,1.8,3.2c0.3,5.7,3.1,9.1,4.3,10.3v6.6
			c-0.1,0-0.3,0-0.4,0.1c-1.7,0.8-3.4,2.4-4.8,4.1c-1.5,0.6-3.1,1.2-4.6,1.8c-7.6,2.9-14.8,5.6-17.3,9.5c-3.8,5.6-4,16.6-4,17.1
			c0,0.4,0.1,0.7,0.4,1c0.3,0.3,0.6,0.4,1,0.4h31.8h9.4h8.5h32.6c0.8,0,1.4-0.6,1.4-1.4C707.9,329.8,708,318.8,704.2,313.1z"/>
		<path class="st10" d="M586.7,311.2c-2.5-3.8-9.7-6.5-17.2-9.4c-1.6-0.6-3.2-1.2-4.8-1.9c-1.4-1.7-3.2-3.3-4.9-4.1
			c-0.2-0.1-0.4-0.1-0.6-0.1l-0.1,0v-6.5c1.3-1.2,4.2-4.6,4.5-10.3c0.8-0.6,1.5-1.8,1.8-3.4c0.5-2.3,0.4-5.3-1.5-7.1
			c0.1-0.3,0.3-0.7,0.4-1.1c1.4-3.4,3.9-9.8,2.9-14.7c-1.1-5.7-9.3-7.9-16-8.1c-6.3-0.1-13.1,1.4-15,5.2c-2.1,0.2-3.8,1-4.9,2.5
			c-3,4-0.8,11.4,0.4,15.3c0.1,0.3,0.2,0.6,0.2,0.8c-1.9,1.7-2.3,4.7-1.7,7.3c0.4,1.5,1,2.6,1.8,3.2c0.3,5.7,3.1,9.1,4.3,10.3v6.6
			c-0.1,0-0.3,0-0.4,0.1c-1.7,0.8-3.4,2.4-4.8,4.1c-1.5,0.6-3.1,1.2-4.6,1.8c-7.6,2.9-14.8,5.6-17.3,9.5c-3.8,5.6-4,16.6-4,17.1
			c0,0.4,0.1,0.7,0.4,1c0.3,0.3,0.6,0.4,1,0.4h31.8h9.4h8.5h32.6c0.8,0,1.4-0.6,1.4-1.4C590.3,327.9,590.5,316.9,586.7,311.2z
			 M564.3,305l2.5,7.4l-14.4-8.5c2.2-0.4,4.5-1.2,6.3-3c0.3-0.3,0.4-0.6,0.4-1v-1.2C561.3,300,563.6,302.8,564.3,305z M547.7,312.7
			c-2.2,0-4.3-2.1-4.3-4.3V307l4.3-2.6l4.3,2.5v1.5C552,310.6,549.9,312.7,547.7,312.7z M534.9,278c0-0.7-0.5-1.3-1.2-1.4
			c-0.4-0.4-1-2.1-0.8-3.9c0.1-0.8,0.4-1.9,1.3-2.4c0.5-0.2,0.8-0.7,0.8-1.3c0-0.4-0.1-0.9-0.6-2.3c-0.9-3-3-9.9-0.9-12.8
			c0.7-0.9,1.9-1.4,3.6-1.4c0.7,0,1.2-0.4,1.4-1.1c0.6-2.4,6.1-4.2,12.6-4.1c5.9,0.1,12.5,2,13.3,5.8c0.8,4.1-1.5,10-2.8,13.1
			c-0.7,1.6-0.9,2.2-0.9,2.7c0,0.5,0.3,1,0.8,1.3c0.9,0.4,1.2,1.5,1.2,2.3c0.2,1.8-0.5,3.5-0.9,3.9c-0.7,0.1-1.2,0.7-1.2,1.4
			c0,6.3-3.8,9.3-3.9,9.4c-0.4,0.3-0.6,0.7-0.6,1.1v8.5v2.2c-2.5,2-6.2,2-8.5,2c-2.3,0-6.1,0-8.5-2v-2.2v-8.5c0-0.4-0.2-0.8-0.5-1.1
			C538.6,287.4,534.9,284.4,534.9,278z M536.4,298.9v1.1c0,0.4,0.1,0.7,0.4,1c1.8,1.8,4.1,2.6,6.3,3l-14.1,8.5l2.5-7.4
			C532.2,302.8,534.3,300.2,536.4,298.9z M511.6,312.8c2-3.1,9.1-5.8,16-8.4c0.4-0.2,0.9-0.3,1.3-0.5c0,0.1-0.1,0.1-0.1,0.2l-3.7,11
			c-0.2,0.6,0,1.2,0.5,1.6c0.3,0.2,0.6,0.3,0.9,0.3c0.3,0,0.5-0.1,0.7-0.2l13.5-8.1c0.1,2.3,1.4,4.5,3.3,5.7
			c-3.5,3.1-5.8,9.6-6.7,12.5h-29.2C508.3,323.8,509,316.6,511.6,312.8z M547.7,326.9h-7.5c1.7-5.2,4.8-11.4,7.5-11.4
			c2.6,0,5.3,6.2,6.7,11.4H547.7z M557.4,326.9c-0.7-3-2.7-9.4-5.9-12.5c1.9-1.3,3.3-3.4,3.4-5.8l13.8,8.2c0.2,0.1,0.5,0.2,0.7,0.2
			c0.3,0,0.6-0.1,0.9-0.3c0.5-0.4,0.6-1,0.5-1.6l-3.6-11c0-0.1-0.1-0.1-0.1-0.2c0.5,0.2,1,0.4,1.5,0.6c6.8,2.6,13.9,5.3,15.9,8.3
			c2.6,3.9,3,11.1,3.1,14.1H557.4z"/>
		<path class="st10" d="M641.1,283.5c-2.2-3.2-8.3-5.6-14.8-8.1c-1.4-0.5-2.8-1.1-4.2-1.6c-1.2-1.5-2.7-2.8-4.2-3.5
			c-0.2-0.1-0.3-0.1-0.5-0.1l-0.1,0v-5.6c1.1-1,3.6-3.9,3.8-8.8c0.7-0.5,1.3-1.5,1.6-2.9c0.5-2,0.3-4.6-1.3-6.1
			c0.1-0.3,0.2-0.6,0.4-0.9c1.2-2.9,3.4-8.4,2.5-12.7c-1-4.9-8-6.8-13.7-6.9c-5.4-0.1-11.2,1.2-12.9,4.5c-1.8,0.2-3.2,0.9-4.2,2.2
			c-2.6,3.5-0.7,9.8,0.4,13.2c0.1,0.2,0.1,0.5,0.2,0.7c-1.7,1.4-1.9,4-1.4,6.2c0.3,1.3,0.8,2.3,1.5,2.8c0.2,4.9,2.6,7.8,3.7,8.8v5.6
			c-0.1,0-0.3,0-0.4,0.1c-1.5,0.7-2.9,2-4.1,3.5c-1.3,0.5-2.7,1-4,1.5c-6.5,2.5-12.7,4.8-14.9,8.1c-3.2,4.9-3.5,14.3-3.5,14.7
			c0,0.3,0.1,0.6,0.3,0.9c0.2,0.2,0.5,0.4,0.9,0.4h27.3h8.1h7.3H643c0.7,0,1.2-0.5,1.2-1.2C644.2,297.8,644.4,288.3,641.1,283.5z
			 M621.9,278.1l2.1,6.4l-12.4-7.3c1.9-0.3,3.8-1,5.4-2.5c0.2-0.2,0.4-0.5,0.4-0.9v-1C619.3,273.9,621.3,276.2,621.9,278.1z
			 M607.7,284.7c-1.9,0-3.7-1.8-3.7-3.7v-1.3l3.7-2.2l3.7,2.2v1.3C611.3,283,609.5,284.7,607.7,284.7z M596.7,254.9
			c0-0.6-0.4-1.1-1-1.2c-0.3-0.4-0.9-1.8-0.7-3.3c0.1-0.7,0.3-1.7,1.1-2.1c0.4-0.2,0.7-0.6,0.7-1.1c0-0.4-0.1-0.8-0.5-2
			c-0.8-2.5-2.6-8.5-0.7-11c0.6-0.8,1.6-1.2,3.1-1.2c0.6,0,1-0.4,1.2-0.9c0.5-2.1,5.3-3.6,10.8-3.5c5,0.1,10.7,1.7,11.4,5
			c0.7,3.5-1.3,8.6-2.4,11.3c-0.6,1.4-0.7,1.9-0.7,2.3c0,0.5,0.3,0.9,0.7,1.1c0.8,0.4,1,1.3,1.1,2c0.1,1.6-0.4,3-0.8,3.4
			c-0.6,0.1-1,0.6-1,1.2c0,5.4-3.2,8-3.4,8.1c-0.3,0.2-0.5,0.6-0.5,1v7.3v1.9c-2.1,1.8-5.3,1.8-7.3,1.8c-2,0-5.2,0-7.3-1.8v-1.9V264
			c0-0.4-0.2-0.7-0.5-1C599.9,263,596.7,260.4,596.7,254.9z M597.9,272.9v0.9c0,0.3,0.1,0.6,0.4,0.9c1.5,1.5,3.5,2.2,5.4,2.5
			l-12.1,7.3l2.1-6.3C594.3,276.3,596.1,274,597.9,272.9z M576.6,284.8c1.8-2.6,7.8-5,13.7-7.2c0.4-0.1,0.8-0.3,1.1-0.4
			c0,0.1-0.1,0.1-0.1,0.2l-3.2,9.5c-0.2,0.5,0,1,0.4,1.3c0.2,0.2,0.5,0.3,0.8,0.3c0.2,0,0.4-0.1,0.6-0.2l11.6-7
			c0.1,2,1.2,3.8,2.8,4.9c-3,2.6-5,8.2-5.7,10.8h-25.1C573.8,294.3,574.4,288.1,576.6,284.8z M607.7,296.9h-6.4
			c1.5-4.5,4.1-9.8,6.4-9.8c2.2,0,4.6,5.3,5.7,9.8H607.7z M615.9,296.9c-0.6-2.5-2.3-8.1-5.1-10.7c1.7-1.1,2.8-2.9,2.9-5l11.9,7
			c0.2,0.1,0.4,0.2,0.6,0.2c0.3,0,0.5-0.1,0.8-0.3c0.4-0.3,0.6-0.9,0.4-1.3l-3.1-9.5c0-0.1-0.1-0.1-0.1-0.2c0.4,0.2,0.9,0.3,1.3,0.5
			c5.9,2.2,11.9,4.5,13.6,7.1c2.2,3.3,2.6,9.5,2.7,12.1H615.9z"/>
		<path class="st10" d="M704.2,313.1c-2.5-3.8-9.7-6.5-17.2-9.4c-1.6-0.6-3.2-1.2-4.8-1.9c-1.4-1.7-3.2-3.3-4.9-4.1
			c-0.2-0.1-0.4-0.1-0.6-0.1l-0.1,0v-6.5c1.3-1.2,4.2-4.6,4.5-10.3c0.8-0.6,1.5-1.8,1.8-3.4c0.5-2.3,0.4-5.3-1.5-7.1
			c0.1-0.3,0.3-0.7,0.4-1.1c1.4-3.4,3.9-9.8,2.9-14.7c-1.1-5.7-9.3-7.9-16-8.1c-6.3-0.1-13.1,1.4-15,5.2c-2.1,0.2-3.8,1-4.9,2.5
			c-3,4-0.8,11.4,0.4,15.3c0.1,0.3,0.2,0.6,0.2,0.8c-1.9,1.7-2.3,4.7-1.7,7.3c0.4,1.5,1,2.6,1.8,3.2c0.3,5.7,3.1,9.1,4.3,10.3v6.6
			c-0.1,0-0.3,0-0.4,0.1c-1.7,0.8-3.4,2.4-4.8,4.1c-1.5,0.6-3.1,1.2-4.6,1.8c-7.6,2.9-14.8,5.6-17.3,9.5c-3.8,5.6-4,16.6-4,17.1
			c0,0.4,0.1,0.7,0.4,1c0.3,0.3,0.6,0.4,1,0.4h31.8h9.4h8.5h32.6c0.8,0,1.4-0.6,1.4-1.4C707.9,329.8,708,318.8,704.2,313.1z
			 M681.9,306.9l2.5,7.4l-14.4-8.5c2.2-0.4,4.5-1.2,6.3-3c0.3-0.3,0.4-0.6,0.4-1v-1.2C678.8,302,681.2,304.7,681.9,306.9z
			 M665.3,314.6c-2.2,0-4.3-2.1-4.3-4.3v-1.5l4.3-2.6l4.3,2.5v1.5C669.5,312.6,667.5,314.6,665.3,314.6z M652.5,279.9
			c0-0.7-0.5-1.3-1.2-1.4c-0.4-0.4-1-2.1-0.8-3.9c0.1-0.8,0.4-1.9,1.3-2.4c0.5-0.2,0.8-0.7,0.8-1.3c0-0.4-0.1-0.9-0.6-2.3
			c-0.9-3-3-9.9-0.9-12.8c0.7-0.9,1.9-1.4,3.6-1.4c0.7,0,1.2-0.4,1.4-1.1c0.6-2.4,6.1-4.2,12.6-4.1c5.9,0.1,12.5,2,13.3,5.8
			c0.8,4.1-1.5,10-2.8,13.1c-0.7,1.6-0.9,2.2-0.9,2.7c0,0.5,0.3,1,0.8,1.3c0.9,0.4,1.2,1.5,1.2,2.3c0.2,1.8-0.5,3.5-0.9,3.9
			c-0.7,0.1-1.2,0.7-1.2,1.4c0,6.3-3.8,9.3-3.9,9.4c-0.4,0.3-0.6,0.7-0.6,1.1v8.5v2.2c-2.5,2-6.2,2-8.5,2c-2.3,0-6.1,0-8.5-2V299
			v-8.5c0-0.4-0.2-0.8-0.5-1.1C656.2,289.4,652.5,286.3,652.5,279.9z M653.9,300.8v1.1c0,0.4,0.1,0.7,0.4,1c1.8,1.8,4.1,2.6,6.3,3
			l-14.1,8.5l2.5-7.4C649.7,304.8,651.9,302.1,653.9,300.8z M629.1,314.7c2-3.1,9.1-5.8,16-8.4c0.4-0.2,0.9-0.3,1.3-0.5
			c0,0.1-0.1,0.1-0.1,0.2l-3.7,11c-0.2,0.6,0,1.2,0.5,1.6c0.3,0.2,0.6,0.3,0.9,0.3c0.3,0,0.5-0.1,0.7-0.2l13.5-8.1
			c0.1,2.3,1.4,4.5,3.3,5.7c-3.5,3.1-5.8,9.6-6.7,12.5h-29.2C625.8,325.7,626.5,318.6,629.1,314.7z M665.3,328.8h-7.5
			c1.7-5.2,4.8-11.4,7.5-11.4c2.6,0,5.3,6.2,6.7,11.4H665.3z M674.9,328.8c-0.7-3-2.7-9.4-5.9-12.5c1.9-1.3,3.3-3.4,3.4-5.8
			l13.8,8.2c0.2,0.1,0.5,0.2,0.7,0.2c0.3,0,0.6-0.1,0.9-0.3c0.5-0.4,0.6-1,0.5-1.6l-3.6-11c0-0.1-0.1-0.1-0.1-0.2
			c0.5,0.2,1,0.4,1.5,0.6c6.8,2.6,13.9,5.3,15.9,8.3c2.6,3.9,3,11.1,3.1,14.1H674.9z"/>
	</g>
</g>
<g id="Layer_2">
	<g>
		<g>
			<path class="st3" d="M916,1003.5h13.5c4.2,0,6.3,1.9,6.3,5.7v11.7c0,3.8-2.1,5.7-6.3,5.7h-6.8v13.5H916V1003.5z M929.1,1020v-9.8
				c0-0.6-0.1-1-0.3-1.2c-0.2-0.2-0.7-0.3-1.3-0.3h-4.8v12.9h4.8c0.6,0,1-0.1,1.3-0.3C929,1021,929.1,1020.6,929.1,1020z"/>
			<path class="st3" d="M948.2,1025.8v14.3h-6.7v-36.6H955c4.2,0,6.3,1.9,6.3,5.7v10.8c0,3.2-1.4,5-4.2,5.6l6.1,14.4h-7.2l-5.6-14.3
				H948.2z M948.2,1008.6v12.3h4.8c0.6,0,1-0.1,1.3-0.3s0.3-0.6,0.3-1.2v-9.2c0-0.6-0.1-1-0.3-1.2c-0.2-0.2-0.7-0.3-1.3-0.3H948.2z"
				/>
			<path class="st3" d="M974,1003.5h7.1c4.2,0,6.3,1.9,6.3,5.7v25.1c0,3.8-2.1,5.7-6.3,5.7H974c-4.2,0-6.3-1.9-6.3-5.7v-25.1
				C967.7,1005.4,969.8,1003.5,974,1003.5z M980.7,1033.4v-23.3c0-0.6-0.1-1-0.3-1.2c-0.2-0.2-0.7-0.3-1.3-0.3H976
				c-0.7,0-1.1,0.1-1.3,0.3c-0.2,0.2-0.3,0.6-0.3,1.2v23.3c0,0.6,0.1,1,0.3,1.2c0.2,0.2,0.7,0.3,1.3,0.3h3.1c0.6,0,1-0.1,1.3-0.3
				C980.6,1034.4,980.7,1034,980.7,1033.4z"/>
			<path class="st3" d="M992.2,1027.3h6.7v6.1c0,0.6,0.1,1,0.3,1.2c0.2,0.2,0.7,0.3,1.3,0.3h1.4c0.6,0,1-0.1,1.3-0.3
				c0.2-0.2,0.3-0.6,0.3-1.2v-29.9h6.7v30.9c0,3.8-2.1,5.7-6.3,5.7h-5.5c-4.2,0-6.3-1.9-6.3-5.7V1027.3z"/>
			<path class="st3" d="M1023.9,1035h11.1v5.1h-17.9v-36.6h17.4v5.1h-10.7v10.2h9v5.2h-9V1035z"/>
			<path class="st3" d="M1059.4,1015.6h-6.7v-5.7c0-0.6-0.1-1-0.3-1.2c-0.2-0.2-0.7-0.3-1.3-0.3h-2.7c-0.6,0-1,0.1-1.3,0.3
				c-0.2,0.2-0.3,0.6-0.3,1.2v23.8c0,0.6,0.1,1,0.3,1.2c0.2,0.2,0.7,0.3,1.3,0.3h2.7c0.6,0,1-0.1,1.3-0.3c0.2-0.2,0.3-0.6,0.3-1.2
				v-5.6h6.7v6.3c0,3.8-2.1,5.7-6.3,5.7h-6.8c-4.2,0-6.3-1.9-6.3-5.7v-25.2c0-3.8,2.1-5.7,6.3-5.7h6.8c4.2,0,6.3,1.9,6.3,5.7V1015.6
				z"/>
			<path class="st3" d="M1082.6,1003.5v5.1h-6.4v31.5h-6.7v-31.5h-6.4v-5.1H1082.6z"/>
			<path class="st3" d="M923.4,1058.1h7.1c4.2,0,6.3,1.9,6.3,5.7v25.1c0,3.8-2.1,5.7-6.3,5.7h-7.1c-4.2,0-6.3-1.9-6.3-5.7v-25.1
				C917.1,1060,919.2,1058.1,923.4,1058.1z M930.2,1088v-23.3c0-0.6-0.1-1-0.3-1.2c-0.2-0.2-0.7-0.3-1.3-0.3h-3.1
				c-0.7,0-1.1,0.1-1.3,0.3c-0.2,0.2-0.3,0.6-0.3,1.2v23.3c0,0.6,0.1,1,0.3,1.2c0.2,0.2,0.7,0.3,1.3,0.3h3.1c0.6,0,1-0.1,1.3-0.3
				C930,1089,930.2,1088.6,930.2,1088z"/>
			<path class="st3" d="M972.9,1058.1h6.6l-6.4,36.6h-8.5l-4.1-25.8l-4.1,25.8h-8.5l-6.4-36.6h6.9l3.8,29.7l4.8-29.7h7l4.8,29.7
				L972.9,1058.1z"/>
			<path class="st3" d="M998.4,1058.1h6.1v36.6h-6.3l-7.8-24.2v24.2h-6.1v-36.6h6.4l7.7,23.9V1058.1z"/>
			<path class="st3" d="M1018.3,1089.6h11.1v5.1h-17.9v-36.6h17.4v5.1h-10.7v10.2h9v5.2h-9V1089.6z"/>
			<path class="st3" d="M1041.4,1080.4v14.3h-6.7v-36.6h13.5c4.2,0,6.3,1.9,6.3,5.7v10.8c0,3.2-1.4,5-4.2,5.6l6.1,14.4h-7.2
				l-5.6-14.3H1041.4z M1041.4,1063.2v12.3h4.8c0.6,0,1-0.1,1.3-0.3s0.3-0.6,0.3-1.2v-9.2c0-0.6-0.1-1-0.3-1.2
				c-0.2-0.2-0.7-0.3-1.3-0.3H1041.4z"/>
			<path class="st3" d="M1072.7,1088v-7.8c0-0.6-0.1-1-0.3-1.2c-0.2-0.2-0.7-0.3-1.3-0.3h-4.7c-4,0-6-1.9-6-5.8v-9
				c0-3.8,2.1-5.7,6.3-5.7h6.4c4.2,0,6.3,1.9,6.3,5.7v5.1h-6.7v-4.2c0-0.6-0.1-1-0.3-1.2c-0.2-0.2-0.7-0.3-1.3-0.3h-2.2
				c-0.7,0-1.1,0.1-1.3,0.3c-0.2,0.2-0.3,0.6-0.3,1.2v7.4c0,0.6,0.1,1,0.3,1.2c0.2,0.2,0.7,0.3,1.3,0.3h4.6c4.1,0,6.1,1.9,6.1,5.7
				v9.6c0,3.8-2.1,5.7-6.3,5.7h-6.3c-4.2,0-6.3-1.9-6.3-5.7v-5h6.7v4.1c0,0.6,0.1,1,0.3,1.2c0.2,0.2,0.7,0.3,1.3,0.3h2.2
				c0.6,0,1-0.1,1.3-0.3C1072.6,1089,1072.7,1088.6,1072.7,1088z"/>
		</g>
	</g>
	<g>
		<g>
			<path class="st3" d="M159.5,1003.5v5.1h-6.4v31.5h-6.7v-31.5H140v-5.1H159.5z"/>
			<path class="st3" d="M178.3,1003.5h6.7v36.6h-6.7v-15.6h-7.5v15.6h-6.7v-36.6h6.7v15.9h7.5V1003.5z"/>
			<path class="st3" d="M198.7,1035h11.1v5.1H192v-36.6h17.4v5.1h-10.7v10.2h9v5.2h-9V1035z"/>
			<path class="st3" d="M142.5,1058.1h13.9c4.2,0,6.3,1.9,6.3,5.7v7.9c0,2.4-0.8,3.9-2.4,4.5c1.6,0.5,2.4,1.9,2.4,4.2v8.6
				c0,3.8-2.1,5.7-6.3,5.7h-13.9V1058.1z M156.2,1072.2v-7.7c0-0.6-0.1-1-0.3-1.2c-0.2-0.2-0.7-0.3-1.3-0.3h-5.3v10.8h5.3
				c0.7,0,1.1-0.1,1.3-0.3C156.1,1073.2,156.2,1072.8,156.2,1072.2z M156.2,1088.2v-8.1c0-0.6-0.1-1-0.3-1.2
				c-0.2-0.2-0.7-0.3-1.3-0.3h-5.3v11.2h5.3c0.7,0,1.1-0.1,1.3-0.3C156.1,1089.3,156.2,1088.9,156.2,1088.2z"/>
			<path class="st3" d="M175.6,1058.1h7.1c4.2,0,6.3,1.9,6.3,5.7v25.1c0,3.8-2.1,5.7-6.3,5.7h-7.1c-4.2,0-6.3-1.9-6.3-5.7v-25.1
				C169.3,1060,171.4,1058.1,175.6,1058.1z M182.3,1088v-23.3c0-0.6-0.1-1-0.3-1.2c-0.2-0.2-0.7-0.3-1.3-0.3h-3.1
				c-0.7,0-1.1,0.1-1.3,0.3c-0.2,0.2-0.3,0.6-0.3,1.2v23.3c0,0.6,0.1,1,0.3,1.2c0.2,0.2,0.7,0.3,1.3,0.3h3.1c0.6,0,1-0.1,1.3-0.3
				C182.2,1089,182.3,1088.6,182.3,1088z"/>
			<path class="st3" d="M210.9,1094.7l-1.4-7.6h-8l-1.3,7.6h-6.7l7.4-36.6h9l7.7,36.6H210.9z M202.3,1082h6.2l-3.2-17.5L202.3,1082z
				"/>
			<path class="st3" d="M229,1080.4v14.3h-6.7v-36.6h13.5c4.2,0,6.3,1.9,6.3,5.7v10.8c0,3.2-1.4,5-4.2,5.6l6.1,14.4h-7.2l-5.6-14.3
				H229z M229,1063.2v12.3h4.8c0.6,0,1-0.1,1.3-0.3s0.3-0.6,0.3-1.2v-9.2c0-0.6-0.1-1-0.3-1.2c-0.2-0.2-0.7-0.3-1.3-0.3H229z"/>
			<path class="st3" d="M249,1058.1h13.9c4.2,0,6.3,1.9,6.3,5.7v25.1c0,3.8-2.1,5.7-6.3,5.7H249V1058.1z M262.5,1088.2v-23.7
				c0-0.6-0.1-1-0.3-1.2c-0.2-0.2-0.7-0.3-1.3-0.3h-5.2v26.9h5.2c0.6,0,1-0.1,1.3-0.3C262.4,1089.3,262.5,1088.9,262.5,1088.2z"/>
		</g>
	</g>
	<g>
		<g>
			<path class="st3" d="M723.4,107h-11v11.1h9v4.9h-9v15.5h-6.7v-36.6h17.7V107z"/>
			<path class="st3" d="M741.1,101.9h6.7v30.9c0,3.8-2.1,5.7-6.3,5.7h-7.1c-4.2,0-6.3-1.9-6.3-5.7v-30.9h6.7v29.9
				c0,0.6,0.1,1,0.3,1.2c0.2,0.2,0.7,0.3,1.3,0.3h3.1c0.7,0,1.1-0.1,1.3-0.3c0.2-0.2,0.3-0.6,0.3-1.2V101.9z"/>
			<path class="st3" d="M768.9,101.9h6.1v36.6h-6.3l-7.8-24.2v24.2h-6.1v-36.6h6.4l7.7,23.9V101.9z"/>
			<path class="st3" d="M782.4,101.9h13.9c4.2,0,6.3,1.9,6.3,5.7v25.1c0,3.8-2.1,5.7-6.3,5.7h-13.9V101.9z M795.9,132.1v-23.7
				c0-0.6-0.1-1-0.3-1.2c-0.2-0.2-0.7-0.3-1.3-0.3H789v26.9h5.2c0.6,0,1-0.1,1.3-0.3C795.8,133.1,795.9,132.7,795.9,132.1z"/>
			<path class="st3" d="M712.4,188h11.1v5.1h-17.9v-36.6H723v5.1h-10.7v10.2h9v5.2h-9V188z"/>
			<path class="st3" d="M741.6,174.4l8.4,18.7h-7.4l-4.6-12.8l-4.6,12.8h-7.1l8.1-18.7l-7.7-17.9h7.5l3.9,12.1l3.9-12.1h7.2
				L741.6,174.4z"/>
			<path class="st3" d="M761.1,188h11.1v5.1h-17.9v-36.6h17.4v5.1h-10.7v10.2h9v5.2h-9V188z"/>
			<path class="st3" d="M796.6,168.6h-6.7v-5.7c0-0.6-0.1-1-0.3-1.2c-0.2-0.2-0.7-0.3-1.3-0.3h-2.7c-0.6,0-1,0.1-1.3,0.3
				c-0.2,0.2-0.3,0.6-0.3,1.2v23.8c0,0.6,0.1,1,0.3,1.2c0.2,0.2,0.7,0.3,1.3,0.3h2.7c0.6,0,1-0.1,1.3-0.3c0.2-0.2,0.3-0.6,0.3-1.2
				v-5.6h6.7v6.3c0,3.8-2.1,5.7-6.3,5.7h-6.8c-4.2,0-6.3-1.9-6.3-5.7v-25.2c0-3.8,2.1-5.7,6.3-5.7h6.8c4.2,0,6.3,1.9,6.3,5.7V168.6z
				"/>
			<path class="st3" d="M815.8,156.5h6.7v30.9c0,3.8-2.1,5.7-6.3,5.7H809c-4.2,0-6.3-1.9-6.3-5.7v-30.9h6.7v29.9
				c0,0.6,0.1,1,0.3,1.2c0.2,0.2,0.7,0.3,1.3,0.3h3.1c0.7,0,1.1-0.1,1.3-0.3c0.2-0.2,0.3-0.6,0.3-1.2V156.5z"/>
			<path class="st3" d="M846.4,156.5v5.1H840v31.5h-6.7v-31.5h-6.4v-5.1H846.4z"/>
			<path class="st3" d="M851.3,156.5h6.7v36.6h-6.7V156.5z"/>
			<path class="st3" d="M879.3,156.5h6.8l-7.2,36.6h-8.8l-7.2-36.6h6.9l4.7,29.6L879.3,156.5z"/>
			<path class="st3" d="M897.4,188h11.1v5.1h-17.9v-36.6h17.4v5.1h-10.7v10.2h9v5.2h-9V188z"/>
			<path class="st3" d="M925.4,186.4v-7.8c0-0.6-0.1-1-0.3-1.2c-0.2-0.2-0.7-0.3-1.3-0.3h-4.7c-4,0-6-1.9-6-5.8v-9
				c0-3.8,2.1-5.7,6.3-5.7h6.4c4.2,0,6.3,1.9,6.3,5.7v5.1h-6.7v-4.2c0-0.6-0.1-1-0.3-1.2c-0.2-0.2-0.7-0.3-1.3-0.3h-2.2
				c-0.7,0-1.1,0.1-1.3,0.3c-0.2,0.2-0.3,0.6-0.3,1.2v7.4c0,0.6,0.1,1,0.3,1.2c0.2,0.2,0.7,0.3,1.3,0.3h4.6c4.1,0,6.1,1.9,6.1,5.7
				v9.6c0,3.8-2.1,5.7-6.3,5.7h-6.3c-4.2,0-6.3-1.9-6.3-5.7v-5h6.7v4.1c0,0.6,0.1,1,0.3,1.2c0.2,0.2,0.7,0.3,1.3,0.3h2.2
				c0.6,0,1-0.1,1.3-0.3C925.3,187.5,925.4,187,925.4,186.4z"/>
		</g>
	</g>
	<g>
		<g>
			<path class="st10" d="M742.8,597.3l2.7,4.7L719.8,617l-2.7-4.7L742.8,597.3z"/>
			<path class="st10" d="M754.3,616.9l2.5,4.3l-25.7,15.1l-2.6-4.4l13.8-15.5l-17,10l-2.5-4.3l25.7-15.1l2.7,4.5l-13.6,15.3
				L754.3,616.9z"/>
			<path class="st10" d="M765.4,635.8l2.8,4.8l-28.7,10l-3.6-6.2l22.7-20.2l2.8,4.9l-18.9,15.5L765.4,635.8z"/>
			<path class="st10" d="M750.6,661.3l4.6,7.8l-3.6,2.1l-7.4-12.6l25.7-15.1l7.2,12.2l-3.6,2.1l-4.4-7.5l-7.1,4.2l3.7,6.3l-3.6,2.1
				l-3.7-6.3L750.6,661.3z"/>
			<path class="st10" d="M763.1,680.1l5.5-3.2c0.4-0.3,0.7-0.5,0.7-0.8s0-0.6-0.3-1l-1.9-3.3c-1.6-2.8-1.1-5,1.6-6.6l6.3-3.7
				c2.7-1.6,4.9-0.9,6.6,2l2.6,4.5c1.7,2.9,1.2,5.2-1.5,6.8l-3.6,2.1l-2.8-4.7l2.9-1.7c0.4-0.3,0.7-0.5,0.7-0.8c0.1-0.3,0-0.6-0.3-1
				l-0.9-1.5c-0.3-0.5-0.5-0.7-0.8-0.8c-0.2-0.1-0.6,0-1,0.3l-5.2,3c-0.4,0.3-0.7,0.5-0.7,0.8c-0.1,0.2,0.1,0.6,0.3,1.1l1.9,3.2
				c1.7,2.9,1.2,5.1-1.5,6.6l-6.7,3.9c-2.7,1.6-4.9,0.9-6.6-2.1l-2.6-4.4c-1.7-3-1.3-5.2,1.4-6.8l3.5-2.1l2.7,4.7l-2.9,1.7
				c-0.4,0.3-0.7,0.5-0.7,0.8s0.1,0.6,0.3,1.1l0.9,1.5c0.3,0.4,0.5,0.7,0.7,0.8C762.3,680.5,762.7,680.4,763.1,680.1z"/>
			<path class="st10" d="M796.4,688.7l-3.6,2.1l-2.7-4.5l-22.1,13l-2.7-4.7l22.1-13l-2.6-4.5l3.6-2.1L796.4,688.7z"/>
			<path class="st10" d="M802.6,699.3l2.7,4.7L779.6,719l-2.7-4.7L802.6,699.3z"/>
			<path class="st10" d="M814.1,718.9l2.5,4.3l-25.7,15.1l-2.6-4.4l13.8-15.5l-17,10l-2.5-4.3l25.7-15.1l2.7,4.5l-13.6,15.3
				L814.1,718.9z"/>
		</g>
	</g>
	<g>
		<g>
			<path class="st18" d="M795.9,425l5.6,9.4c1.8,3,1.3,5.2-1.4,6.8l-8.2,4.9c-2.7,1.6-4.9,0.9-6.7-2l-2.8-4.8l-9.4,5.6l-2.8-4.7
				L795.9,425z M789.8,441.1l6.9-4.1c0.4-0.3,0.7-0.5,0.7-0.8c0.1-0.3-0.1-0.6-0.3-1l-2-3.4l-9.1,5.4l2,3.4c0.3,0.4,0.5,0.7,0.8,0.8
				C789.1,441.4,789.4,441.3,789.8,441.1z"/>
			<path class="st18" d="M806.6,442.9l2.8,4.7l-25.6,15.2l-2.8-4.7L806.6,442.9z"/>
			<path class="st18" d="M819.4,464.5l-3.6,2.1l-2.7-4.5l-22,13.1l-2.8-4.7l22-13.1l-2.7-4.5l3.6-2.1L819.4,464.5z"/>
			<path class="st18" d="M820.6,485.9l-2.8-4.7l4-2.4c0.4-0.3,0.7-0.5,0.7-0.8c0.1-0.3-0.1-0.6-0.3-1l-1.1-1.9
				c-0.3-0.4-0.5-0.7-0.8-0.8c-0.2-0.1-0.6,0-1,0.3l-16.6,9.9c-0.4,0.3-0.7,0.5-0.7,0.8c-0.1,0.3,0,0.6,0.3,1l1.1,1.9
				c0.3,0.4,0.5,0.7,0.8,0.8c0.2,0.1,0.6,0,1-0.3l3.9-2.3l2.8,4.7l-4.4,2.6c-2.7,1.6-4.9,0.9-6.7-2l-2.8-4.8c-1.8-3-1.3-5.2,1.4-6.8
				l17.6-10.5c2.7-1.6,4.9-0.9,6.7,2l2.8,4.8c1.8,3,1.3,5.2-1.4,6.8L820.6,485.9z"/>
			<path class="st18" d="M837.4,494.9l2.8,4.7l-25.6,15.2l-2.8-4.7l10.9-6.5l-3.1-5.3l-10.9,6.5l-2.8-4.7l25.6-15.2l2.8,4.7
				l-11.1,6.6l3.1,5.3L837.4,494.9z"/>
			<path class="st18" d="M847.5,511.8l2.8,4.7l-25.6,15.2l-2.8-4.7L847.5,511.8z"/>
			<path class="st18" d="M853.4,521.7l5.8,9.7c1.8,3,1.3,5.2-1.4,6.8l-17.6,10.5c-2.7,1.6-4.9,0.9-6.7-2l-5.8-9.7L853.4,521.7z
				 M837.9,543.7l16.6-9.9c0.4-0.3,0.7-0.5,0.7-0.8c0.1-0.3-0.1-0.6-0.3-1l-2.2-3.7l-18.8,11.2l2.2,3.7c0.3,0.4,0.5,0.7,0.8,0.8
				C837.1,544,837.5,543.9,837.9,543.7z"/>
			<path class="st18" d="M845.3,558.2l4.6,7.8l-3.6,2.1l-7.4-12.5l25.6-15.2l7.2,12.2l-3.6,2.1l-4.4-7.5l-7.1,4.2l3.7,6.3l-3.6,2.1
				l-3.7-6.3L845.3,558.2z"/>
			<path class="st18" d="M854.7,582.1l4.7-4.1l-3.3-5.6l-5.8,2.3l-2.8-4.7l28.7-10.1l3.7,6.3l-22.4,20.6L854.7,582.1z M860,570.9
				l2.6,4.3l10.9-9.5L860,570.9z"/>
			<path class="st18" d="M868.8,595.3l5.5-3.3c0.4-0.3,0.7-0.5,0.7-0.8c0.1-0.2,0-0.6-0.3-1l-2-3.3c-1.7-2.8-1.1-5,1.6-6.6l6.3-3.7
				c2.7-1.6,4.9-0.9,6.6,2l2.7,4.5c1.7,2.9,1.3,5.2-1.4,6.8l-3.6,2.1l-2.8-4.7l2.9-1.7c0.4-0.3,0.7-0.5,0.7-0.8
				c0.1-0.3-0.1-0.6-0.3-1l-0.9-1.5c-0.3-0.5-0.5-0.7-0.8-0.8c-0.2-0.1-0.6,0-1,0.3l-5.2,3.1c-0.4,0.3-0.7,0.5-0.7,0.8
				c-0.1,0.3,0.1,0.6,0.3,1.1l1.9,3.2c1.7,2.8,1.2,5.1-1.4,6.6l-6.7,4c-2.7,1.6-4.9,0.9-6.7-2l-2.6-4.4c-1.8-3-1.3-5.2,1.4-6.8
				l3.5-2.1l2.8,4.7l-2.9,1.7c-0.4,0.3-0.7,0.5-0.7,0.8c-0.1,0.3,0.1,0.6,0.3,1.1l0.9,1.5c0.3,0.4,0.5,0.7,0.8,0.8
				C868,595.6,868.4,595.5,868.8,595.3z"/>
			<path class="st18" d="M906.5,610.9l-3.6,2.1l-2.7-4.5l-22,13.1l-2.8-4.7l22-13.1l-2.7-4.5l3.6-2.1L906.5,610.9z"/>
			<path class="st18" d="M910.8,618.2l2.9,5c1.8,2.9,1.3,5.2-1.4,6.8l-17.6,10.5c-2.7,1.6-4.9,0.9-6.7-2l-2.9-5
				c-1.8-3-1.3-5.2,1.4-6.8l17.6-10.5C906.8,614.5,909,615.2,910.8,618.2z M892.6,635.3l16.3-9.7c0.4-0.3,0.7-0.5,0.7-0.8
				c0.1-0.3-0.1-0.6-0.3-1l-1.3-2.2c-0.3-0.5-0.5-0.7-0.8-0.8c-0.2-0.1-0.6,0-1,0.3l-16.3,9.7c-0.4,0.3-0.7,0.5-0.7,0.8
				c-0.1,0.3,0.1,0.6,0.3,1.1l1.3,2.2c0.3,0.4,0.5,0.7,0.8,0.8C891.8,635.7,892.2,635.6,892.6,635.3z"/>
		</g>
	</g>
	<g>
		<g>
			<path class="st10" d="M303.6,628.6l-5.5-3.2c-0.4-0.2-0.8-0.3-1-0.3s-0.5,0.3-0.7,0.8l-1.9,3.3c-1.6,2.8-3.8,3.4-6.5,1.9
				l-6.4-3.6c-2.7-1.6-3.2-3.8-1.5-6.8l2.6-4.5c1.7-3,3.9-3.7,6.6-2.1l3.6,2.1l-2.7,4.8l-3-1.7c-0.4-0.2-0.8-0.3-1-0.3
				c-0.2,0.1-0.5,0.3-0.7,0.8l-0.9,1.6c-0.3,0.5-0.4,0.8-0.3,1.1c0.1,0.2,0.3,0.5,0.7,0.8l5.2,3c0.4,0.2,0.8,0.3,1,0.3
				c0.2-0.1,0.5-0.3,0.8-0.8l1.9-3.2c1.6-2.9,3.8-3.5,6.5-2l6.8,3.9c2.7,1.6,3.2,3.8,1.5,6.8l-2.5,4.4c-1.7,3-3.9,3.7-6.6,2.1
				l-3.6-2l2.7-4.7l2.9,1.7c0.4,0.3,0.8,0.3,1,0.3c0.2-0.1,0.5-0.3,0.8-0.8l0.9-1.6c0.3-0.4,0.3-0.8,0.3-1
				C304.3,629.1,304,628.8,303.6,628.6z"/>
			<path class="st10" d="M292.8,598.3l2.7-4.7l21.8,12.5c2.7,1.6,3.2,3.8,1.5,6.8l-2.9,5c-1.7,3-3.9,3.7-6.6,2.1l-21.8-12.5l2.7-4.7
				l21.1,12.1c0.4,0.2,0.8,0.3,1,0.3c0.2-0.1,0.5-0.3,0.7-0.8l1.2-2.2c0.3-0.5,0.4-0.8,0.3-1.1c-0.1-0.2-0.3-0.5-0.7-0.8
				L292.8,598.3z"/>
			<path class="st10" d="M298.2,588.9l5.6-9.8c1.7-3,3.9-3.7,6.6-2.1l5.6,3.2c1.7,1,2.4,2.2,2.2,3.5c1-0.9,2.4-0.9,3.9,0l6.1,3.5
				c2.7,1.6,3.2,3.8,1.5,6.8l-5.6,9.8L298.2,588.9z M313.7,585l-5.4-3.1c-0.4-0.3-0.8-0.3-1-0.3c-0.2,0.1-0.5,0.3-0.8,0.8l-2.1,3.7
				l7.6,4.4l2.1-3.7c0.3-0.5,0.4-0.8,0.3-1.1C314.4,585.5,314.1,585.2,313.7,585z M325.1,591.5l-5.7-3.3c-0.4-0.2-0.8-0.3-1-0.3
				c-0.2,0.1-0.5,0.3-0.8,0.8l-2.1,3.7l7.9,4.5l2.1-3.7c0.3-0.5,0.4-0.8,0.3-1.1C325.7,592,325.5,591.7,325.1,591.5z"/>
			<path class="st10" d="M337.3,580.7l-2.4,4.2L309,570l3-5.2l17.9,4.5L317,556.2l3-5.2l25.9,14.8l-2.4,4.1l-18.2-10.4l10.6,10.6
				l-2.2,3.8l-14.5-3.7L337.3,580.7z"/>
			<path class="st10" d="M322.8,546l2.7-4.7l25.9,14.8l-2.7,4.7L322.8,546z"/>
			<path class="st10" d="M335.3,524.3l3.6,2.1l-2.6,4.5l22.3,12.8l-2.7,4.7l-22.3-12.8l-2.6,4.5l-3.6-2.1L335.3,524.3z"/>
			<path class="st10" d="M341.4,513.6l2.7-4.7l25.9,14.8l-2.7,4.7L341.4,513.6z"/>
			<path class="st10" d="M352.7,493.9l2.5-4.3l25.9,14.8l-2.5,4.4l-20.3-4.3l17.1,9.8l-2.5,4.3l-25.9-14.8l2.6-4.5l20,4.2
				L352.7,493.9z"/>
			<path class="st10" d="M363.5,474.9l2.8-4.8l22.9,19.9l-3.5,6.2l-28.8-9.7l2.8-4.9l22.8,8.7L363.5,474.9z"/>
			<path class="st10" d="M393,475l4.5-7.9l3.6,2.1l-7.2,12.6L368.1,467l7-12.3l3.6,2.1l-4.3,7.5l7.2,4.1l3.6-6.4l3.6,2.1l-3.6,6.4
				L393,475z"/>
			<path class="st10" d="M403.2,454.8l-5.5-3.2c-0.4-0.3-0.8-0.3-1-0.3c-0.2,0.1-0.5,0.3-0.7,0.8l-1.9,3.3c-1.6,2.8-3.8,3.4-6.5,1.9
				l-6.4-3.6c-2.7-1.5-3.2-3.8-1.5-6.8l2.6-4.5c1.7-3,3.9-3.7,6.6-2.1l3.6,2.1l-2.7,4.8l-3-1.7c-0.4-0.2-0.8-0.3-1-0.3
				c-0.2,0.1-0.5,0.3-0.7,0.8l-0.9,1.6c-0.3,0.5-0.4,0.8-0.3,1.1s0.3,0.5,0.7,0.8l5.2,3c0.4,0.2,0.8,0.3,1,0.3
				c0.2-0.1,0.5-0.3,0.8-0.8l1.9-3.2c1.6-2.9,3.8-3.5,6.5-2l6.8,3.9c2.7,1.6,3.2,3.8,1.5,6.8l-2.5,4.4c-1.7,3-3.9,3.7-6.6,2.1
				l-3.6-2l2.7-4.7l2.9,1.7c0.4,0.2,0.8,0.3,1,0.3c0.2-0.1,0.5-0.3,0.8-0.8l0.9-1.6c0.3-0.4,0.3-0.8,0.3-1
				C403.8,455.3,403.6,455.1,403.2,454.8z"/>
			<path class="st10" d="M394,421.7l3.6,2.1l-2.6,4.5l22.3,12.8l-2.7,4.7L392.3,433l-2.6,4.5l-3.6-2.1L394,421.7z"/>
			<path class="st10" d="M424,429.4l-2.4,4.2l-25.9-14.8l3-5.2l17.9,4.5l-12.9-13.2l3-5.2l25.9,14.8l-2.4,4.1L412,408.3l10.6,10.6
				l-2.2,3.8l-14.5-3.7L424,429.4z"/>
			<path class="st10" d="M434.4,402.9l4.5-7.9l3.6,2.1l-7.2,12.6l-25.9-14.8l7-12.3l3.6,2.1l-4.3,7.5l7.2,4.1l3.6-6.4l3.6,2.1
				l-3.6,6.4L434.4,402.9z"/>
			<path class="st10" d="M424.4,368.8l2.5-4.3l25.9,14.8l-2.5,4.4l-20.3-4.3l17.1,9.8l-2.5,4.3l-25.9-14.8l2.6-4.5l20,4.2
				L424.4,368.8z"/>
			<path class="st10" d="M436.5,347.6l3.6,2.1l-2.6,4.5l22.3,12.8l-2.7,4.7L434.8,359l-2.6,4.5l-3.6-2.1L436.5,347.6z"/>
			<path class="st10" d="M367.9,596.6l-5.5-3.2c-0.4-0.2-0.8-0.3-1-0.3c-0.2,0.1-0.5,0.3-0.7,0.8l-1.9,3.3c-1.6,2.8-3.8,3.4-6.5,1.9
				l-6.4-3.6c-2.7-1.5-3.2-3.8-1.5-6.8l2.6-4.5c1.7-3,3.9-3.7,6.6-2.1l3.6,2.1l-2.7,4.8l-3-1.7c-0.4-0.2-0.8-0.3-1-0.3
				c-0.2,0.1-0.5,0.3-0.7,0.8l-0.9,1.6c-0.3,0.5-0.4,0.8-0.3,1.1c0.1,0.3,0.3,0.5,0.7,0.8l5.2,3c0.4,0.2,0.8,0.3,1,0.3
				c0.2-0.1,0.5-0.3,0.8-0.8l1.9-3.2c1.6-2.9,3.8-3.5,6.5-2l6.8,3.9c2.7,1.5,3.2,3.8,1.5,6.8l-2.5,4.4c-1.7,3-3.9,3.7-6.6,2.1
				l-3.6-2l2.7-4.7l2.9,1.7c0.4,0.2,0.8,0.3,1,0.3c0.2-0.1,0.5-0.3,0.8-0.8l0.9-1.6c0.3-0.4,0.3-0.8,0.3-1S368.3,596.9,367.9,596.6z
				"/>
			<path class="st10" d="M358.7,563.5l3.6,2.1l-2.6,4.5l22.3,12.8l-2.7,4.7L357,574.9l-2.6,4.5l-3.6-2.1L358.7,563.5z"/>
			<path class="st10" d="M378.9,564.9l10.1,5.8l-2.7,4.7l-25.9-14.8l5.4-9.5c1.7-3,3.9-3.7,6.6-2.1l7.7,4.4c2.2,1.3,3,3,2.2,5.2
				l12.7,1.5l-2.9,5.1l-12.3-1.8L378.9,564.9z M366.8,557.9l8.7,5l1.9-3.4c0.3-0.4,0.3-0.8,0.3-1c-0.1-0.2-0.3-0.5-0.7-0.8l-6.5-3.7
				c-0.4-0.2-0.8-0.3-1-0.3c-0.2,0.1-0.5,0.3-0.7,0.8L366.8,557.9z"/>
			<path class="st10" d="M403,546.3l-5.9-2.1l-3.2,5.7l4.9,4l-2.7,4.7l-22.9-20l3.6-6.4l29,9.4L403,546.3z M390.6,547.2l2.5-4.4
				l-13.7-4.8L390.6,547.2z"/>
			<path class="st10" d="M388.5,511.6l3.6,2.1l-2.6,4.5l22.3,12.8l-2.7,4.7l-22.3-12.8l-2.6,4.5l-3.6-2.1L388.5,511.6z"/>
			<path class="st10" d="M415.2,516.6l4.5-7.9l3.6,2.1l-7.2,12.6l-25.9-14.8l7-12.3l3.6,2.1l-4.3,7.5l7.2,4.1l3.6-6.4l3.6,2.1
				l-3.6,6.4L415.2,516.6z"/>
			<path class="st10" d="M415.2,483.5l-2.7,4.8l-3.4-2c-0.4-0.2-0.8-0.3-1-0.3c-0.2,0.1-0.5,0.3-0.7,0.8l-1.1,1.9
				c-0.3,0.4-0.3,0.8-0.3,1c0.1,0.2,0.3,0.5,0.7,0.8l16.8,9.6c0.4,0.2,0.8,0.3,1,0.3c0.2-0.1,0.5-0.3,0.7-0.8l1.1-1.9
				c0.3-0.4,0.3-0.8,0.3-1s-0.3-0.5-0.7-0.8l-5.7-3.3l-1.2,2l-3.3-1.9l3.9-6.8l9.5,5.5c2.7,1.6,3.2,3.8,1.5,6.8l-2.7,4.8
				c-1.7,3-3.9,3.7-6.6,2.1L403.4,495c-2.7-1.5-3.2-3.8-1.5-6.8l2.7-4.8c1.7-3,3.9-3.7,6.6-2.1L415.2,483.5z"/>
			<path class="st10" d="M440.7,480.5l-2.7,4.7l-8.2-4.7l-21.1-4.1l2.7-4.8l15.3,4.1l-11.4-10.9l2.7-4.8l14.3,15.8L440.7,480.5z"/>
			<path class="st10" d="M430.9,437.7l3.6,2.1l-2.6,4.5l22.3,12.8l-2.7,4.7L429.2,449l-2.6,4.5l-3.6-2.1L430.9,437.7z"/>
			<path class="st10" d="M435,430.4l2.9-5c1.7-3,3.9-3.7,6.6-2.1l17.7,10.2c2.7,1.5,3.2,3.8,1.5,6.8l-2.9,5c-1.7,3-3.9,3.7-6.6,2.1
				l-17.7-10.2C433.8,435.6,433.3,433.4,435,430.4z M458.9,437.7l-16.4-9.4c-0.4-0.2-0.8-0.3-1-0.3c-0.2,0.1-0.5,0.3-0.7,0.8
				l-1.2,2.2c-0.3,0.5-0.4,0.8-0.3,1.1c0.1,0.3,0.3,0.5,0.7,0.8l16.4,9.4c0.4,0.2,0.8,0.3,1,0.3c0.2-0.1,0.5-0.3,0.8-0.8l1.2-2.2
				c0.3-0.4,0.3-0.8,0.3-1C459.6,438.2,459.4,438,458.9,437.7z"/>
		</g>
	</g>
	<g>
		<g>
			<path class="st5" d="M436.6,911.8h5.4l-5.2,29.8h-6.9l-3.4-21l-3.3,21h-6.9l-5.2-29.8h5.6l3.1,24.2l3.9-24.2h5.7l3.9,24.2
				L436.6,911.8z"/>
			<path class="st5" d="M457.2,911.8h5.4v29.8h-5.4v-12.7h-6.1v12.7h-5.4v-29.8h5.4v12.9h6.1V911.8z"/>
			<path class="st5" d="M468.4,911.8h5.4v29.8h-5.4V911.8z"/>
			<path class="st5" d="M493.4,911.8v4.2h-5.2v25.7h-5.4v-25.7h-5.2v-4.2H493.4z"/>
			<path class="st5" d="M502.4,937.4h9.1v4.2h-14.5v-29.8h14.2v4.2h-8.7v8.3h7.3v4.2h-7.3V937.4z"/>
			<path class="st5" d="M520.9,937.4h7.9v4.2h-13.4v-29.8h5.4V937.4z"/>
			<path class="st5" d="M532.5,911.8h5.4v29.8h-5.4V911.8z"/>
			<path class="st5" d="M553.1,936.1v-6.4c0-0.5-0.1-0.8-0.3-1s-0.5-0.3-1-0.3H548c-3.2,0-4.9-1.6-4.9-4.7v-7.3
				c0-3.1,1.7-4.7,5.1-4.7h5.2c3.4,0,5.1,1.6,5.1,4.7v4.2H553v-3.4c0-0.5-0.1-0.8-0.3-1c-0.2-0.2-0.5-0.3-1-0.3h-1.8
				c-0.5,0-0.9,0.1-1.1,0.3c-0.2,0.2-0.3,0.5-0.3,1v6c0,0.5,0.1,0.8,0.3,1s0.6,0.3,1.1,0.3h3.7c3.3,0,5,1.5,5,4.6v7.8
				c0,3.1-1.7,4.7-5.1,4.7h-5.1c-3.4,0-5.1-1.6-5.1-4.7v-4.1h5.4v3.4c0,0.5,0.1,0.8,0.3,1c0.2,0.2,0.6,0.3,1.1,0.3h1.8
				c0.5,0,0.9-0.1,1-0.3C553,937,553.1,936.6,553.1,936.1z"/>
			<path class="st5" d="M577.3,911.8v4.2h-5.2v25.7h-5.4v-25.7h-5.2v-4.2H577.3z"/>
			<path class="st5" d="M590.2,936.1v-6.4c0-0.5-0.1-0.8-0.3-1s-0.5-0.3-1-0.3h-3.8c-3.2,0-4.9-1.6-4.9-4.7v-7.3
				c0-3.1,1.7-4.7,5.1-4.7h5.2c3.4,0,5.1,1.6,5.1,4.7v4.2h-5.5v-3.4c0-0.5-0.1-0.8-0.3-1c-0.2-0.2-0.5-0.3-1-0.3H587
				c-0.5,0-0.9,0.1-1.1,0.3c-0.2,0.2-0.3,0.5-0.3,1v6c0,0.5,0.1,0.8,0.3,1s0.6,0.3,1.1,0.3h3.7c3.3,0,5,1.5,5,4.6v7.8
				c0,3.1-1.7,4.7-5.1,4.7h-5.1c-3.4,0-5.1-1.6-5.1-4.7v-4.1h5.4v3.4c0,0.5,0.1,0.8,0.3,1c0.2,0.2,0.6,0.3,1.1,0.3h1.8
				c0.5,0,0.9-0.1,1-0.3C590.1,937,590.2,936.6,590.2,936.1z"/>
			<path class="st5" d="M609.1,911.8h11c3.4,0,5.1,1.6,5.1,4.7v9.5c0,3.1-1.7,4.7-5.1,4.7h-5.5v11h-5.4V911.8z M619.8,925.2v-8
				c0-0.5-0.1-0.8-0.3-1c-0.2-0.2-0.5-0.3-1-0.3h-3.9v10.5h3.9c0.5,0,0.9-0.1,1-0.3C619.7,926,619.8,925.7,619.8,925.2z"/>
			<path class="st5" d="M635.1,930v11.6h-5.4v-29.8h11c3.4,0,5.1,1.6,5.1,4.7v8.8c0,2.6-1.1,4.1-3.4,4.5l5,11.8h-5.9l-4.5-11.6
				H635.1z M635.1,915.9v10h3.9c0.5,0,0.9-0.1,1-0.3c0.2-0.2,0.3-0.5,0.3-1v-7.5c0-0.5-0.1-0.8-0.3-1c-0.2-0.2-0.5-0.3-1-0.3H635.1z
				"/>
			<path class="st5" d="M655.9,911.8h5.8c3.4,0,5.1,1.6,5.1,4.7v20.5c0,3.1-1.7,4.7-5.1,4.7h-5.8c-3.4,0-5.1-1.6-5.1-4.7v-20.5
				C650.7,913.3,652.4,911.8,655.9,911.8z M661.4,936.1v-18.9c0-0.5-0.1-0.8-0.3-1c-0.2-0.2-0.5-0.3-1-0.3h-2.5
				c-0.5,0-0.9,0.1-1.1,0.3c-0.2,0.2-0.3,0.5-0.3,1v18.9c0,0.5,0.1,0.8,0.3,1c0.2,0.2,0.6,0.3,1.1,0.3h2.5c0.5,0,0.9-0.1,1-0.3
				C661.3,937,661.4,936.6,661.4,936.1z"/>
			<path class="st5" d="M670.5,931.1h5.4v5c0,0.5,0.1,0.8,0.3,1c0.2,0.2,0.6,0.3,1.1,0.3h1.1c0.5,0,0.9-0.1,1-0.3
				c0.2-0.2,0.3-0.5,0.3-1v-24.4h5.5v25.1c0,3.1-1.7,4.7-5.1,4.7h-4.4c-3.4,0-5.1-1.6-5.1-4.7V931.1z"/>
			<path class="st5" d="M696,937.4h9.1v4.2h-14.5v-29.8h14.2v4.2H696v8.3h7.3v4.2H696V937.4z"/>
			<path class="st5" d="M724.8,921.6h-5.5V917c0-0.5-0.1-0.8-0.3-1s-0.5-0.3-1-0.3h-2.2c-0.5,0-0.9,0.1-1,0.3s-0.3,0.5-0.3,1v19.4
				c0,0.5,0.1,0.8,0.3,1c0.2,0.2,0.5,0.3,1,0.3h2.2c0.5,0,0.9-0.1,1-0.3c0.2-0.2,0.3-0.5,0.3-1v-4.5h5.5v5.1c0,3.1-1.7,4.7-5.1,4.7
				h-5.5c-3.4,0-5.1-1.6-5.1-4.7v-20.5c0-3.1,1.7-4.7,5.1-4.7h5.5c3.4,0,5.1,1.6,5.1,4.7V921.6z"/>
			<path class="st5" d="M743.4,911.8v4.2h-5.2v25.7h-5.4v-25.7h-5.2v-4.2H743.4z"/>
			<path class="st5" d="M487,981.5h-4.8v-29.8h6l5,17.7l5-17.7h6v29.8h-4.8v-20.9l-4,14.5H491l-4-14.4V981.5z"/>
			<path class="st5" d="M521.9,981.5l-1.1-6.2h-6.5l-1,6.2h-5.4l6-29.8h7.3l6.3,29.8H521.9z M514.9,971.2h5.1l-2.6-14.3L514.9,971.2
				z"/>
			<path class="st5" d="M542.5,951.7h5v29.8h-5.1l-6.4-19.7v19.7h-5v-29.8h5.2l6.3,19.5V951.7z"/>
			<path class="st5" d="M565.2,981.5l-1.1-6.2h-6.5l-1,6.2h-5.4l6-29.8h7.3l6.3,29.8H565.2z M558.3,971.2h5.1l-2.6-14.3L558.3,971.2
				z"/>
			<path class="st5" d="M589.9,960.8h-5.5v-3.9c0-0.5-0.1-0.8-0.3-1s-0.5-0.3-1-0.3h-2.2c-0.5,0-0.9,0.1-1,0.3s-0.3,0.5-0.3,1v19.4
				c0,0.5,0.1,0.8,0.3,1c0.2,0.2,0.5,0.3,1,0.3h2.2c0.5,0,0.9-0.1,1-0.3c0.2-0.2,0.3-0.5,0.3-1v-6.6H582v-3.8h7.8v11
				c0,3.1-1.7,4.7-5.1,4.7h-5.5c-3.4,0-5.1-1.6-5.1-4.7v-20.5c0-3.1,1.7-4.7,5.1-4.7h5.5c3.4,0,5.1,1.6,5.1,4.7V960.8z"/>
			<path class="st5" d="M600.4,977.3h9.1v4.2h-14.5v-29.8H609v4.2h-8.7v8.3h7.3v4.2h-7.3V977.3z"/>
			<path class="st5" d="M613.7,951.7h11.3c3.4,0,5.1,1.6,5.1,4.7v20.5c0,3.1-1.7,4.7-5.1,4.7h-11.3V951.7z M624.7,976.2v-19.3
				c0-0.5-0.1-0.8-0.3-1s-0.5-0.3-1-0.3h-4.3v21.9h4.3c0.5,0,0.9-0.1,1-0.3S624.7,976.7,624.7,976.2z"/>
			<path class="st5" d="M644.1,951.7h11.3c3.4,0,5.1,1.6,5.1,4.7v6.4c0,2-0.7,3.2-2,3.6c1.3,0.4,2,1.6,2,3.4v7
				c0,3.1-1.7,4.7-5.1,4.7h-11.3V951.7z M655.2,963.1v-6.2c0-0.5-0.1-0.8-0.3-1s-0.6-0.3-1.1-0.3h-4.3v8.8h4.3
				c0.5,0,0.9-0.1,1.1-0.3C655.1,964,655.2,963.6,655.2,963.1z M655.2,976.2v-6.6c0-0.5-0.1-0.8-0.3-1s-0.6-0.3-1.1-0.3h-4.3v9.1
				h4.3c0.5,0,0.9-0.1,1.1-0.3S655.2,976.7,655.2,976.2z"/>
			<path class="st5" d="M676,981.5h-5.4V972l-6.9-20.4h5.5l4.1,15.3l3.8-15.3h5.5l-6.6,20.2V981.5z"/>
		</g>
	</g>
	<g>
		<g>
			<path class="st18" d="M442.7,814.6H454c3.4,0,5.1,1.6,5.1,4.7v20.5c0,3.1-1.7,4.7-5.1,4.7h-11.3V814.6z M453.7,839.2v-19.3
				c0-0.5-0.1-0.8-0.3-1s-0.5-0.3-1-0.3h-4.3v21.9h4.3c0.5,0,0.9-0.1,1-0.3S453.7,839.7,453.7,839.2z"/>
			<path class="st18" d="M470,840.3h9.1v4.2h-14.5v-29.8h14.2v4.2H470v8.3h7.3v4.2H470V840.3z"/>
			<path class="st18" d="M487.9,844.4h-4.8v-29.8h6l5,17.7l5-17.7h6v29.8h-4.8v-20.9l-4,14.5h-4.4l-4-14.4V844.4z"/>
			<path class="st18" d="M515.5,814.6h5.8c3.4,0,5.1,1.6,5.1,4.7v20.5c0,3.1-1.7,4.7-5.1,4.7h-5.8c-3.4,0-5.1-1.6-5.1-4.7v-20.5
				C510.3,816.2,512.1,814.6,515.5,814.6z M521,839v-18.9c0-0.5-0.1-0.8-0.3-1c-0.2-0.2-0.5-0.3-1-0.3h-2.5c-0.5,0-0.9,0.1-1.1,0.3
				c-0.2,0.2-0.3,0.5-0.3,1V839c0,0.5,0.1,0.8,0.3,1c0.2,0.2,0.6,0.3,1.1,0.3h2.5c0.5,0,0.9-0.1,1-0.3
				C520.9,839.8,521,839.5,521,839z"/>
			<path class="st18" d="M543.3,814.6h5v29.8h-5.1l-6.4-19.7v19.7h-5v-29.8h5.2l6.3,19.5V814.6z"/>
			<path class="st18" d="M563.2,839v-6.4c0-0.5-0.1-0.8-0.3-1s-0.5-0.3-1-0.3h-3.8c-3.2,0-4.9-1.6-4.9-4.7v-7.3
				c0-3.1,1.7-4.7,5.1-4.7h5.2c3.4,0,5.1,1.6,5.1,4.7v4.2h-5.5v-3.4c0-0.5-0.1-0.8-0.3-1c-0.2-0.2-0.5-0.3-1-0.3H560
				c-0.5,0-0.9,0.1-1.1,0.3c-0.2,0.2-0.3,0.5-0.3,1v6c0,0.5,0.1,0.8,0.3,1s0.6,0.3,1.1,0.3h3.7c3.3,0,5,1.5,5,4.6v7.8
				c0,3.1-1.7,4.7-5.1,4.7h-5.1c-3.4,0-5.1-1.6-5.1-4.7v-4.1h5.4v3.4c0,0.5,0.1,0.8,0.3,1c0.2,0.2,0.6,0.3,1.1,0.3h1.8
				c0.5,0,0.9-0.1,1-0.3C563.1,839.8,563.2,839.5,563.2,839z"/>
			<path class="st18" d="M587.4,814.6v4.2h-5.2v25.7h-5.4v-25.7h-5.2v-4.2H587.4z"/>
			<path class="st18" d="M596.3,832.8v11.6h-5.4v-29.8h11c3.4,0,5.1,1.6,5.1,4.7v8.8c0,2.6-1.1,4.1-3.4,4.5l5,11.8h-5.9l-4.5-11.6
				H596.3z M596.3,818.8v10h3.9c0.5,0,0.9-0.1,1-0.3c0.2-0.2,0.3-0.5,0.3-1v-7.5c0-0.5-0.1-0.8-0.3-1c-0.2-0.2-0.5-0.3-1-0.3H596.3z
				"/>
			<path class="st18" d="M624.3,844.4l-1.1-6.2h-6.5l-1,6.2h-5.4l6-29.8h7.3l6.3,29.8H624.3z M617.4,834.1h5.1l-2.6-14.3
				L617.4,834.1z"/>
			<path class="st18" d="M647.2,814.6v4.2H642v25.7h-5.4v-25.7h-5.2v-4.2H647.2z"/>
			<path class="st18" d="M656.2,840.3h9.1v4.2h-14.5v-29.8h14.2v4.2h-8.7v8.3h7.3v4.2h-7.3V840.3z"/>
			<path class="st18" d="M689.2,814.6h5.6l-5.9,29.8h-7.1l-5.9-29.8h5.6l3.8,24.1L689.2,814.6z"/>
			<path class="st18" d="M710.5,844.4l-1.1-6.2h-6.5l-1,6.2h-5.4l6-29.8h7.3l6.3,29.8H710.5z M703.6,834.1h5.1l-2.6-14.3
				L703.6,834.1z"/>
			<path class="st18" d="M725.1,840.3h7.9v4.2h-13.4v-29.8h5.4V840.3z"/>
			<path class="st18" d="M746.9,814.6h5.4v25.1c0,3.1-1.7,4.7-5.1,4.7h-5.8c-3.4,0-5.1-1.6-5.1-4.7v-25.1h5.4V839
				c0,0.5,0.1,0.8,0.3,1c0.2,0.2,0.5,0.3,1,0.3h2.5c0.5,0,0.9-0.1,1.1-0.3c0.2-0.2,0.3-0.5,0.3-1V814.6z"/>
			<path class="st18" d="M763.3,840.3h9.1v4.2h-14.5v-29.8H772v4.2h-8.7v8.3h7.3v4.2h-7.3V840.3z"/>
			<path class="st18" d="M798.8,814.6v4.2h-5.2v25.7h-5.4v-25.7h-5.2v-4.2H798.8z"/>
			<path class="st18" d="M807.2,814.6h5.8c3.4,0,5.1,1.6,5.1,4.7v20.5c0,3.1-1.7,4.7-5.1,4.7h-5.8c-3.4,0-5.1-1.6-5.1-4.7v-20.5
				C802,816.2,803.8,814.6,807.2,814.6z M812.7,839v-18.9c0-0.5-0.1-0.8-0.3-1c-0.2-0.2-0.5-0.3-1-0.3h-2.5c-0.5,0-0.9,0.1-1.1,0.3
				c-0.2,0.2-0.3,0.5-0.3,1V839c0,0.5,0.1,0.8,0.3,1c0.2,0.2,0.6,0.3,1.1,0.3h2.5c0.5,0,0.9-0.1,1-0.3
				C812.6,839.8,812.7,839.5,812.7,839z"/>
		</g>
	</g>
	<g>
		<polygon class="st5" points="773.1,938.6 748.8,980.5 774.3,980.5 798.7,938.6 774.3,896.7 748.8,896.7 		"/>
	</g>
	<g>
		<polygon class="st5" points="566.4,449.3 590.6,491.4 603.3,469.2 579.2,427.2 530.7,427.3 518,449.4 		"/>
	</g>
	<g>
		<polygon class="st4" points="761,394.5 809.5,394.7 796.7,372.5 748.2,372.4 724.1,414.4 736.9,436.6 		"/>
	</g>
	<g>
		<polygon class="st10" points="293.5,679 269.4,636.9 256.6,659.1 280.7,701.1 329.2,701 342,678.9 		"/>
	</g>
	<g>
		<polygon class="st10" points="824,766.3 775.5,766.2 788.3,788.3 836.8,788.4 860.9,746.4 848.1,724.3 		"/>
	</g>
	<g>
		<polygon class="st4" points="422.5,831.1 446.8,789.2 421.3,789.2 396.9,831.1 421.3,873 446.8,873 		"/>
	</g>
	<g>
		<g>
			<path class="st5" d="M401.6,765.2l-5.9-2.1l-3.2,5.7l4.9,4l-2.7,4.7l-22.9-20l3.6-6.4l29,9.4L401.6,765.2z M389.3,766.1l2.5-4.4
				l-13.7-4.8L389.3,766.1z"/>
			<path class="st5" d="M405.3,750.5l3.9-6.9l3.6,2.1l-6.6,11.6l-25.9-14.8l2.7-4.7L405.3,750.5z"/>
			<path class="st5" d="M413.6,736l3.9-6.9l3.6,2.1l-6.6,11.6L388.6,728l2.7-4.7L413.6,736z"/>
			<path class="st5" d="M399.4,709.2l2.9-5c1.7-3,3.9-3.7,6.6-2.1l17.7,10.2c2.7,1.6,3.2,3.8,1.5,6.8l-2.9,5c-1.7,3-3.9,3.7-6.6,2.1
				L400.9,716C398.2,714.4,397.7,712.1,399.4,709.2z M423.3,716.5l-16.4-9.4c-0.4-0.2-0.8-0.3-1-0.3c-0.2,0.1-0.5,0.3-0.7,0.8
				l-1.2,2.2c-0.3,0.5-0.4,0.8-0.3,1.1c0.1,0.2,0.3,0.5,0.7,0.8l16.4,9.4c0.4,0.2,0.8,0.3,1,0.3c0.2-0.1,0.5-0.3,0.8-0.8l1.2-2.2
				c0.2-0.4,0.3-0.8,0.3-1C424,717,423.7,716.8,423.3,716.5z"/>
			<path class="st5" d="M423.8,686.5l-2.7,4.8l-4-2.3c-0.4-0.2-0.8-0.3-1-0.3c-0.2,0.1-0.5,0.3-0.7,0.8l-1.1,1.9
				c-0.3,0.4-0.3,0.8-0.3,1c0.1,0.2,0.3,0.5,0.7,0.8l16.8,9.6c0.4,0.3,0.8,0.3,1,0.3c0.2-0.1,0.5-0.3,0.7-0.8l1.1-1.9
				c0.3-0.4,0.3-0.8,0.3-1c-0.1-0.2-0.3-0.5-0.7-0.8l-3.9-2.3l2.7-4.8l4.4,2.5c2.7,1.6,3.2,3.8,1.5,6.8l-2.7,4.8
				c-1.7,3-3.9,3.7-6.6,2.1l-17.8-10.2c-2.7-1.5-3.2-3.8-1.5-6.8l2.7-4.8c1.7-3,3.9-3.7,6.6-2.1L423.8,686.5z"/>
			<path class="st5" d="M449.5,681.6l-5.9-2.1l-3.2,5.7l4.9,4l-2.7,4.7l-22.9-20l3.6-6.4l29,9.4L449.5,681.6z M437.2,682.5l2.5-4.4
				l-13.7-4.8L437.2,682.5z"/>
			<path class="st5" d="M435.1,646.9l3.6,2.1l-2.6,4.5l22.3,12.8l-2.7,4.7l-22.3-12.8l-2.6,4.5l-3.6-2.1L435.1,646.9z"/>
			<path class="st5" d="M461.8,651.9l4.5-7.9l3.6,2.1l-7.2,12.6l-25.9-14.8l7-12.3l3.6,2.1l-4.3,7.5l7.2,4.1l3.6-6.4l3.6,2.1
				l-3.6,6.4L461.8,651.9z"/>
			<path class="st5" d="M466.6,611.7l-2.7,4.8l-4-2.3c-0.4-0.3-0.8-0.3-1-0.3c-0.2,0.1-0.5,0.3-0.7,0.8l-1.1,1.9
				c-0.3,0.4-0.3,0.8-0.3,1c0.1,0.2,0.3,0.5,0.7,0.8l16.8,9.6c0.4,0.3,0.8,0.3,1,0.3c0.2-0.1,0.5-0.3,0.7-0.8l1.1-1.9
				c0.3-0.4,0.3-0.8,0.3-1c-0.1-0.2-0.3-0.5-0.7-0.8l-3.9-2.3l2.7-4.8l4.4,2.5c2.7,1.5,3.2,3.8,1.5,6.8l-2.7,4.8
				c-1.7,3-3.9,3.7-6.6,2.1l-17.8-10.2c-2.7-1.5-3.2-3.8-1.5-6.8l2.7-4.8c1.7-3,3.9-3.7,6.6-2.1L466.6,611.7z"/>
			<path class="st5" d="M492.4,606.9l-5.9-2.1l-3.2,5.7l4.9,4l-2.7,4.7l-22.9-20l3.6-6.4l29,9.4L492.4,606.9z M480,607.8l2.5-4.4
				l-13.7-4.8L480,607.8z"/>
			<path class="st5" d="M471,584.2l5.4-9.5c1.7-3,3.9-3.7,6.6-2.1l8.2,4.7c2.7,1.6,3.2,3.8,1.5,6.8l-2.7,4.8l9.5,5.5l-2.7,4.7
				L471,584.2z M488,581.6l-6.9-4c-0.4-0.2-0.8-0.3-1-0.3c-0.2,0.1-0.5,0.3-0.7,0.8l-1.9,3.4l9.1,5.2l1.9-3.4c0.3-0.4,0.3-0.8,0.3-1
				C488.6,582.1,488.4,581.9,488,581.6z"/>
			<path class="st5" d="M481.4,566.1l2.7-4.7l25.9,14.8l-2.7,4.7L481.4,566.1z"/>
			<path class="st5" d="M493.8,544.4l3.6,2.1l-2.6,4.5l22.3,12.8l-2.7,4.7l-22.3-12.8l-2.6,4.5l-3.6-2.1L493.8,544.4z"/>
			<path class="st5" d="M527.5,545.6l-5.9-2.1l-3.2,5.7l4.9,4l-2.7,4.7l-22.9-20l3.6-6.4l29,9.4L527.5,545.6z M515.1,546.5l2.5-4.4
				l-13.7-4.8L515.1,546.5z"/>
			<path class="st5" d="M531.1,531l3.9-6.9l3.6,2.1l-6.6,11.6l-25.9-14.8l2.7-4.7L531.1,531z"/>
			<path class="st5" d="M525.6,489l3.6,2.1l-2.6,4.5l22.3,12.8l-2.7,4.7l-22.3-12.8l-2.6,4.5l-3.6-2.1L525.6,489z"/>
			<path class="st5" d="M529.8,481.7l2.9-5c1.7-3,3.9-3.7,6.6-2.1l17.7,10.2c2.7,1.5,3.2,3.8,1.5,6.8l-2.9,5c-1.7,3-3.9,3.7-6.6,2.1
				l-17.7-10.2C528.6,486.9,528.1,484.7,529.8,481.7z M553.6,489.1l-16.4-9.4c-0.4-0.2-0.8-0.3-1-0.3c-0.2,0.1-0.5,0.3-0.7,0.8
				l-1.2,2.2c-0.3,0.5-0.4,0.8-0.3,1.1c0.1,0.3,0.3,0.5,0.7,0.8l16.4,9.4c0.4,0.2,0.8,0.3,1,0.3c0.2-0.1,0.5-0.3,0.8-0.8l1.2-2.2
				c0.3-0.4,0.3-0.8,0.3-1C554.3,489.6,554.1,489.3,553.6,489.1z"/>
		</g>
	</g>
</g>
<g id="Layer_6">
	<g class="st19">
		<path class="st3" d="M135.9,660.5l0,0.2l9.5,3.6l-10.5,5.3l-22.1-8.4l-0.4-11l39.9-1.3l0.4,11L135.9,660.5z M115.6,693.9l-1.7,0.1
			l-0.3-10.7l34.9-17.8l4.5,1.8l0.2,7.5L115.6,693.9z M121.3,693.8l22.4-11.4l9.7-0.3l0.3,10.7L121.3,693.8z"/>
		<path class="st3" d="M113.9,621.4l1.1-11.5l39.7,3.9l-1.1,11.5L113.9,621.4z M115.2,607.4l1.4-14.7l8.8,0.9l-1.4,14.7L115.2,607.4
			z M130.5,608.9l1.2-11.9l8.8,0.9l-1.2,11.9L130.5,608.9z M146.1,610.5l1.4-14.7l8.8,0.9l-1.4,14.7L146.1,610.5z"/>
		<path class="st3" d="M121,565.2l2.5-11.3l39,8.5l-2.5,11.3L121,565.2z M150.2,554.8l-0.5,2.3l-8.7-1.9l0.4-1.9
			c0.3-1.2,0.4-2.1,0.4-2.7c0-0.6,0-1.1-0.2-1.5c-0.2-0.4-0.5-0.7-1.1-0.9c-0.5-0.2-1.3-0.5-2.3-0.7s-1.8-0.3-2.4-0.3
			c-0.6,0-1,0.1-1.4,0.4c-0.3,0.2-0.6,0.7-0.8,1.2c-0.2,0.6-0.4,1.5-0.7,2.7l-0.4,1.9l-8.7-1.9l1.3-5.8c0.6-2.7,1.3-4.8,2.2-6.3
			c0.9-1.5,2-2.7,3.3-3.3c1.2-0.6,2.6-0.9,4.2-0.8c1.6,0,3.5,0.3,5.9,0.9c3.1,0.7,5.4,1.5,6.9,2.4c1.9,1.3,3.1,3,3.6,5.2l15.9-2.7
			l-2.6,11.9L150.2,554.8z"/>
		<path class="st3" d="M135.5,507.5l3.6-11l37.9,12.4l-3.6,11L135.5,507.5z"/>
		<path class="st3" d="M147.4,473.3l13-29.9l8.5,3.7l-13,29.9L147.4,473.3z M162.2,468.3l4.6-10.6l25.9,11.3l-4.6,10.6L162.2,468.3z
			"/>
		<path class="st3" d="M188.8,391.9l6.5-9.6l33.1,22.3l-6.5,9.6L188.8,391.9z M222.4,397.6l1.3-2c0.6-0.9,1-1.6,1.3-2.1
			c0.3-0.5,0.4-0.9,0.3-1.3c0-0.4-0.2-0.7-0.5-1c-0.3-0.3-0.8-0.7-1.5-1.2c-0.7-0.5-1.3-0.8-1.7-1c-0.4-0.2-0.8-0.2-1.1-0.1
			c-0.6,0.2-1.4,1.1-2.6,2.8l-1.3,2l-7.4-5l1.1-1.7c0.6-0.9,1-1.6,1.3-2.1c0.3-0.5,0.4-0.9,0.3-1.3c0-0.4-0.2-0.7-0.5-1
			c-0.3-0.3-0.7-0.7-1.3-1.1c-0.6-0.4-1.2-0.7-1.5-0.9c-0.4-0.1-0.8-0.2-1.1-0.1c-0.3,0.1-0.7,0.4-1.1,0.8c-0.4,0.4-0.8,1.1-1.5,2
			l-1.1,1.7l-7.4-5l3.7-5.5c4.4-6.4,9.3-7.8,14.8-4c2.3,1.6,3.8,3.2,4.4,4.9c0.6,1.7,0.4,3.7-0.4,6l0.2,0.1c1.9-1.8,3.6-2.7,5.3-2.9
			c1.9-0.2,4.1,0.6,6.7,2.3c2.9,2,4.6,4.3,5,6.8c0.4,2.6-0.6,5.6-2.9,9l-3.7,5.5L222.4,397.6z"/>
		<path class="st3" d="M229.7,336.4l0.6-0.7l15,7l13.7,20.8l-7.6,8.8L229.7,336.4z M263,348.1l-6.4,7.3l-5.1-7.7l3-3.5l-22.5-10.5
			l7-8l38.4,16.6l-7.8,8.9L263,348.1z"/>
		<path class="st3" d="M297.2,307.3c-0.5-0.6-1-1-1.3-1.2c-0.3-0.2-0.6-0.2-0.9-0.2c-0.3,0.1-0.7,0.3-1.2,0.7l-5.9,4.2
			c-3.4,2.5-6.5,3.4-9.1,2.7c-1.1-0.3-2.3-0.8-3.4-1.7c-1.1-0.9-2.3-2.1-3.7-3.5c-2.9-3.2-4.1-6.2-3.8-9.1c0.3-2.3,1.7-4.9,4.4-7.6
			l7.8,8.6c0.3,0.4,0.6,0.7,0.9,0.9c0.3,0.2,0.5,0.4,0.7,0.4c0.2,0.1,0.5,0.1,0.8,0c0.3-0.1,0.6-0.3,1-0.7l6.6-4.7
			c1.4-0.9,2.6-1.6,3.6-2.1s2-0.6,3.1-0.6c2.5,0.2,5.3,2,8.4,5.4c3.3,3.6,4.8,6.9,4.5,9.8c-0.1,1.3-0.5,2.6-1.3,3.8
			c-0.7,1.2-1.8,2.5-3.1,3.8L297.2,307.3z M286.1,290.9c-1.4,1.1-2.5,2.1-3.3,2.8c-1,0.9-2,1.8-2.8,2.7l-6-6.7l1.1-1
			c2.3-2.1,4.9-4.2,7.7-6.2c0.9-0.6,2-1.3,3.1-2l5.6,6.2C290.5,287.6,288.7,288.9,286.1,290.9z M294.8,325.3c-1.6,1.2-2.8,2-3.7,2.6
			l-5.7-6.3c1.8-1.4,3.9-3,6.2-4.8c1.4-1.2,2.4-2,3-2.6c1.5-1.4,2.5-2.4,2.9-2.9l6.1,6.7l-0.5,0.4
			C300.3,321,297.5,323.3,294.8,325.3z"/>
		<path class="st3" d="M307.7,261.9l9.4-6.8l23.3,32.4l-9.4,6.8L307.7,261.9z M319.1,253.7l12-8.6l5.2,7.2l-12,8.6L319.1,253.7z
			 M328.1,266.1l9.7-7l5.2,7.2l-9.7,7L328.1,266.1z M337.3,278.9l12-8.6l5.2,7.2l-12,8.6L337.3,278.9z"/>
		<path class="st3" d="M354.6,230.1l10.1-5.6l19.3,34.9L374,265L354.6,230.1z M381.9,250.4l0.4-0.2c1.7-0.9,2.8-1.6,3.4-2.2
			c0.6-0.5,0.9-1.2,0.9-1.9c0-0.8-0.3-1.9-1-3.2c-0.9-1.7-1.8-3.6-2.9-5.5c-1.1-1.9-2.1-3.8-3.2-5.5c-0.8-1.3-1.5-2.1-2.2-2.5
			s-1.5-0.5-2.3-0.2c-0.8,0.3-2,0.9-3.4,1.7l-0.4,0.2l-4.3-7.8l0.4-0.2c2.7-1.5,5-2.6,7-3.4c1.9-0.8,3.6-1.2,5.1-1.4
			c1.4-0.1,2.7,0.1,3.9,0.6c1.2,0.5,2.3,1.3,3.3,2.5c0.9,1,1.9,2.3,2.9,3.9c1,1.6,2.2,3.7,3.7,6.3c1.5,2.7,2.6,4.9,3.4,6.5
			c0.8,1.6,1.4,3.1,1.8,4.5c0.4,1.5,0.5,2.9,0.4,4.1c-0.2,1.3-0.7,2.5-1.6,3.6c-0.9,1.2-2.2,2.4-3.9,3.6c-1.7,1.2-3.9,2.6-6.6,4.1
			l-0.4,0.2L381.9,250.4z"/>
		<path class="st3" d="M842.4,219l10.1,5.8l-19.8,34.7l-10.1-5.8L842.4,219z M846.5,240.3l9.9,5.7l-4.4,7.7l-9.9-5.7L846.5,240.3z
			 M854.6,226l11.8,6.7l-4.4,7.7l-11.8-6.7L854.6,226z"/>
		<path class="st3" d="M888.8,247.2l9.3,6.9l-23.6,32.2l-9.3-6.9L888.8,247.2z M886.4,278.1l-1.9-1.4l5.3-7.2l1.6,1.2
			c1,0.7,1.7,1.2,2.3,1.5c0.6,0.3,1.1,0.4,1.5,0.4c0.4,0,0.8-0.2,1.2-0.6c0.4-0.4,0.9-1,1.5-1.8c0.6-0.8,1-1.5,1.3-2
			c0.2-0.5,0.3-1,0.2-1.4c-0.1-0.4-0.4-0.8-0.8-1.2c-0.4-0.4-1.2-1-2.2-1.8l-1.6-1.2l5.3-7.2l4.8,3.5c2.2,1.6,3.8,3.2,4.9,4.6
			c1,1.4,1.6,2.9,1.7,4.3c0.1,1.3-0.2,2.7-0.9,4.1c-0.7,1.4-1.7,3.1-3.2,5.1c-1.9,2.5-3.5,4.3-5,5.3c-1.9,1.3-4,1.6-6.2,1.2l-4,15.6
			l-9.8-7.2L886.4,278.1z"/>
		<path class="st3" d="M936.1,284.1l8.5,7.9l-27.2,29.2l-8.5-7.9L936.1,284.1z M925.2,316.4l10.8,10.1l-6.1,6.5l-10.8-10.1
			L925.2,316.4z M935.9,304.9l8.8,8.2l-6.1,6.5l-8.8-8.2L935.9,304.9z M946.4,293.7l10.8,10.1l-6.1,6.5l-10.8-10.1L946.4,293.7z"/>
		<path class="st3" d="M976.3,323.9l7.5,8.8l-30.4,25.9l-7.5-8.8L976.3,323.9z M961.8,354.7l9.6,11.2l-6.8,5.8l-9.6-11.2
			L961.8,354.7z M973.8,344.5l7.8,9.1l-6.8,5.8l-7.8-9.1L973.8,344.5z M985.4,334.6l9.6,11.2l-6.8,5.8l-9.6-11.2L985.4,334.6z"/>
		<path class="st3" d="M1024.9,400.7l-14.7,20.4l-8.5,4.7l-5.2-9.3L1024.9,400.7z M1029.9,397.9l1.5-0.8l5.2,9.3l-23,31.8l-4.8,0.5
			l-3.7-6.6L1029.9,397.9z M1027.1,436.9l-0.1-0.2l-10.1,1.2l6.9-9.5l23.5-2.6l5.3,9.6l-34.9,19.3l-5.3-9.6L1027.1,436.9z"/>
		<path class="st3" d="M1067.9,470.2l0.4,0.9l-13.2,10l-24.8,2.5l-4.2-10.8L1067.9,470.2z M1042,494.3l-3.5-9l9.2-1l1.7,4.3l19.8-15
			l3.8,9.9l-32.6,26.3l-4.3-11L1042,494.3z"/>
		<path class="st3" d="M1085,519.3l2.8,11.2l-38.7,9.8l-2.8-11.2L1085,519.3z M1063.5,541.6l-0.6-2.2l8.6-2.2l0.5,1.9
			c0.3,1.2,0.6,2,0.8,2.6c0.2,0.6,0.5,1,0.9,1.3c0.3,0.2,0.8,0.3,1.3,0.3c0.6,0,1.3-0.2,2.3-0.4c1-0.3,1.8-0.5,2.3-0.8
			c0.5-0.2,0.9-0.6,1.1-0.9c0.2-0.4,0.2-0.8,0.2-1.4c-0.1-0.6-0.3-1.5-0.6-2.8l-0.5-1.9l8.6-2.2l1.5,5.8c0.7,2.7,1,4.9,0.8,6.7
			c-0.1,1.8-0.6,3.3-1.5,4.4c-0.8,1.1-1.9,1.9-3.3,2.6c-1.4,0.7-3.3,1.3-5.7,1.9c-3,0.8-5.5,1.1-7.2,0.9c-2.3-0.3-4.1-1.3-5.5-3
			l-13,9.5l-3-11.8L1063.5,541.6z"/>
		<path class="st3" d="M1098,578l1.4,11.5l-39.6,5l-1.4-11.5L1098,578z M1074,595.1l12.4-1.5l14.5,7.4l1.6,12.5l-20.4-11.3
			l-19.2,16.4l-1.6-12.9L1074,595.1z"/>
		<path class="st3" d="M1103.6,637.9l0.2,11.6l-39.9,0.6l-0.2-11.6L1103.6,637.9z M1072.8,652.4l0.2,14.7l-8.9,0.1l-0.2-14.7
			L1072.8,652.4z M1088.6,652.2l0.2,12l-8.9,0.1l-0.2-12L1088.6,652.2z M1103.9,651.9l0.2,14.7l-8.9,0.1l-0.2-14.7L1103.9,651.9z"/>
		<path class="st3" d="M1090.3,700.7l-1.2,11.5l-28.2-2.9l1.2-11.5L1090.3,700.7z M1102.9,691.5l-3.4,32.5l-9.2-1l3.4-32.5
			L1102.9,691.5z"/>
		<path class="st3" d="M856.9,1058l0.2-0.1l-1.9-10l10,6.2l4.3,23.3l-9.2,6l-21.8-33.4l9.2-6L856.9,1058z M896,1058l1,1.5l-8.9,5.8
			l-33.4-20.6l-0.8-4.7l6.3-4.1L896,1058z M892.9,1053.2l-21.4-13.2l-5.3-8.1l8.9-5.8L892.9,1053.2z"/>
		<path class="st3" d="M824.1,1102.3l-10.4,5.2l-9.6-19.4c-1.7-3.4-2.9-6-3.6-7.8c-0.7-1.8-1.1-3.4-1-4.9c0-1.7,0.6-3.3,1.6-4.7
			c1.1-1.4,2.8-2.9,5.2-4.3L824.1,1102.3z M819.3,1060.7c2.3-0.4,4.2-0.2,5.8,0.7c1.5,0.8,2.8,2.1,3.9,3.8c1.1,1.8,2.6,4.5,4.5,8.2
			l9.6,19.4l-10.4,5.2l-10.7-21.5c-0.6-1.3-1.3-2.5-1.9-3.6c-0.5-0.9-1-1.5-1.5-1.8c-0.4-0.3-1-0.3-1.6-0.2c-0.6,0.1-1.5,0.5-2.6,1
			l-1.2,0.6c-0.3,0.1-0.6,0.3-0.9,0.6l-4-8c0.2-0.2,0.6-0.3,1-0.6l1.1-0.5C814.1,1062.2,817.1,1061.1,819.3,1060.7z"/>
		<path class="st3" d="M785.3,1106.6l-10.8,4.1l-10-26.5l10.8-4.1L785.3,1106.6z M799.2,1113.7l-30.5,11.6l-3.3-8.7l30.5-11.6
			L799.2,1113.7z"/>
		<path class="st3" d="M733.2,1135.7l-11.2,3l-5.7-20.9c-1-3.7-1.7-6.4-2-8.3c-0.4-1.9-0.4-3.6,0-5c0.4-1.7,1.2-3.1,2.5-4.3
			c1.3-1.2,3.3-2.3,5.9-3.2L733.2,1135.7z M736.6,1094c2.3,0.1,4.1,0.7,5.5,1.8c1.3,1.1,2.3,2.6,3.1,4.5c0.8,2,1.7,4.9,2.8,8.9
			l5.7,20.9l-11.2,3l-6.3-23.2c-0.4-1.4-0.8-2.7-1.2-3.9c-0.3-1-0.7-1.7-1.1-2c-0.4-0.4-0.9-0.5-1.6-0.5c-0.6,0-1.5,0.2-2.7,0.5
			l-1.3,0.3c-0.3,0.1-0.6,0.2-1,0.4l-2.3-8.6c0.3-0.1,0.6-0.2,1.1-0.4l1.2-0.3C731.2,1094.4,734.3,1093.9,736.6,1094z"/>
		<path class="st3" d="M676.1,1113.8l9.6-1.5l-1,9.2l-4.6,0.7l10.5,22.5l-10.5,1.7l-18.8-37.4l11.7-1.9L676.1,1113.8z M694.2,1144.2
			l-1,0.2l-7-15l2.8-24.8l11.5-1.8L694.2,1144.2z"/>
		<path class="st3" d="M636.3,1120.2l-12.4,0.8l-0.6-9.3l12.4-0.8L636.3,1120.2z M652.2,1149.8l-11.6,0.7l-2.5-39.8l11.6-0.7
			L652.2,1149.8z"/>
		<path class="st3" d="M572.6,1119.2l-2.4-0.2c-1.1-0.1-1.9-0.1-2.5-0.1c-0.6,0-1,0.1-1.3,0.3c-0.3,0.2-0.5,0.5-0.6,0.9
			c-0.1,0.4-0.2,1-0.3,1.8c-0.1,0.8-0.1,1.5,0,1.9c0.1,0.4,0.2,0.8,0.5,1c0.4,0.4,1.7,0.7,3.7,0.9l2.4,0.2l-0.7,8.8l-2-0.2
			c-1.1-0.1-1.9-0.1-2.5-0.1c-0.6,0-1,0.1-1.3,0.3c-0.3,0.2-0.5,0.5-0.6,0.9c-0.1,0.4-0.2,1-0.3,1.7c-0.1,0.8-0.1,1.4,0,1.8
			c0.1,0.4,0.2,0.7,0.5,1c0.3,0.3,0.7,0.4,1.2,0.5c0.6,0.1,1.4,0.2,2.5,0.3l2,0.2l-0.7,8.8l-6.6-0.5c-7.7-0.6-11.4-4.3-10.8-10.9
			c0.2-2.8,0.9-4.9,2.2-6.2c1.2-1.3,3-2.2,5.5-2.6l0-0.2c-2.5-0.8-4.2-1.8-5.2-3.1c-1.1-1.6-1.6-3.9-1.3-7c0.3-3.5,1.4-6.1,3.5-7.8
			c2-1.6,5.1-2.3,9.3-1.9l6.6,0.5L572.6,1119.2z M584.1,1151.2l-11.6-0.9l3.2-39.8l11.6,0.9L584.1,1151.2z"/>
		<path class="st3" d="M520,1143.7l-14.5-2.6l1.6-8.7l14.5,2.6L520,1143.7z M522.7,1128.6l-11.8-2.1l1.6-8.7l11.8,2.1L522.7,1128.6z
			 M525.5,1113.1l-14.5-2.6l1.6-8.7l14.5,2.6L525.5,1113.1z M533.8,1146.2l-11.4-2.1l7.1-39.3l11.4,2.1L533.8,1146.2z"/>
		<path class="st3" d="M469.2,1116.6l-4,14l-10.6-3.1l9.3-32.1L469.2,1116.6z M487.7,1135.3l-0.5,1.6l-11.1-3.2l-10.9-42.9l0.5-1.6
			l11.1,3.2L487.7,1135.3z M489,1130.7l-5.4-21.2l4-14l10.6,3.1L489,1130.7z"/>
		<path class="st3" d="M423.3,1115.8l-13.7-5.5l3.3-8.2l13.7,5.5L423.3,1115.8z M429,1101.6l-11.1-4.5l3.3-8.2l11.1,4.5L429,1101.6z
			 M434.9,1087l-13.7-5.5l3.3-8.2l13.7,5.5L434.9,1087z M436.3,1121l-10.8-4.3l14.9-37l10.8,4.3L436.3,1121z"/>
		<path class="st3" d="M380.4,1096.1l-12.1-6.2l4.1-7.9l12.1,6.2L380.4,1096.1z M387.9,1081.4l-10.2-5.2l4.1-7.9l10.2,5.2
			L387.9,1081.4z M392.9,1102.5l-10.3-5.3l18.3-35.5l10.3,5.3L392.9,1102.5z"/>
		<path class="st3" d="M353.9,1081.3l-9.9-6.1l20.9-34l9.9,6.1L353.9,1081.3z"/>
		<path class="st3" d="M331.1,1067.1l-26.4-19.2l5.4-7.5l26.4,19.2L331.1,1067.1z M329.4,1051.5l-9.4-6.8l16.6-22.9l9.4,6.8
			L329.4,1051.5z"/>
	</g>
</g>
</svg>
