<?xml version="1.0" encoding="utf-8"?>
<!-- Generator: Adobe Illustrator 23.0.1, SVG Export Plug-In . SVG Version: 6.00 Build 0)  -->
<svg version="1.1" xmlns="http://www.w3.org/2000/svg" xmlns:xlink="http://www.w3.org/1999/xlink" x="0px" y="0px"
	 viewBox="0 0 1269 934.4" style="enable-background:new 0 0 1269 934.4;" xml:space="preserve">
<g id="Layer_2">
</g>
<g id="ëÎÓÈ_1">
	<g>
		<defs>
			<path id="SVGID_1_" d="M1202.4,632.9c0-0.7,0-1.5-0.1-2.2c0-0.4,0-0.9-0.1-1.3c0-0.7-0.1-1.3-0.1-2c0-0.5-0.1-0.9-0.1-1.4
				c0-0.5-0.1-0.9-0.1-1.4c0-0.1,0-0.3,0-0.4c-0.1-1.6-0.3-3.2-0.4-4.8c0-0.3-0.1-0.6-0.1-1c-0.2-1.5-0.3-3-0.5-4.5
				c0-0.2,0-0.3-0.1-0.5c0-0.1,0-0.1,0-0.2c-0.2-1.4-0.4-2.8-0.6-4.2c-0.1-0.3-0.1-0.7-0.2-1c-0.2-1.1-0.4-2.2-0.5-3.2
				c0-0.2-0.1-0.4-0.1-0.7c-0.1-0.3-0.1-0.6-0.2-0.8c-0.1-0.8-0.3-1.5-0.4-2.3c-0.1-0.5-0.2-1.1-0.3-1.6c-0.2-0.8-0.3-1.6-0.5-2.4
				c-0.1-0.4-0.1-0.7-0.2-1.1c0-0.2-0.1-0.3-0.1-0.5c-0.1-0.7-0.3-1.3-0.5-2c-0.1-0.6-0.3-1.1-0.4-1.7c-0.2-0.7-0.3-1.4-0.5-2
				c-0.1-0.5-0.2-0.9-0.3-1.3c0-0.1-0.1-0.2-0.1-0.4c-0.1-0.6-0.3-1.1-0.4-1.7c-0.2-0.7-0.3-1.3-0.5-2c-0.2-0.6-0.3-1.1-0.5-1.7
				c-0.1-0.5-0.3-1-0.4-1.5c0-0.1-0.1-0.2-0.1-0.3c-0.6-2-1.2-4-1.8-5.9c-0.1-0.2-0.1-0.4-0.2-0.5c0-0.2-0.1-0.3-0.2-0.5
				c-0.6-1.9-1.2-3.8-1.9-5.6c0-0.1-0.1-0.3-0.1-0.4c-0.1-0.2-0.1-0.4-0.2-0.6c-0.7-1.9-1.4-3.8-2.1-5.6c0,0,0-0.1,0-0.1
				c0-0.1-0.1-0.2-0.1-0.3c-0.7-1.8-1.4-3.5-2.1-5.3c-0.1-0.2-0.2-0.4-0.2-0.6c0-0.1-0.1-0.2-0.1-0.3c-0.7-1.8-1.5-3.5-2.3-5.3
				c-0.1-0.2-0.1-0.3-0.2-0.5c-0.1-0.2-0.2-0.4-0.3-0.6c-0.8-1.8-1.6-3.6-2.4-5.4c0,0,0-0.1,0-0.1c0-0.1-0.1-0.2-0.1-0.3
				c-0.4-0.8-0.7-1.5-1.1-2.2c4.7-58.6,7.7-117.1,20-167.9c40.1-165.9-21.6-264-188.5-282.9c-165.8-18.8-323.9,45.6-487.5,1.8
				c-119.8-32-315.1-75.8-382.4,76.1c-41.9,94.6-25.4,202.9-38.8,303.1c-8.2,61.2-26.7,121.9-33.5,183
				c-16.6,150.5,73.2,202.6,208.6,209.7c236.6,12.3,602.4,114.5,805.2-56.4c27.2-22.9,46.3-50.8,60.1-81.9c5.4-1.3,10.5-3.3,15.3-6
				l11-6.4c0.7-0.4,1.4-0.8,2-1.2c0.2-0.1,0.4-0.3,0.7-0.4c0.4-0.3,0.9-0.6,1.3-0.9c0.3-0.2,0.5-0.4,0.8-0.5
				c0.4-0.3,0.8-0.5,1.1-0.8c0.3-0.2,0.5-0.4,0.8-0.6c0.4-0.3,0.7-0.5,1.1-0.8c0.3-0.2,0.5-0.5,0.8-0.7c0.3-0.3,0.7-0.6,1-0.8
				c0.3-0.2,0.5-0.5,0.8-0.7c0.3-0.3,0.6-0.6,0.9-0.9c0.3-0.3,0.5-0.5,0.8-0.8c0.3-0.3,0.6-0.6,0.9-0.9c0.3-0.3,0.5-0.5,0.8-0.8
				c0.3-0.3,0.6-0.6,0.9-0.9c0.2-0.3,0.5-0.6,0.7-0.8c0.3-0.3,0.6-0.6,0.8-1c0.2-0.3,0.5-0.6,0.7-0.9c0.3-0.3,0.5-0.7,0.8-1
				c0.2-0.3,0.5-0.6,0.7-0.9c0.3-0.3,0.5-0.7,0.8-1c0.2-0.3,0.4-0.6,0.7-1c0.2-0.4,0.5-0.7,0.7-1.1c0.2-0.3,0.4-0.7,0.6-1
				c0.2-0.4,0.5-0.7,0.7-1.1c0.2-0.3,0.4-0.7,0.6-1c0.2-0.4,0.4-0.8,0.7-1.2c0.2-0.4,0.4-0.7,0.6-1.1c0.2-0.4,0.4-0.8,0.6-1.2
				c0.2-0.4,0.4-0.7,0.5-1.1c0.2-0.4,0.4-0.8,0.6-1.2c0.2-0.4,0.3-0.7,0.5-1.1c0.2-0.4,0.4-0.8,0.6-1.3c0.2-0.4,0.3-0.8,0.5-1.1
				c0.2-0.4,0.3-0.9,0.5-1.3c0.2-0.4,0.3-0.8,0.5-1.2c0.2-0.4,0.3-0.9,0.5-1.3c0.1-0.4,0.3-0.8,0.4-1.2c0.2-0.5,0.3-0.9,0.5-1.4
				c0.1-0.4,0.3-0.8,0.4-1.2c0.1-0.5,0.3-1,0.4-1.4c0.1-0.4,0.2-0.8,0.4-1.2c0.1-0.5,0.3-1,0.4-1.5c0.1-0.4,0.2-0.8,0.3-1.3
				c0.1-0.5,0.2-1,0.4-1.5c0.1-0.4,0.2-0.8,0.3-1.3c0.1-0.5,0.2-1.1,0.3-1.6c0.1-0.4,0.2-0.8,0.3-1.2c0.1-0.6,0.2-1.1,0.3-1.7
				c0.1-0.4,0.1-0.8,0.2-1.2c0.1-0.6,0.2-1.2,0.3-1.8c0.1-0.4,0.1-0.8,0.2-1.1c0.1-0.7,0.2-1.5,0.3-2.2c0-0.3,0.1-0.5,0.1-0.8
				c0.1-1,0.2-2,0.3-3.1c0-0.3,0-0.5,0.1-0.8c0.1-0.8,0.1-1.6,0.2-2.4c0-0.4,0-0.8,0.1-1.2c0-0.7,0.1-1.3,0.1-2c0-0.4,0-0.9,0.1-1.3
				c0-0.6,0-1.1,0.1-1.7c0-0.1,0-0.1,0-0.2c0-1.2,0-2.4,0.1-3.6c0-1.1,0-2.2,0-3.3C1202.4,633.6,1202.4,633.2,1202.4,632.9z"/>
		</defs>
		<clipPath id="SVGID_2_">
			<use xlink:href="#SVGID_1_"  style="overflow:visible;"/>
		</clipPath>
		<image style="overflow:visible;clip-path:url(#SVGID_2_);" width="1269" height="934" xlink:href="defi-4.0c.jpg" >
		</image>
	</g>
</g>
<g id="Layer_3">
</g>
</svg>
