<?xml version="1.0" encoding="utf-8"?>
<!-- Generator: Adobe Illustrator 23.0.1, SVG Export Plug-In . SVG Version: 6.00 Build 0)  -->
<svg version="1.1" id="Layer_1" xmlns="http://www.w3.org/2000/svg" xmlns:xlink="http://www.w3.org/1999/xlink" x="0px" y="0px"
	 viewBox="0 0 64 64" style="enable-background:new 0 0 64 64;" xml:space="preserve">
<style type="text/css">
	.st0{fill:#FFFFFF;}
</style>
<g id="XMLID_826_">
	<path id="XMLID_827_" class="st0" d="M61.97,10.98c-0.99,0.44-2,0.81-3.04,1.11c1.23-1.39,2.16-3.02,2.73-4.81
		c0.13-0.4,0-0.84-0.33-1.1s-0.79-0.29-1.15-0.08c-2.2,1.31-4.58,2.24-7.06,2.79c-2.51-2.45-5.91-3.85-9.44-3.85
		c-7.43,0-13.48,6.05-13.48,13.48c0,0.59,0.04,1.17,0.11,1.74c-9.22-0.81-17.8-5.34-23.69-12.57c-0.21-0.26-0.53-0.4-0.86-0.37
		c-0.33,0.03-0.63,0.21-0.8,0.5c-1.19,2.05-1.83,4.39-1.83,6.78c0,3.25,1.16,6.33,3.21,8.74c-0.62-0.22-1.23-0.49-1.8-0.81
		c-0.31-0.17-0.69-0.17-1,0.01s-0.5,0.5-0.51,0.86c0,0.06,0,0.12,0,0.18c0,4.85,2.61,9.21,6.6,11.59c-0.34-0.03-0.69-0.08-1.03-0.15
		c-0.35-0.07-0.71,0.06-0.95,0.32c-0.24,0.27-0.32,0.64-0.21,0.98c1.48,4.61,5.28,8,9.87,9.04C13.53,47.75,9.17,49,4.59,49
		c-0.95,0-1.92-0.06-2.86-0.17c-0.47-0.06-0.91,0.22-1.07,0.66s0.01,0.94,0.41,1.19c5.88,3.77,12.68,5.76,19.66,5.76
		c13.72,0,22.31-6.47,27.1-11.9c5.97-6.77,9.39-15.73,9.39-24.58c0-0.37-0.01-0.74-0.02-1.12c2.35-1.77,4.38-3.92,6.03-6.39
		c0.25-0.37,0.22-0.87-0.07-1.21C62.87,10.9,62.39,10.79,61.97,10.98z"/>
</g>
</svg>
