<?xml version="1.0" encoding="utf-8"?>
<!-- Generator: Adobe Illustrator 23.0.1, SVG Export Plug-In . SVG Version: 6.00 Build 0)  -->
<svg version="1.1" id="Layer_1" xmlns="http://www.w3.org/2000/svg" xmlns:xlink="http://www.w3.org/1999/xlink" x="0px" y="0px"
	 viewBox="0 0 64 64" style="enable-background:new 0 0 64 64;" xml:space="preserve">
<style type="text/css">
	.st0{fill:#FFFFFF;}
</style>
<g>
	<path class="st0" d="M32,2.2C15.54,2.2,2.2,15.54,2.2,32c0,16.46,13.34,29.8,29.8,29.8c16.46,0,29.8-13.34,29.8-29.8
		C61.8,15.54,48.46,2.2,32,2.2z M51.58,39.08c-1.52,1.59-3.56,2.47-5.75,2.47c-2.19,0-4.23-0.88-5.75-2.47
		c-0.59-0.62-1.08-1.33-1.46-2.11c-1.51,2.01-3.92,3.31-6.62,3.31c-4.57,0-8.29-3.72-8.29-8.29c0-4.57,3.72-8.29,8.29-8.29
		c4.57,0,8.29,3.72,8.29,8.29c0,4.68,2.88,6.81,5.55,6.81c2.67,0,5.55-2.13,5.55-6.81c0-10.69-8.7-19.39-19.39-19.39
		c-10.69,0-19.38,8.7-19.38,19.39c0,10.69,8.7,19.39,19.38,19.39c2.62,0,5.16-0.51,7.55-1.52l1.07,2.52
		c-2.73,1.15-5.63,1.74-8.61,1.74c-5.91,0-11.46-2.3-15.64-6.48C12.18,43.46,9.88,37.91,9.88,32s2.3-11.46,6.48-15.64
		c4.18-4.18,9.73-6.48,15.64-6.48c5.91,0,11.46,2.3,15.64,6.48c4.18,4.18,6.48,9.73,6.48,15.64C54.12,34.89,53.24,37.33,51.58,39.08
		z"/>
	<ellipse transform="matrix(0.9732 -0.2298 0.2298 0.9732 -6.4961 8.2082)" class="st0" cx="32" cy="32" rx="5.55" ry="5.55"/>
</g>
</svg>
