<svg enable-background="new 0 0 276 276" viewBox="0 0 276 276" xmlns="http://www.w3.org/2000/svg"><path fill="#ffee07" d="m137.4 0c-76.2.3-137.7 62.4-137.4 138.6s62.4 137.7 138.6 137.4 137.7-62.4 137.4-138.6-62.4-137.7-138.6-137.4zm73.5 154.7c7.6-3.2 15.2-6.8 21.7-12l.3.3c-6.2 5.7-13.6 9.8-21.1 13.5-7.6 3.6-15.5 6.5-23.7 8.6s-16.7 3.7-25.3 2.9-17.4-3.7-23.1-10.2l.3-.3c7 4.5 15.1 6.1 23.1 6.4 8.1.3 16.3-.4 24.3-2s15.9-4 23.5-7.2zm-8-23.4c0-3 2.4-5.4 5.3-5.4 3 0 5.4 2.4 5.4 5.3 0 3-2.4 5.4-5.3 5.4s-5.3-2.4-5.4-5.3zm-83 0c-13.6 0-24.7-11-24.7-24.7 0-13.6 11-24.7 24.7-24.7 13.6 0 24.7 11 24.7 24.7 0 13.6-11 24.7-24.7 24.7zm40.7 132.4c0-.1 0-.1 0 0-5.3-37.4 27.4-74 45.7-92.7 4.1-4.2 10.5-9.9 16.4-16.1 24.1-22.4 29-49.2-20-62.6-9.3-2.7-18.9-6.5-28.6-10.3-.6-2.4-2.7-5.5-7.1-9.2-6.3-5.5-18.3-5.4-28.6-2.9-11.4-2.7-22.6-3.6-33.4-1-46.9 12.9-54.7 35.7-56.7 63.2-2.5 30.3-3.9 52.7-15.4 78.4-14.1-20.4-22.5-45.2-22.6-71.9-.3-70.4 56.6-127.8 127.1-128.2 70.5-.3 127.9 56.5 128.2 127 .4 63-45 115.6-105 126.3z" /></svg>