<?xml version="1.0" encoding="utf-8"?>
<!-- Generator: Adobe Illustrator 23.0.1, SVG Export Plug-In . SVG Version: 6.00 Build 0)  -->
<svg version="1.1" id="Layer_1" xmlns="http://www.w3.org/2000/svg" xmlns:xlink="http://www.w3.org/1999/xlink" x="0px" y="0px"
	 viewBox="0 0 24 24" style="enable-background:new 0 0 24 24;" xml:space="preserve">
<style type="text/css">
	.st0{fill-rule:evenodd;clip-rule:evenodd;fill:#E84142;}
	.st1{fill-rule:evenodd;clip-rule:evenodd;fill:#FFFFFF;}
</style>
<circle class="st0" cx="12" cy="12" r="12"/>
<path class="st1" d="M8.6,16.8H6.3c-0.5,0-0.7,0-0.9-0.1c-0.2-0.1-0.3-0.3-0.3-0.5c0-0.2,0.1-0.4,0.4-0.8l5.7-10.1
	c0.2-0.4,0.4-0.6,0.5-0.7c0.2-0.1,0.4-0.1,0.5,0c0.2,0.1,0.3,0.3,0.5,0.7l1.3,2l0,0c0.3,0.5,0.4,0.7,0.5,0.9c0.1,0.3,0.1,0.6,0,0.8
	s-0.2,0.5-0.5,1l-3,5.3l0,0c-0.3,0.5-0.4,0.7-0.6,0.9c-0.2,0.2-0.4,0.3-0.7,0.4C9.4,16.8,9.1,16.8,8.6,16.8z"/>
<path class="st1" d="M14.5,16.8h3.3c0.5,0,0.7,0,0.9-0.1c0.2-0.1,0.3-0.3,0.3-0.5c0-0.2-0.1-0.4-0.3-0.8l0,0L17,12.5l0,0
	c-0.2-0.4-0.4-0.6-0.5-0.7c-0.2-0.1-0.4-0.1-0.5,0c-0.2,0.1-0.3,0.3-0.5,0.7l-1.7,2.9l0,0c-0.2,0.4-0.4,0.6-0.4,0.8
	c0,0.2,0.1,0.4,0.3,0.5C13.7,16.8,14,16.8,14.5,16.8z"/>
</svg>
