<?xml version="1.0" encoding="utf-8"?>
<!-- Generator: Adobe Illustrator 23.0.1, SVG Export Plug-In . SVG Version: 6.00 Build 0)  -->
<svg version="1.1" id="Layer_1" xmlns="http://www.w3.org/2000/svg" xmlns:xlink="http://www.w3.org/1999/xlink" x="0px" y="0px"
	 viewBox="0 0 240 240" style="enable-background:new 0 0 240 240;" xml:space="preserve">
<style type="text/css">
	.st0{fill-rule:evenodd;clip-rule:evenodd;fill:#231F20;}
	.st1{fill-rule:evenodd;clip-rule:evenodd;fill:#FFEE07;}
</style>
<circle class="st0" cx="120" cy="120" r="114.4"/>
<path class="st1" d="M216.6,84.4C197,31.2,137.7,3.8,84.4,23.4C31.1,43,3.7,102.3,23.4,155.6c15.3,41.6,54.8,67.4,96.7,67.4
	c11.8,0,23.8-2,35.5-6.4c25.8-9.5,46.4-28.5,57.9-53.4C225,138.2,226.1,110.2,216.6,84.4z M151.7,206.1c-10.4,3.8-21.1,5.6-31.6,5.6
	c-37,0-71.8-22.5-85.7-58.9h2.8c-0.7,0-1.2,0-1.8,0c-0.3,0-0.7,0-1.1,0c0,0,0,0,0,0c0.3,0,0.7,0,1.1,0c0.5,0,1,0,1.5,0
	c0.9,0,56.5,0,56.5,0c4.4,0,6.5,0,8.5-0.5c2.1-0.6,4.1-1.8,5.7-3.3c1.5-1.4,2.6-3.3,4.7-7l0.1-0.1l24-42.4c2.1-3.7,3.2-5.6,3.6-7.6
	c0.5-2.1,0.5-4.4,0-6.5c-0.5-1.9-1.5-3.8-3.6-7.5l-0.1-0.1l-9.4-16.4c-1.9-3.4-2.9-5.1-4.2-5.8c-1.3-0.7-2.9-0.7-4.3,0
	c-1.2,0.6-2.2,2.3-4.2,5.8l-26.7,47.2c-1.3,2.3-3.8,3.8-6.5,3.8c-11.2,0-40.9,0-52.4,0c3-34.4,25.2-65.7,59.7-78.3
	c47.5-17.5,100.3,6.9,117.7,54.4c2.9,7.8,4.6,15.9,5.3,24h-52.8c-3.9,0-5.9,0-7,0.8c-0.5,0.3-0.9,0.8-1.3,1.2
	c-0.9,0.9-1.8,2.4-3.2,4.9l-13.2,22.7l-0.1,0.1c-1.9,3.3-2.9,5-2.8,6.4c0.1,1.5,0.9,2.9,2.1,3.7c1.2,0.8,3.1,0.8,7,0.8h63.3
	c0.8,0,1.5,0,2.2,0c-0.7,1.9-1.5,3.8-2.4,5.7C193,180.7,174.6,197.6,151.7,206.1z"/>
</svg>
