<?xml version="1.0" encoding="utf-8"?>
<!-- Generator: Adobe Illustrator 23.0.1, SVG Export Plug-In . SVG Version: 6.00 Build 0)  -->
<svg version="1.1" id="Layer_1" xmlns="http://www.w3.org/2000/svg" xmlns:xlink="http://www.w3.org/1999/xlink" x="0px" y="0px"
	 viewBox="0 0 1020 240" style="enable-background:new 0 0 1020 240;" xml:space="preserve">
<style type="text/css">
	.st0{fill:#fff;}
	.st1{fill-rule:evenodd;clip-rule:evenodd;fill:#ffee07;}
</style>
<g>
	<path class="st0" d="M455.4,99.8c0-0.2-0.7-0.7-0.7-0.7h-0.8v6.1C455.8,103.4,458.7,105.2,455.4,99.8z"/>
	<path class="st0" d="M459,108.4v-0.5c-2,0.2-4.1,0.2-5.1-0.7v5.2c2-0.3,4.1-1,6.1-0.8l-0.5-1.1C459.2,109.9,459,109.2,459,108.4z"
		/>
	<path class="st0" d="M508.2,175.9c0.5,1.1,1.1,1.4,1.8,1.3v-4.8C508.7,172.9,507.5,174.3,508.2,175.9z"/>
	<path class="st0" d="M703.4,81.6v2.2C705.6,82.7,704.6,81.7,703.4,81.6z"/>
	<path class="st0" d="M343.5,176.6L343.5,176.6c-0.1,0-0.3,0-0.4,0h-2.3c-0.1,1.1-0.2,1.9-0.1,2.1c0.6,1.5,4.8,0.9,5.8-1.2
		C345.6,176.9,344.6,176.6,343.5,176.6L343.5,176.6z"/>
	<path class="st0" d="M291.3,215c-0.4,0.1-0.8,0.1-1.2,0.1C290.2,215.5,290.7,215.3,291.3,215z"/>
	<path class="st0" d="M504.7,138.4C504.6,138.4,504.6,138.4,504.7,138.4c0.3,0.6,0.4,1.3,0.4,2v6.8c1.5,1.1,3.2,1.8,4.9,1.9v-2.5
		c-0.8-0.1-1.6-0.4-2.5-1c-3-1.7-2.5-4.7,2.5-2.3v-4.4C508.1,139.2,506.1,139.4,504.7,138.4z"/>
	<path class="st0" d="M505.4,163.8c0,0.1-0.1,0.3-0.3,0.4v9.7c1.2-0.5,2.1-1.2,2.4-2.2v-2.1c0.6-1.5,1.5-1.7,2.5-1.5v-2.2h-0.4v-1.4
		c0.1-0.2,0.2-0.5,0.4-0.8v-3.5c-0.5,0.1-1.1-0.2-1.8-1.3c0.5-0.4,1.2-1,1.8-1.7v-5.4C504.5,152.6,506.6,161.5,505.4,163.8z"/>
	<path class="st0" d="M456.8,74.5v-1.4c-0.5-0.2-1.2,0.2-1.4,0.7C455.6,74.2,456.3,74.7,456.8,74.5z"/>
	<path class="st0" d="M632.8,212.4v2.8c0,0.2,0.5,0.7,0.7,0.7C634.2,214.9,633.9,211.2,632.8,212.4z"/>
	<path class="st0" d="M919.7,92.2c0.2-0.7-0.5-3-1.4-2.1v1.4C918.5,91.9,919.2,92.4,919.7,92.2z"/>
	<path class="st0" d="M920.4,114c0.2-0.7-0.2-3-1.4-2.3v1.6C919.2,113.8,919.9,114.2,920.4,114z"/>
	<path class="st0" d="M459,67.8c-0.1,0.1-0.1,0.3-0.2,0.4c-0.4,0.9-0.1,1.9,0.2,2.8V67.8z"/>
	<rect x="453.9" y="61.9" class="st0" width="0.8" height="1.4"/>
	<path class="st0" d="M454.7,88.9c0.2,0,0.2-0.5,0-0.5C454.4,88.4,454.4,88.9,454.7,88.9z"/>
	<rect x="802.3" y="176.5" class="st0" width="1.4" height="0"/>
	<path class="st0" d="M459,79.2V75c-0.1,0.1-0.1,0.2-0.2,0.2c-1,1.2-2.8,3.9-4.9,3.9v1.1c1.2,0.7,2.8,1.3,2.8,1.3L459,79.2z"/>
	<path class="st0" d="M454.7,66.8c0,0-0.3,0-0.8-0.1v1.7C454.5,67.9,454.9,67.3,454.7,66.8z"/>
	<path class="st0" d="M425.1,218c-0.5,0-0.5,0.7,0,0.7C425.6,218.6,425.6,218,425.1,218z"/>
	<path class="st0" d="M456.8,131.5c0,0.5,0.7,0.5,0.7,0C457.5,131,456.8,131,456.8,131.5z"/>
	<path class="st0" d="M455.4,134.9c-0.9,0.2-0.9,1.4-0.7,2.1c0,0.2,0.5,0.7,0.7,0.7C456.5,137.3,456.5,135.4,455.4,134.9z"/>
	<path class="st0" d="M448.4,217.3c-0.5,0-0.5,0.7,0,0.7C448.9,218,448.9,217.3,448.4,217.3z"/>
	<polygon class="st0" points="455.4,42.2 454,43.6 454,45 456.1,42.9 	"/>
	<path class="st0" d="M278.9,220.1c0,0,1.4,1.9,2.1,1.4v-2.8C280.5,218.4,277.9,218.9,278.9,220.1z"/>
	<rect x="508.8" y="202.6" class="st0" width="0.7" height="0.7"/>
	<path class="st0" d="M302.8,189.1c0.9,2.1,2.6-0.5,2.8-1.4C304.5,187.3,303.3,188.2,302.8,189.1z"/>
	<rect x="502.1" y="189.3" transform="matrix(0.7071 -0.7071 0.7071 0.7071 12.97 410.9647)" class="st0" width="1" height="1"/>
	<rect x="308.4" y="161.7" class="st0" width="0.7" height="2.1"/>
	<path class="st0" d="M443.5,215.9c0,0.5,0.7,0.5,0.7,0C444.2,215.4,443.5,215.4,443.5,215.9z"/>
	<path class="st0" d="M314.7,142.1c-0.5,0-0.5,0.7,0,0.7C315.1,142.9,315.1,142.1,314.7,142.1z"/>
	<path class="st0" d="M551.9,186.8c-0.2,0-0.2,0.5,0,0.5C552.1,187.3,552.1,186.8,551.9,186.8z"/>
	<path class="st0" d="M551.2,161.7c-0.2-0.5-0.6-0.8-1-1.1v-10.1c0.3-0.1,0.6-0.2,1-0.7c-0.2-0.2-0.6-0.9-1-1.8v-25.6
		c0.5-0.1,0.9-0.3,1-0.8c-0.2-0.5-0.5-0.7-1-0.8V74.8c0.2-0.1,0.3-0.2,0.3-0.3c0-0.1-0.1-0.3-0.3-0.4v-36c0-3.9-3.2-7.1-7.1-7.1h-26
		c-3.9,0-7.1,3.2-7.1,7.1v98.4c-1.1,0.4-2.3,0.5-3.2-0.9c0-0.2-0.7-0.7-0.7-0.7c-1.3-0.7-2.2,0.9-2,2.2l-2.8-5.6
		c0.1-0.2,0.1-0.4-0.1-0.7l-0.5-0.4L468,63.8c-1.8-3.6-6.4-3.3-8.3-0.5c-0.1-0.2-0.1-0.4-0.2-0.6c-0.5-1.4,2.3-2.3,1.6-3.5l-1.6-1.4
		c-0.2,1.4-0.9,3.3-2.1,4.2c-0.2,0-0.7-0.5-0.7-0.7c-1-1.5-2-2-2.8-2.1v-2.9c1.2-1,2.4-1.8,3.5-3.5v-0.7c-1.2-0.6-2.4,1.3-3.5,1.5
		v-2.6c0.7-1.4,1.5-2.8,0-3.5v-9.2c0-3.9-3.2-7.1-7.1-7.1h-25.3c-3.9,0-7.1,3.2-7.1,7.1v19.8c-0.4,0.2-0.6,0.7-0.4,1.3
		c0,0.1,0.2,0.3,0.4,0.6V208c0,3.9,3.2,7.1,7.1,7.1h7.3c-0.3,0.9-0.1,1.8,1.2,2.1h2.1c0.2,0,2.8,1.4,3,1.4h0.7
		c1.2-0.4,3.5-1.9,4.5-3.5h6.4c2,0,3.8-0.8,5-2.1c0.4-0.1,0.6-0.3,0.7-0.7c0-0.1,0-0.2,0.1-0.3c0.8-1.1,1.3-2.6,1.3-4.1v-18.9
		c0,0,0,0,0,0c0.1-0.3,0.1-0.5,0-0.8v-62c0.1-0.1,0.1-0.3,0-0.6v-8.5c0.5-0.1,1-0.2,1.5-0.4c0.7-0.2,0.9-1.6,1.4-2.1
		c0.7-0.7,2.7-0.9,4.4-0.8l2,4c0,0.3,0,0.6,0.1,0.9c0.2,0.1,0.3,0.1,0.4,0.1l1.7,3.4c-0.1,0.3-0.1,0.5,0,0.7c0.1,0,0.3,0,0.4,0
		l3.4,6.9c-1.5,1.1-2.2,2.5,0.4,4.2c-0.3-1,0.2-1.4,0.9-1.5l10.4,21c-0.1,0.1-0.1,0.2-0.1,0.2c0.1,0.3,0.4,0.5,0.6,0.6l5.3,10.8
		c-0.3,0.3-0.5,0.8-0.3,1.1c0.5,0.6,1.1,1.1,1.7,1.7l8,16.3c2.2,4.5,9,2.9,9-2.1v-0.6l2.4,2.4c0.9,1.6-1.2,1.9-1.4,2.8
		c0,0.2,0.7,1.2,0.7,1.4v3.5c-0.2,0.9-0.9,1.2-0.7,2.1c1.8,1.4,3,1.9,3.9,1.8V208c0,3.9,3.2,7.1,7.1,7.1h2.6c0,0.3-0.1,0.6-0.1,0.7
		c1.9,1.6,5.6,0,8.4,0.7c0.2,0,3.3,0.5,3.5,0.7c0.2,0,1.9,1.4,2.1,1.4c1.2-0.2,1.4-2.6,2.8-2.1c1.4,0.5,4.4,2.6,6.3,2.1
		c1.4-1.6-1.9-2.1-2.1-2.8c0-0.1-0.1-0.4-0.1-0.7h2.7c3.9,0,7.1-3.2,7.1-7.1v-4c0.4-0.6,1-1.3,1-1.4c0.3-0.6-0.3-1.1-1-1.6v-2.4
		c0.5-0.3,0.8-0.6,0.3-1.7c-0.1-0.2-0.2-0.3-0.3-0.4v-29.9C551,164.7,551.5,162.5,551.2,161.7z M458.9,68.2c0.1-0.2,0.1-0.3,0.2-0.4
		V71C458.7,70.1,458.5,69.1,458.9,68.2z M456.8,73.1v1.4c-0.5,0.2-1.2-0.2-1.4-0.7C455.6,73.3,456.3,72.9,456.8,73.1z M453.9,61.9
		h0.8v1.4h-0.8V61.9z M453.9,66.8c0.5,0,0.8,0.1,0.8,0.1c0.2,0.5-0.1,1.1-0.8,1.6V66.8z M453.9,79.1c2.2,0.1,4-2.7,4.9-3.9
		c0.1-0.1,0.1-0.1,0.2-0.2v4.2l-2.3,2.3c0,0-1.6-0.6-2.8-1.3L453.9,79.1L453.9,79.1z M454.7,88.9c-0.2,0-0.2-0.5,0-0.5
		C454.9,88.4,454.9,88.9,454.7,88.9z M453.9,99.1h0.8c0,0,0.7,0.5,0.7,0.7c3.3,5.3,0.4,3.6-1.5,5.4V99.1z M453.9,112.4v-5.2
		c1.1,1,3.1,0.9,5.1,0.7v0.5c0,0.7,0.2,1.4,0.5,2.1l0.5,1.1C458,111.4,455.9,112.1,453.9,112.4z M510,177.2
		c-0.7,0.1-1.4-0.2-1.8-1.3c-0.7-1.6,0.5-3,1.8-3.5V177.2z M510,157.2c-0.7,0.7-1.3,1.3-1.8,1.7c0.8,1.1,1.3,1.4,1.8,1.3v3.5
		c-0.2,0.3-0.3,0.6-0.4,0.8v1.4h0.4v2.2c-1-0.2-1.9,0-2.5,1.5v2.1c-0.3,1-1.2,1.7-2.4,2.2v-9.7c0.1-0.2,0.2-0.3,0.3-0.4
		c1.2-2.3-0.8-11.2,4.6-12V157.2z M510,143.3c-5-2.4-5.5,0.6-2.5,2.3c0.9,0.5,1.8,0.8,2.5,1v2.5c-1.7-0.1-3.3-0.8-4.9-1.9v-6.8
		c0-0.7-0.2-1.4-0.5-2c0,0,0,0,0,0c1.4,0.9,3.5,0.8,5.3,0.5V143.3z"/>
	<path class="st0" d="M706,178c-1.6-0.8-2.5-1.5-3.2-2.4c0.1-1.1,0.3-2.2,0.4-3.3c0.3,0.1,0.6,0.1,0.8,0.1c3.1-1,1.1-2.4-0.6-3.7
		c0-0.9,0-1.9,0-2.8v-12.6c0-3.9-3.2-7.1-7.1-7.1h-29.9c-3.9,0-7.1,3.2-7.1,7.1v18.2c0,9.5-4.8,15.1-14.5,17.1
		c-2.2,0.4-3.9,2.4-3.9,4.7v20.7c0,2.7,2.3,4.9,5.1,4.8c0.4,0,0.8-0.1,1.2-0.1c0.8,1,1.8,2.2,1.9,2.2h0.7c0.2-1,0.3-1.8,0.5-2.4
		c1.1-0.1,2.2-0.2,3.3-0.4c0.1,0,0.3,0,0.4,0c0.9-0.2,6.3-0.7,6.3-0.7v-0.3c0.9-0.2,1.8-0.4,2.7-0.6c0,0.8,0,1.4,0.1,1.6
		c0.2,0.7,3,2.6,3.5,2.8h0.7c2.8-2.1,9.3-5.4,11.4-8.4c-0.2-0.4-0.7-0.7-1.2-0.9c1.3-0.6,2.6-1.3,3.9-2c1.7-0.4,3.6-1.3,3.6-1.3
		c0.2,0.2,0.7,1.2,0.7,1.4c0.5,0.2,3,0.2,3.5,0c2.6-0.7,1.4-4.4,4.2-5.6c0.2,0,1.9-0.5,2.1-0.7c1.5-1.5-1.8-2.2-2.7-3.3
		c0.7-0.8,1.3-1.6,1.8-2.4c1.7-0.5,3.9,0.1,6-0.9v-0.7L699,194v-4.4c0.5-1.1,0.9-2.1,1.2-3.2h2.9c1.2-1.9-3.7-0.9,0-5.6
		C703.5,180.3,709,179.6,706,178z"/>
	<path class="st0" d="M651.1,64c0,0.2,0.5,0.7,0.7,0.7c0,0,1.9-1.4,1.4-2.1C652.5,62.4,650.4,62.9,651.1,64z"/>
	<path class="st0" d="M680.7,214.2c-0.2,0-0.2,0.5,0,0.5S680.9,214.2,680.7,214.2z"/>
	<path class="st0" d="M706.7,158.9c-0.5,0-0.5,0.7,0,0.7S707.2,158.9,706.7,158.9z"/>
	<path class="st0" d="M639,37.3c0.2,0.5,0.9,0.9,1.4,0.7v-1.4H639V37.3z"/>
	<path class="st0" d="M635.6,47c1.9-0.9-0.5-3.3-1.4-1.4L635.6,47z"/>
	<path class="st0" d="M632.8,207.5c-0.1,0-0.3-0.4-0.5-1v-5.1h1.2c-0.2-0.5-0.6-1.4-1.2-2.5V193c0-2.2-1.5-4.1-3.7-4.6
		c-5.5-1.4-9.2-4.1-11.3-8c0.8-0.3,1.6-0.8,2.2-1.7c1.4-2.3-2.1-1.4-2.1-2.8V171c0-1-1-1-2.1-0.7V168c0,0,0,0,0,0
		c0.7-0.5,3.7-4.4,3.5-4.9c-1.2-3.5-2.4-2.7-3.5-1.4v-9c0.3-0.9,0.6-1.7,0.7-2.2c0.2-1-0.3-1.4-0.7-1.7v-1.9l1.4-1.9
		c0-0.2,0-0.7,0-0.7c-0.4-0.6-0.9-1.1-1.4-1.5v-4c3.9-0.5,2.5-0.4,0-2.4v-2.9c1.7,0.2,3.4,0.9,0.7-3.3c-0.3-0.5-0.5-0.9-0.7-1.4
		v-13.1c0-0.1,0-0.1,0-0.2c0-0.1,0-0.3,0-0.4v-3.7c2.4-1.3,1.9-2.6,0-2.7v-4.2c0.9-0.6,0.6-1.8,0-3.3v-9.3l1.4-2.5
		c0.5-0.9,1.4-2.8,0-3.5c-0.7-0.3-1.1,0.1-1.4,0.7v-7.1c0,0,0-0.1,0-0.1c1.4-3.7-0.7-4.4,2.8-7c0.1-1.5-1.2-1.3-2.4-1.7
		c0.2-1,0.5-2,0.8-2.9c0.1,0.5,0.3,1,0.9,1.2c4-6.3,8.6-2.8,11.9-7.7c-0.7-0.9-1.9-1.4-2.8-2.1c-0.2-0.2-0.3-0.3-0.4-0.5
		c0.8-0.3,1.6-0.5,2.5-0.8c1.3-0.3,2.5-1.2,3.1-2.3c0.6-0.1,1-0.2,1.1-0.2c1.2-0.2,1.2-3.5,2.8-2.8c0.2,0,1.9,1.4,2.1,1.4h0.7
		c1-3.8-2.3-4-6.1-3.2V43c1.2-1.2,2.5-1.8,1.9-4.3c-0.2-0.9-1-0.9-1.9-0.8v-5.8c0-2.8-2.4-5-5.2-4.7c-36.8,3-55.1,19.7-55.1,49.9
		v87.4c0,19.8,6.6,34.2,19.7,43.1c-0.6,0.9-1,1.6,0.3,1.8c0.9,0.2,1.6,0.1,2.3-0.1c1.5,0.9,3,1.7,4.7,2.4v1.2c0,0.7,4.9,3.5,4.9,3.5
		c0.9-0.9,0.2-1.6,1.4-2.1c0,0,0.1,0,0.1-0.1c0.3,0.1,0.7,0.2,1,0.3c0.5,0.8,0.7,2.4,1.6,2.5h4.2c0.2,0,2.1,1.4,2.3,1.4
		c1.5,0.7,3.5-0.3,5.2-0.9c2.3,0.3,4.8,0.6,7.3,0.8c1.1,0.1,2.2-0.2,3.1-0.9c0.2,0.7,0.4,1.5,0.5,1.6c0.2,0.2,2.1,0.2,2.8,0
		c1.4-0.2,0.2-2.3,0.7-2.8c0.2-0.2,1.9-0.5,2.1-0.7c0,0,0.5-2.6,0.7-3.5c0.2-1.6-0.9-3-0.7-4.9h2.8c0.2-0.2,0.2-1.2,0-1.4
		C635.1,199.6,634.6,208.4,632.8,207.5z M633.5,215.9c-0.2,0-0.7-0.5-0.7-0.7v-2.8C633.9,211.2,634.2,214.9,633.5,215.9z"/>
	<path class="st0" d="M632.1,59.8c0.5,0.2,1.2-0.2,1.4-0.7h-0.7C632.5,59.1,632.1,59.6,632.1,59.8z"/>
	<rect x="616" y="94.9" class="st0" width="0.7" height="0.7"/>
	<path class="st0" d="M586.5,204.7c0,0.5,0.7,0.5,0.7,0C587.2,204.2,586.5,204.2,586.5,204.7z"/>
	<polygon class="st0" points="619.5,73.8 619.5,74.5 620.2,73.8 	"/>
	<path class="st0" d="M617.4,156.8c0,0.2,0.5,0.7,0.7,0.7c1.4-0.5,1.9-2.1,1.4-3.5C618.1,153.1,617.2,155.9,617.4,156.8z"/>
	<rect x="794.6" y="177.3" class="st0" width="0.7" height="0.7"/>
	<rect x="773" y="150.7" transform="matrix(0.7069 -0.7074 0.7074 0.7069 119.7924 591.455)" class="st0" width="1" height="1"/>
	<rect x="768.6" y="171.7" class="st0" width="0.7" height="0.7"/>
	<path class="st0" d="M860.2,206.3l-1.7-6.6c-0.1-1-0.2-2.9-1-3.8l-1.7-6.8c0.2-0.2,0.2-0.4-0.1-0.6c0,0-0.1-0.1-0.1-0.1l-38.6-152
		c-0.8-3.2-3.6-5.4-6.9-5.4h-43.6c-3.3,0-6.1,2.2-6.9,5.4l-43.1,169.9c-1.1,4.5,2.3,8.9,6.9,8.9h0.6c1.4,1.4,3,2.1,4.1,0h5.1
		c0.1,0.6,0.1,1.1,0.1,1.4l1.4,1.4c4.8,2.6,5.8,0.1,7.6-2.8h3.3c-0.2,2.1,3.8,5.1,5.1,2.8c0.7-1.4-3.3-1.4-2.1-2.8l0,0h1.7
		c3.3,0,6.2-2.3,7-5.6l7.5-33.1c2-0.7,3.4-1.7,3-2.7h-2.3l1.3-5.8h1c0-0.4,1.1-4.6,0.2-5.5l1.4-6.2c1,0.2,2.5-0.1,2.5-0.1
		c0.2,0,1.2,0.7,1.4,0.7c0.5-0.2,1.9-1.6,2.1-2.1c-1.2-0.5-3.8-1.4-5.5-0.8l10.2-45.3c0.1,0.1,0.1,0.2,0.2,0.2h0.7v-3.5
		c0,0-0.1,0-0.1-0.1l1.1-4.8c0.4,0.2,0.9,0.2,1.2-0.1l3.5-3.5c0-1.8-2.5,0.1-4.2,1.5l1.8-8.2c0.2,0.2,0.2,0.4,0.2,0.4
		c2.1,1.4,2.3-3.7,2.1-4.2c-0.3-0.5-0.8-0.6-1.3-0.6l0.2-1.1c0.4-2,2.4-2.7,3.9-2.2c0.1,0.5,0.1,1,0,1.5c0.3-0.1,1-0.1,1.7,0
		c0.1,0.2,0.2,0.4,0.2,0.7l10.1,52.4c0.8,4.4-2.5,8.5-7,8.5h-9.9c-3.4,0-6.3,2.4-7,5.8l-3.2,16.4c-0.5,2.4,0.3,4.7,1.9,6.3v0.8
		c0.2,0.1,0.6,0.1,1,0c1.2,0.8,2.6,1.4,4.2,1.4h17.9c1.3,4.8,5,7.2,11.1,4.6c0.1,0.3,0.2,0.6,0.3,0.9l0.8,3.7
		c-0.2,0.9-0.1,1.6,0.4,1.8l0.9,3.9c-0.1,0.2-0.1,0.3,0,0.4c0,0,0.1,0,0.1,0.1l3.9,17.6c0.4,2,1.7,3.6,3.4,4.6c0,0.5,0,1.1,0.2,1.7
		c0.8,0.5,1.3-0.2,1.9-0.9c0.5,0.1,1,0.2,1.5,0.2h1.2l4.1,3.5c1.4,1.2,4.4-1.6,4.9-2.1c0.2,0,1.2,0.5,1.4,0.7
		c0.2,0.2,1.9,1.4,2.1,1.4c2.9,0.9,2.6-1.6,4-3.5h5c-0.6,1-1.8,2-2,2.1c0,0.2,0.5,0.7,0.7,0.7c2.9,0.7,3.8-1.1,5.1-2.8h3.2
		c1.8,0,3.3-0.6,4.6-1.7c0.2-0.1,0.4-0.2,0.7-0.4c2.5-2.3,4-4.2,1.8-6.2C860.3,206.7,860.3,206.5,860.2,206.3z M803.7,176.6h-1.4v0
		L803.7,176.6L803.7,176.6z"/>
	<path class="st0" d="M850.6,218c1.2,1.9,2.8,0,2.3-1.4C852.3,216.1,850.6,218,850.6,218z"/>
	<polygon class="st0" points="936.4,64 937.1,64.7 937.1,64 	"/>
	<polygon class="st0" points="999.7,55.4 999.7,57 1000.6,56.1 	"/>
	<rect x="921.1" y="41.5" class="st0" width="0.7" height="0.7"/>
	<path class="st0" d="M969.5,138.4c0.5,1.4,3.7,0.7,3-0.7C972,137.5,969.7,137.3,969.5,138.4z"/>
	<path class="st0" d="M901.3,219.4c0.9,1.6,3.5,0,2.8-1.4C903.2,216.3,900.6,218,901.3,219.4z"/>
	<path class="st0" d="M1006.9,80.8c-1.6,0.2-1.9,0.9-3.5,0.7c-1.6-4.9,10.9-12.3-0.7-8.4h-0.6c0-0.2-0.1-0.5-0.1-0.8v-0.6l3.5-3.5
		c0,0,0-0.5,0-0.7l-1.4-1.4l-1.4,1.4c-1.9-2.1-0.2-3.7,0.7-5.6c0.6-1.2-2-1.4-4.3-1.8c-1.4-3.6-3.2-6.8-5.5-9.8
		c0.1-1.5-0.3-2.6-1.6-2.6h-0.6C981,36.6,963.3,31,938.3,31h-6.4c-3.9,0-7.1,3.2-7.1,7.1v2.4c-0.1,0.1-0.1,0.2-0.2,0.3
		c0,0.1,0.1,0.2,0.2,0.3v6.8c-0.7-0.8-1.6-1.6-2.3-2.2c-0.9,2.6,0.7,3.7,2.1,5.6c0,0.1,0.1,0.2,0.2,0.3v3.2c0,0.4,0,0.8,0.1,1.1
		c-0.3,0-0.6,0.1-1,0.2c-0.2,0.7-0.7,3.3-0.7,3.7c-0.2,1.6-0.2,5.4,0,5.6l1.4,1.4l0.7-0.7v-6.3c0-0.4,0.2-1,0.3-1.7
		c1.2,2.2,3.6,3.7,6.3,3.7h1.7c0,0,0,0,0,0c0.1,0,0.2,0,0.3,0h2.6c3.2,0.3,5.8,1.8,6.8,1.4c-0.1-0.4-0.1-0.8,0-1.2
		c1.4,0.2,2.8,0.4,4,0.8c0.4,1.4,2.1,3,2.6,2.5l0.6-1.2c1.9,1,3.5,2.4,4.7,4.2c0.5,1.1,0.9,1.9,1,1.9c0,0,0.1-0.1,0.1-0.1
		c2,3.7,2.9,8.7,2.8,15.1c-0.1,11.2-9.1,20.3-20.3,20.3h-7c-3.9,0-7.1,3.2-7.1,7.1v16.5c0,0.9,0.2,1.8,0.5,2.6
		c-1.3-0.6-2.8,0.9-4.2,0.3c-0.5-2.3,0.5-0.7,0.7-2.8c0.9-7.7-1.4-6.1-4.2-9.8c-1.2-1.4,2.6-3.7,2.8-3.5l2.8,2.8l0.7-0.7
		c-0.5-1.2-1.9-6.7-2.1-7.9v-3.5c0-0.5-0.9-1.9-0.7-2.8c1.4-5.8-3.3-1.4-2.1-4.9c0.7-1.9-1.2-5.8,2.8-4.9l1.4-4.2
		c0,0-0.5-0.5-0.7-0.7c-5.6-3.7-0.5-3.5-2.1-7.2c-0.5-1.2-2.3-1.2-1.4-2.8l2.1-2.8v-2.1l1.4-2.1c-0.9-1.6-3.5-0.7-4.2-2.8
		c-0.2-0.5-0.2-3,0-3.5h-0.7c-0.1,0.1-0.3,0.2-0.5,0.3v-2.1c1-0.6,2.1-1.3,2.6-2.4c0.2-0.5,0-3.7,0-4.2c0-0.2,0.7-2.8,0.7-3
		c0-0.5,0-1.4,0-1.4s-2.6-0.5-2.8-1.4c-0.5-2.6,0.2-12.3,0-12.6c-0.1-0.1-0.3-0.1-0.5-0.2v-1.1c0-3.9-3.2-7.1-7.1-7.1h-27.8
		c-3.9,0-7.1,3.2-7.1,7.1V208c0,3.9,3.2,7.1,7.1,7.1h10.6c0.1,0.3,0.2,0.6,0.3,0.7c0.5,0.7,2.6-0.9,3.5-0.7c0.2,0,2.6,0.7,2.8,0.7
		s0.7,0,0.7,0c0.3-0.1,0.8-0.4,1.4-0.7h3.9l2.4,1.4c0.7,0.2,3.5,0.9,4.9,0.7c0.8-1.1-0.3-1.8-1.2-2.3c1.3-0.2,2.5-0.9,3.4-1.7
		c1.4,1.9,6.9-1.2,6.3-1.6c-3.7-2.3-4-1.4,0-6.3c-0.5-1.4-2.8-0.7-3.5,0c0-0.5,0-3.3,0.7-3.3h4.9c1.6,0-6.7-15.6-2.8-17.2
		c-0.2-0.9-0.2-4.6,0-5.6c0-0.5,1.4-3,1.4-3.5c0.5-2.3,0.2-4.2-2.1-2.8c-0.7,0.5-0.9,2.6-2.1,2.1c-0.2-0.1-0.4-0.2-0.5-0.3v-2.5
		c1.9-2.3,7-4.9,6.1-6.5h-2.8c-0.5,0-0.7-1.2-1.4-0.7c-0.2,0-1.2,1.4-1.4,1.4c-0.2,0.1-0.3,0.1-0.5,0.1v-5c1-0.2,2.7,1,4,0.7
		c0.9-0.2,2.6-4.9,2.8-5.6c-1.2-2.6-4.7,1.2-6.3,0.7c-0.2-0.9,0.7-2.3,0.7-2.8c0-0.5,0.7-3.7,0.7-4.2c0.5-2.1,1.4-1.4,2.8-3.5
		l-0.7-11.4c0.7-0.7,3.7-1.6,4.2,0c-2.3,3-1.6,9.3-1.4,12.1l-1.4,2.1c-0.5,0.7,0.7,1.9,1.4,1.4c3.3-1.6,1.6-8.1,2.1-10.7
		c0-0.2,2.1-2.6,2.1-2.8c0-0.2-0.6-2.1-1.1-3.4c1.3,1.2,3,1.9,4.9,1.9h1.8c0,0,0,0,0,0c0.7,0.7,2.6,2.8,2.8,2.8c0,0,2.1-0.5,2.8-0.7
		c1.9-0.6,7.8-1.1,9.6-2.4c0.2,0,0.4,0,0.7,0c0.5,0.7,0.8,2.2,1.8,1.8c0.2,0,1.9-1.4,2.1-1.4c1.9,0.2,1.6,2.8,3.5,2.8
		s0.7-5.1,4.2-4.2s9.3-1.2,10.5-0.7c0.5,0,2.1,1.2,2.3,1.4c0.5,0.2,1.4,0.7,1.4,0.7c0.5,0,1.6-3,4.9-3.5c1.9-2.8-4.4-0.7,0-3.5
		l2.8-2.1c1.9,0.5-0.7,4.6,2.8,3.5c1.2-2.6,6.3-5.3,2.8-7.7c0.2-0.5,1.6-1.9,2.1-2.1h2.1c1.6-0.5,1.2-5.6,4.2-4.2v2.1h0.7
		c0,0,0.7-1.2,0.7-1.4c4-6.3,0.2-2.3-1.4-5.8c-0.5-0.9,0.7-4.9,2.1-4.9c0.2,0,4.2,3.5,4.4,1.4c0.2-0.7,0.2-3.3,0-3.5
		c0-0.2-2.1-2.6-2.1-2.8s1.4-1.9,1.4-2.1c0.5-1-1-3.4-1.4-5c0.1-0.5,0.2-1,0.2-1.5c1.1-1.1,3.4-3.7,4.7-3.3v-0.7
		c-2.3-3-3.7-2.1,0-3.5c0.2-0.2,1.2-0.7,1.4-0.7C1009.2,83.6,1009.9,80.1,1006.9,80.8z M919,111.7c1.2-0.7,1.6,1.6,1.4,2.3
		c-0.5,0.2-1.2-0.2-1.4-0.7V111.7z M918.3,90.1c0.9-0.9,1.6,1.4,1.4,2.1c-0.5,0.2-1.2-0.2-1.4-0.7V90.1z"/>
	<path class="st0" d="M379.6,127.4c0,0,0-0.1,0-0.1C379.6,127.3,379.5,127.3,379.6,127.4L367.3,79c0.1-0.1,0.1-0.2,0.2-0.3
		c-0.1-0.1-0.2-0.1-0.3-0.2l-8.4-33c0.1-0.1,0.3-0.3,0.3-0.5c-0.1-0.3-0.4-0.5-0.6-0.6l-2-8c-0.8-3.2-3.6-5.4-6.9-5.4H306
		c-3.3,0-6.1,2.2-6.9,5.4l-41.3,162.8h-0.1v0.2l-1.8,6.9c-1.1,4.5,2.3,8.9,6.9,8.9h3.9c-0.6,0.7-1.7,1.4-1.3,2.1
		c0.4,0.2,3.7-1.2,5.5-2.1h1.7l0,0c-0.5,0.2-1.9,1.6-2.1,2.1c-0.2,0.2-0.2,1.2,0,1.4c1.2,0.5,3.5-1.6,4.2-2.1
		c5.6-3.3,8.6,3.3,10.5,1.4c0.5-0.5,0.9-2.3,0.7-2.8c0,0,0.1,0,0.1,0h0.5c1.8,0.4,5.4,3.8,7,2.1c0.2-0.2,0.9-1.9,0.9-2.1
		c0.7-0.9,2.1-1.2,1.4-2.8c-0.1-0.1-0.2-0.1-0.3-0.1c0.6-0.8,1.1-1.7,1.3-2.7l2-8.9c0.3,0.5,0.6,0.8,1.2,0.5v-5.1l-0.1-0.1l0.7-3.2
		c0.5-0.5,0.5-1,0.3-1.4l3.3-14.4c1.3-0.3,2.5-0.9,2.8-3.1c0.2-1.4-0.5-2.7-1.1-4.2l4-17.7c1.1-0.6,1.1-2.6,0.9-3.9l7.7-34
		c0.1,0,0.3,0,0.5-0.1c0.2-0.8,0.2-1.5,0-2.2l0.8-3.6c0.2,0.1,0.4,0.1,0.5,0v-2.4l1.9-8.2c0.5,0.4,1.1,0.7,1.9,0.8
		c0.5-0.2,0.9-0.9,0.7-1.4c-0.6-1.1-1.2-2.1-1.8-3l2.1-9.2c0.3-1.2,1.1-1.9,2-2.2c0.7,3.2,2.6,4.8,4.5,5.9l9.4,48.8
		c0.9,4.4-2.5,8.5-7,8.5H324c-3.4,0-6.3,2.4-7,5.8l-2.3,11.7v-0.2H314v0.7h0.6l-0.8,4.3c-0.9,4.4,2.5,8.5,7,8.5h1
		c0.1,0.4-0.1,0.9-0.8,1.4h2.3c0.2,0,1.9-1.4,2.1-1.4c0.9,0,7,6.5,7,4.2c0-0.2-0.7-1.9-0.7-2.1s0.5-1.6,0.7-2.1c0,0,0,0,0,0h2
		c1.6,1.8,3.2,4.3,5.7,4.9c3.3,0.9,5.4-1.2,7-0.7l-1.4,2.8c0,0.2,0.5,0.7,0.7,0.7s1.4,0,1.4,0l2.3-2.2c0,0,0,0,0,0.1l2.6,11.7
		c0,0.4,0,0.8,0.2,0.9c0,0,0,0.1,0.1,0.1l3.3,14.7c0.7,3.3,3.6,5.6,7,5.6h12.5c1.3,0.6,2.5,0.8,3.6,0h6.6v0c0.5,1.2,1.6,0.9,2.1,0
		c0,0,0,0,0,0h4.8c4.6,0,8-4.4,6.9-8.9L379.6,127.4z M290.1,215.1c0.4,0,0.8-0.1,1.2-0.1C290.7,215.3,290.2,215.5,290.1,215.1z
		 M340.7,178.7c-0.1-0.2,0-1.1,0.1-2.1h2.3c0.1,0,0.3,0,0.4,0l0,0h0c1.1,0.1,2.1,0.4,3,0.9C345.5,179.5,341.4,180.1,340.7,178.7z"/>
	<path class="st0" d="M644.7,57.4c0.2,0,0.4,0.1,0.6,0.1c0.1,0.4,0.2,0.7,0.2,0.9c0.4,1.8,1.7,1.2,2.6-0.2
		c7.4,2.4,11.1,8.1,11.1,17.3V88c0,3.9,3.2,7.1,7.1,7.1h15.2l1.2,1.2c0.9,0.7,2.3-0.9,3.5-0.7c2.2,0.5,3.8,0.2,5.1-0.5h4.9
		c0.8,0,1.5-0.1,2.2-0.3c0.9,1.4,3.4,2.3,6.9-1.9c-0.5-0.8-1.5-2.9-1.9-4.7c0,0,0-0.1,0-0.1v-2.1c3.1,1,3.8-0.8,3.3-3.1
		c-0.9-3.7-0.5-5.6-3.3-5.8c0-1.6-0.1-3.1-0.2-4.6c1.1-0.7,1.7-1.8,1.4-3.5c-0.2-1.2-0.7-3.5-0.7-3.5h-1.6
		c-4.6-24.2-23.4-37.2-56.5-38.5c-2.7-0.1-5,2-5,4.8v21C640.9,55,642.5,57,644.7,57.4z M703.4,81.6c1.2,0.1,2.2,1.1,0,2.2V81.6z"/>
</g>
<path class="st1" d="M211.9,84.6C192.2,31.3,132.9,4,79.7,23.6C26.4,43.2-1,102.5,18.6,155.8c15.3,41.6,54.8,67.4,96.7,67.4
	c11.8,0,23.8-2,35.5-6.4c25.8-9.5,46.4-28.5,57.9-53.4C220.2,138.4,221.4,110.4,211.9,84.6z M146.9,206.2
	c-10.4,3.8-21.1,5.6-31.6,5.6c-37,0-71.8-22.5-85.7-58.9h2.8c-0.7,0-1.2,0-1.8,0c-0.3,0-0.7,0-1.1,0c0,0,0,0,0,0c0.3,0,0.7,0,1.1,0
	c0.5,0,1,0,1.5,0c0.9,0,56.5,0,56.5,0c4.4,0,6.5,0,8.5-0.5c2.1-0.6,4.1-1.8,5.7-3.3c1.5-1.4,2.6-3.3,4.7-7l0.1-0.1l24-42.4
	c2.1-3.7,3.2-5.6,3.6-7.6c0.5-2.1,0.5-4.4,0-6.5c-0.5-1.9-1.5-3.8-3.6-7.5l-0.1-0.1l-9.4-16.4c-1.9-3.4-2.9-5.1-4.2-5.8
	c-1.3-0.7-2.9-0.7-4.3,0c-1.2,0.6-2.2,2.3-4.2,5.8l-26.7,47.2c-1.3,2.3-3.8,3.8-6.5,3.8c-11.2,0-40.9,0-52.4,0
	c3-34.4,25.2-65.7,59.7-78.3C131,16.6,183.8,41,201.3,88.5c2.9,7.8,4.6,15.9,5.3,24h-52.8c-3.9,0-5.9,0-7,0.8
	c-0.5,0.3-0.9,0.8-1.3,1.2c-0.9,0.9-1.8,2.4-3.2,4.9L129.1,142l-0.1,0.1c-1.9,3.3-2.9,5-2.8,6.4c0.1,1.5,0.9,2.9,2.1,3.7
	c1.2,0.8,3.1,0.8,7,0.8h63.3c0.8,0,1.5,0,2.2,0c-0.7,1.9-1.5,3.8-2.4,5.7C188.2,180.9,169.9,197.8,146.9,206.2z"/>
</svg>
